<svg xmlns="http://www.w3.org/2000/svg" viewBox="0 0 14.17 12.99">
    <defs>
        <style>
            .cls-1 {
                fill: #c1c5cc;
            }
        </style>
    </defs>
    <g id="Capa_2" data-name="Capa 2">
        <g id="PRINT">
            <path class="cls-1"
                d="M5.86.13A.31.31,0,0,0,5.61,0H.3A.29.29,0,0,0,0,.3V12.7A.3.3,0,0,0,.24,13H.3a.29.29,0,0,0,.29-.18L5.91.41A.32.32,0,0,0,5.86.13Zm1.5,4.48a.27.27,0,0,0-.27-.18.31.31,0,0,0-.28.18L4.45,10.22a.3.3,0,0,0,.16.39l.11,0H6.88l.8,2.17A.28.28,0,0,0,8,13h2.37a.29.29,0,0,0,.29-.29.5.5,0,0,0,0-.12ZM13.88,0H8.56a.29.29,0,0,0-.29.29.22.22,0,0,0,0,.12l5.32,12.4a.28.28,0,0,0,.27.18h.06a.3.3,0,0,0,.23-.29V.3A.29.29,0,0,0,13.88,0Z" />
        </g>
    </g>
</svg>