<svg xmlns="http://www.w3.org/2000/svg" viewBox="0 0 37.15 8.29"><defs><style>.cls-1{fill:#2f3238;}</style></defs><g id="Capa_2" data-name="Capa 2"><g id="PRINT"><path class="cls-1" d="M11.52,8.29V.16H12V1.44l.14-.18A2.21,2.21,0,0,1,14.1,0a2.34,2.34,0,0,1,2.3,1.24,4,4,0,0,1,.1,3.64,2.45,2.45,0,0,1-2.73,1.32A2.21,2.21,0,0,1,12,5.06V8.29ZM12,3a9.3,9.3,0,0,0,.1,1,2,2,0,0,0,1.82,1.85,2.07,2.07,0,0,0,2.28-1.32,3.53,3.53,0,0,0-.08-2.9A2,2,0,0,0,14,.44,2,2,0,0,0,12.18,1.9,10.43,10.43,0,0,0,12,3Zm13.92,1.1a2.36,2.36,0,0,1-2.32,2.1,2.57,2.57,0,0,1-2.85-2.55,4.05,4.05,0,0,1,.36-2.25A2.5,2.5,0,0,1,23.69,0a2.4,2.4,0,0,1,2.13,1.83A10,10,0,0,1,26,3.22H21.17a2.34,2.34,0,0,0,1.58,2.56A2.07,2.07,0,0,0,25.39,4.4C25.47,4.1,25.62,4.06,25.89,4.14ZM21.17,2.81h4.34a2.2,2.2,0,0,0-2-2.38A2.27,2.27,0,0,0,21.17,2.81Zm5.62,1.36h.43a1.68,1.68,0,0,0,1,1.47,2.59,2.59,0,0,0,2.27-.06,1,1,0,0,0,.6-1,.91.91,0,0,0-.62-.93c-.47-.17-1-.27-1.44-.42a10.59,10.59,0,0,1-1.46-.53A1.38,1.38,0,0,1,27.63.4,3.08,3.08,0,0,1,30.56.35a1.55,1.55,0,0,1,.78,1.57H31s0,0,0,0C30.89.71,29.91.35,28.86.45a2.84,2.84,0,0,0-.9.27.92.92,0,0,0-.52.9.91.91,0,0,0,.6.85c.46.17.95.27,1.42.41s.78.17,1.15.3a1.36,1.36,0,0,1,.93,1.22,1.44,1.44,0,0,1-.78,1.5,3.19,3.19,0,0,1-3.39-.3A2,2,0,0,1,26.79,4.17ZM36.94,1.92h-.4a.58.58,0,0,0,0-.14A1.3,1.3,0,0,0,35.45.52,2.61,2.61,0,0,0,33.77.6a1,1,0,0,0-.74,1,.94.94,0,0,0,.72.95c.6.18,1.21.3,1.82.47a3.86,3.86,0,0,1,.58.17A1.5,1.5,0,0,1,36.23,6a3.3,3.3,0,0,1-2.7,0A1.87,1.87,0,0,1,32.4,4.18h.39a2.19,2.19,0,0,0,2.59,1.69,2,2,0,0,0,.75-.3,1.08,1.08,0,0,0,.57-1,.94.94,0,0,0-.63-.93c-.47-.17-1-.26-1.44-.42a11.17,11.17,0,0,1-1.47-.52A1.38,1.38,0,0,1,33.21.42a3,3,0,0,1,3,0A1.57,1.57,0,0,1,36.94,1.92ZM10.8,6.1a.7.7,0,0,1-.86-.33c-.49-.73-1-1.43-1.55-2.14l-.22-.3C7.55,4.15,6.93,5,6.37,5.77a.65.65,0,0,1-.81.32L7.88,3,5.72.17a.72.72,0,0,1,.86.3c.5.73,1,1.43,1.6,2.17C8.74,1.91,9.29,1.2,9.8.48a.65.65,0,0,1,.81-.3L9.77,1.29c-.38.49-.75,1-1.14,1.47a.31.31,0,0,0,0,.43l0,0Zm9.85-6V.56a2.18,2.18,0,0,0-2.32,2V6.11H17.9V.16h.42V1.38A2.51,2.51,0,0,1,20.65.14ZM0,2.94c.06-.3.1-.63.19-.93A2.59,2.59,0,0,1,4.28.54a3,3,0,0,1,1,2.68H.5C.42,5.13,1.8,6.29,3.56,5.7A1.83,1.83,0,0,0,4.72,4.4c.1-.3.25-.35.53-.26A2.41,2.41,0,0,1,4.09,5.92,2.83,2.83,0,0,1,.8,5.5,2.94,2.94,0,0,1,.06,3.76,1.59,1.59,0,0,0,0,3.46Zm.51-.13H4.85A2.2,2.2,0,0,0,2.79.44,2.26,2.26,0,0,0,.5,2.81Z"/></g></g></svg>