<svg xmlns="http://www.w3.org/2000/svg" viewBox="0 0 19.84 19.84"><defs><style>.cls-1{fill:#2f3238;}</style></defs><g id="Capa_2" data-name="Capa 2"><g id="PRINT"><path class="cls-1" d="M19.46,9,10.8.38A1.26,1.26,0,0,0,9,.36l0,0L7.2,2.18,9.48,4.47a1.52,1.52,0,0,1,1.6.38,1.54,1.54,0,0,1,.35,1.57l2.18,2.23a1.53,1.53,0,0,1,1.58,2.54,1.55,1.55,0,0,1-2.15,0,1.51,1.51,0,0,1-.33-1.66L10.63,7.38v5.39a2,2,0,0,1,.41.29,1.52,1.52,0,1,1-2.16,0h0a1.56,1.56,0,0,1,.5-.33V7.28a1.53,1.53,0,0,1-.84-2L6.31,3.07.38,9a1.26,1.26,0,0,0,0,1.79h0L9,19.47a1.26,1.26,0,0,0,1.79,0h0l8.62-8.61a1.28,1.28,0,0,0,0-1.8l0,0"/></g></g></svg>