<svg xmlns="http://www.w3.org/2000/svg" viewBox="0 0 15.95 21.26">
    <defs>
        <style>
            .cls-1 {
                fill: #c1c5cc;
            }
        </style>
    </defs>
    <g id="Capa_2" data-name="Capa 2">
        <g id="PRINT">
            <path class="cls-1"
                d="M5.15,16.43s-.81.47.58.63a12.74,12.74,0,0,0,4.48-.19,6.51,6.51,0,0,0,1.19.57C7.16,19.23,1.82,17.34,5.15,16.43ZM4.62,14.1s-.92.68.49.79a17.82,17.82,0,0,0,5.78-.28,2.63,2.63,0,0,0,.89.54C6.67,16.62,1,15.27,4.62,14.07ZM9,10.15a1.56,1.56,0,0,1-.23,2.22l0,0s2.65-1.35,1.44-3-2-2.36,2.7-5C12.85,4.34,5.45,6.15,9,10.15Z" />
            <path class="cls-1"
                d="M14.58,18.15s.61.5-.68.87c-2.4.74-10.16.95-12.3,0-.81-.33.68-.78,1.13-.88a2.63,2.63,0,0,1,.74-.08c-.86-.6-5.54,1.16-2.4,1.67,8.62,1.37,15.72-.62,13.47-1.58Zm-9-6.46s-3.95.92-1.39,1.25a29,29,0,0,0,5.19,0c1.61-.14,3.26-.43,3.26-.43a7.79,7.79,0,0,0-1,.52c-4,1-11.69.55-9.47-.49a7.42,7.42,0,0,1,3.4-.79Zm7.05,3.88c4.05-2.08,2.18-4.07.86-3.8a2.54,2.54,0,0,0-.45.13.65.65,0,0,1,.34-.27c2.59-.89,4.58,2.64-.8,4l.08-.1ZM10.15,0S12.39,2.21,8,5.6C4.5,8.31,7.2,9.89,8,11.65,6,9.84,4.45,8.24,5.45,6.75,6.93,4.57,11.06,3.51,10.13,0Z" />
            <path class="cls-1"
                d="M5.94,21.19c3.89.25,9.87-.13,10-2,0,0-.28.7-3.21,1.25a32.21,32.21,0,0,1-9.85.16s.5.41,3.06.57Z" />
        </g>
    </g>
</svg>