<svg xmlns="http://www.w3.org/2000/svg" viewBox="0 0 36.27 7.66"><defs><style>.cls-1{fill:#2f3238;fill-rule:evenodd;}</style></defs><g id="Capa_2" data-name="Capa 2"><g id="PRINT"><path class="cls-1" d="M33.34.43s-.08.09-.08.14c0,.31,0,1.14,0,1.7a.06.06,0,0,0,0,0h.64a1.61,1.61,0,0,0,.64-.09A.82.82,0,0,0,35,1.46c0-.76-.53-1-1.32-1a2.07,2.07,0,0,0-.32,0Zm2,3.49c0-.77-.57-1.2-1.6-1.2,0,0-.37,0-.45,0s-.06,0-.06,0c0,.56,0,1.44,0,1.78a.54.54,0,0,0,.26.42,1.74,1.74,0,0,0,.68.1,1.07,1.07,0,0,0,1.15-1.15ZM31.74,0c.08,0,.32,0,.92,0h1.57c.68,0,1.62.24,1.62,1.25A1.24,1.24,0,0,1,35,2.36s0,0,0,0a1.4,1.4,0,0,1,1.23,1.33,1.65,1.65,0,0,1-1.15,1.53,3.68,3.68,0,0,1-1.45.24c-.4,0-1.47,0-2.06,0-.06,0,.06-.31.11-.35a1.46,1.46,0,0,0,.4-.07c.21,0,.23-.11.26-.43s0-1.25,0-1.93c0-1,0-1.59,0-1.9s-.09-.32-.27-.37L31.6.34s.1-.31.14-.34Zm-4.5,4.86a1.64,1.64,0,0,0,.88.21,1.73,1.73,0,0,0,1.25-.45,2.37,2.37,0,0,0,.7-1.87,2.23,2.23,0,0,0-1-2A2.69,2.69,0,0,0,27.58.38a1.06,1.06,0,0,0-.43.06.17.17,0,0,0-.08.12c0,.16,0,1.36,0,2.06s0,1.74,0,1.86a.48.48,0,0,0,.17.38ZM25.47,0l1,0c.49,0,.84,0,1.77,0a2.9,2.9,0,0,1,1.91.61,2.52,2.52,0,0,1,.86,2,2.62,2.62,0,0,1-1.08,2.25,3.64,3.64,0,0,1-2.24.63l-2.2,0h0c0-.07.07-.34.13-.35A1.12,1.12,0,0,0,26,5c.16-.06.19-.15.22-.43,0-.54,0-1.19,0-1.92,0-.53,0-1.55,0-1.88S26,.47,25.81.42L25.32.34c0-.05.11-.29.15-.34Z"/><path class="cls-1" d="M16,5.16A1.48,1.48,0,0,1,15.51,5a.31.31,0,0,1-.06-.13c0-.27,0-1.05,0-1.57a1.92,1.92,0,0,0-.25-1.05,1.08,1.08,0,0,0-.91-.47,2.18,2.18,0,0,0-1.19.56s-.07.07-.06,0,0-.26,0-.37A.22.22,0,0,0,13,1.81a4.79,4.79,0,0,1-1.21.31c-.19,0-.23.22,0,.28h0a2,2,0,0,1,.46.21.24.24,0,0,1,.07.22c0,.58,0,1.48,0,2,0,.2-.06.27-.2.3h0a2.79,2.79,0,0,1-.33.06.43.43,0,0,0,0,.35l.91,0c.52,0,.78,0,.91,0a.43.43,0,0,0,0-.35,1.84,1.84,0,0,1-.36-.05c-.14,0-.17-.1-.18-.27,0-.41,0-1.29,0-1.88a.38.38,0,0,1,.1-.29,1.19,1.19,0,0,1,.72-.26.76.76,0,0,1,.54.18.75.75,0,0,1,.25.49c0,.33,0,1,0,1.58,0,.31,0,.39-.14.42a1,1,0,0,1-.36.07.5.5,0,0,0,0,.36c.23,0,.5,0,.89,0s.79,0,.92,0a.56.56,0,0,0,0-.34Zm2.16-3c-.41,0-.67.32-.67.82s.23,1.09.87,1.09a.58.58,0,0,0,.4-.16A1,1,0,0,0,19,3.22c0-.65-.32-1-.85-1Zm-.05,3.45a.8.8,0,0,0-.34.08c-.33.22-.47.42-.47.66a.66.66,0,0,0,.27.56,1.37,1.37,0,0,0,.94.29c.79,0,1.14-.43,1.14-.85a.59.59,0,0,0-.45-.6,3.26,3.26,0,0,0-1.09-.14Zm.05,2a1.69,1.69,0,0,1-1.11-.33,1,1,0,0,1-.42-.77.6.6,0,0,1,.16-.39,3.33,3.33,0,0,1,.72-.58s0,0,0,0,0,0,0,0A.74.74,0,0,1,17,5V5a.11.11,0,0,1,0-.14l.22-.14c.13-.08.27-.16.36-.23a.09.09,0,0,0,0,0s0,0,0,0a1.13,1.13,0,0,1-.82-1.19,1.2,1.2,0,0,1,.5-1,2.34,2.34,0,0,1,1.13-.38h0a2.47,2.47,0,0,1,.86.19,1.5,1.5,0,0,0,.5.08.68.68,0,0,0,.55-.21.52.52,0,0,1,0,.16.57.57,0,0,1-.1.36.45.45,0,0,1-.34.15h0l-.2,0h0a.15.15,0,0,0,0,.06h0a2.15,2.15,0,0,1,0,.34,1.27,1.27,0,0,1-.53,1.13,1.85,1.85,0,0,1-.92.35h-.22c-.06,0-.21.09-.21.22s.07.26.4.28l.22,0a7.5,7.5,0,0,1,1.26.15.88.88,0,0,1,.58.84,1.7,1.7,0,0,1-1.1,1.45,2.47,2.47,0,0,1-1,.23Zm4.45-5.44a.79.79,0,0,0-.42.11,1.23,1.23,0,0,0-.46,1.11c0,1,.52,1.74,1.25,1.74A.82.82,0,0,0,23.54,5a1.39,1.39,0,0,0,.34-1.09c0-1-.51-1.69-1.25-1.69Zm.14,3.34A1.73,1.73,0,0,1,21,3.67a1.69,1.69,0,0,1,.77-1.48,2.36,2.36,0,0,1,1.2-.36,1.68,1.68,0,0,1,1.72,1.78,1.8,1.8,0,0,1-.82,1.61,2.15,2.15,0,0,1-1.07.34ZM8.86,2.22a.79.79,0,0,0-.42.11A1.23,1.23,0,0,0,8,3.44c0,1,.51,1.74,1.25,1.74A.82.82,0,0,0,9.77,5a1.43,1.43,0,0,0,.34-1.09c0-1-.5-1.69-1.25-1.69ZM9,5.56A1.73,1.73,0,0,1,7.2,3.67,1.69,1.69,0,0,1,8,2.19a2.36,2.36,0,0,1,1.2-.36,1.68,1.68,0,0,1,1.72,1.78,1.8,1.8,0,0,1-.82,1.61A2.12,2.12,0,0,1,9,5.56ZM.08,5.48a.28.28,0,0,1,0-.18.29.29,0,0,1,0-.12,1.65,1.65,0,0,0,.34-.07c.16,0,.22-.12.23-.32,0-.46,0-1.35,0-2v0a.26.26,0,0,0-.08-.22,2.36,2.36,0,0,0-.47-.2C0,2.36,0,2.32,0,2.27s.05-.1.15-.12a5.19,5.19,0,0,0,1.19-.3.18.18,0,0,1,0,.13v.08c0,.09,0,.19,0,.29a.06.06,0,0,0,.06,0h.05a2.19,2.19,0,0,1,1.19-.53,1,1,0,0,1,.9.55s0,0,.06,0a0,0,0,0,0,0,0,2.37,2.37,0,0,1,1.23-.56C5.61,1.86,6,2.4,6,3.31v.9c0,.27,0,.52,0,.7a.25.25,0,0,0,.14.19,1.84,1.84,0,0,0,.45.11h0a.71.71,0,0,1,0,.29H6.39l-.6,0-1,0a.57.57,0,0,1,0-.29l.29-.07c.16,0,.2-.12.21-.32s0-1.42,0-1.72a.77.77,0,0,0-.79-.68,1.43,1.43,0,0,0-.8.3.13.13,0,0,0,0,.08h0a3.72,3.72,0,0,1,0,.64V4c0,.35,0,.68,0,.93a.23.23,0,0,0,.19.24l.11,0,.25.06a.39.39,0,0,1,0,.22s0,.07,0,.07H2.44a.73.73,0,0,1,0-.15.28.28,0,0,1,0-.14l.11,0,.25-.05c.13,0,.18-.1.19-.28A13.09,13.09,0,0,0,3,3.08a.73.73,0,0,0-.76-.68,1.4,1.4,0,0,0-.8.3.25.25,0,0,0-.07.18v.46c0,.56,0,1.27,0,1.57,0,.09,0,.2.22.24a.59.59,0,0,0,.18,0l.14,0a.76.76,0,0,1,0,.29H1.6L1,5.48l-.62,0a1.52,1.52,0,0,0-.29,0Z"/></g></g></svg>