<svg xmlns="http://www.w3.org/2000/svg" viewBox="0 0 36 9.19"><defs><style>.cls-1{fill:#2f3238;}</style></defs><g id="Capa_2" data-name="Capa 2"><g id="PRINT"><path class="cls-1" d="M8.47,9V5.87c0-.66-.27-1-.81-1s-.82.34-.82,1V9H5.22V5.87c0-.66-.26-1-.8-1s-.82.34-.82,1V9H2V5.69a1.82,1.82,0,0,1,.72-1.56,2.77,2.77,0,0,1,1.71-.47A2.07,2.07,0,0,1,6,4.21a2,2,0,0,1,1.62-.55,2.76,2.76,0,0,1,1.71.47,1.82,1.82,0,0,1,.72,1.56V9H8.47Z"/><path class="cls-1" d="M13.13,9.17a2.84,2.84,0,0,1-2-.78,2.69,2.69,0,0,1-.8-2,2.64,2.64,0,0,1,.8-2,2.82,2.82,0,0,1,2-.77,2.81,2.81,0,0,1,2,.77,2.64,2.64,0,0,1,.8,2,2.61,2.61,0,0,1-.8,2A2.85,2.85,0,0,1,13.13,9.17Zm0-4.25a1,1,0,0,0-.9.44,1.74,1.74,0,0,0-.32,1,1.74,1.74,0,0,0,.29,1,1.06,1.06,0,0,0,.91.47A1.09,1.09,0,0,0,14,7.44a1.74,1.74,0,0,0,.3-1,1.75,1.75,0,0,0-.29-1A1,1,0,0,0,13.13,4.92Z"/><path class="cls-1" d="M18.94,9.17a2.82,2.82,0,0,1-2-.78,2.65,2.65,0,0,1-.8-2,2.64,2.64,0,0,1,.8-2,2.79,2.79,0,0,1,2-.77,2.78,2.78,0,0,1,2,.77,2.64,2.64,0,0,1,.81,2,2.62,2.62,0,0,1-.81,2A2.85,2.85,0,0,1,18.94,9.17Zm0-4.25a1,1,0,0,0-.9.44,1.74,1.74,0,0,0-.32,1,1.81,1.81,0,0,0,.29,1,1.09,1.09,0,0,0,.92.47,1.06,1.06,0,0,0,.91-.47,1.68,1.68,0,0,0,.31-1,1.75,1.75,0,0,0-.29-1A1,1,0,0,0,18.94,4.92Z"/><path class="cls-1" d="M26.11,9V8.49a1.35,1.35,0,0,1-.73.45,2.51,2.51,0,0,1-2.71-.63A2.83,2.83,0,0,1,22,6.36a2.83,2.83,0,0,1,.68-1.93,2.34,2.34,0,0,1,1.82-.77c.85,0,1.39.23,1.64.69V0h1.57V9Zm0-3a1.14,1.14,0,0,0-.41-.83,1.27,1.27,0,0,0-.85-.4,1.17,1.17,0,0,0-1,.5,1.83,1.83,0,0,0-.32,1.09,1.84,1.84,0,0,0,.32,1.08,1.13,1.13,0,0,0,1,.52,1.4,1.4,0,0,0,.82-.35,1,1,0,0,0,.44-.72Z"/><path class="cls-1" d="M28.25,9V0h1.6V9Z"/><path class="cls-1" d="M31.78,6.88a1.62,1.62,0,0,0,.48.85,1.27,1.27,0,0,0,.86.36,1.87,1.87,0,0,0,.72-.17c.32-.14.47-.29.47-.47H36a2.63,2.63,0,0,1-1.22,1.31A3.66,3.66,0,0,1,33,9.19a2.92,2.92,0,0,1-2-.76,2.63,2.63,0,0,1-.82-2,2.66,2.66,0,0,1,.82-2,3,3,0,0,1,2.1-.75,2.74,2.74,0,0,1,2.21.93A3.47,3.47,0,0,1,36,6.88Zm2.63-1A1.61,1.61,0,0,0,34,5a1.21,1.21,0,0,0-.86-.36,1.11,1.11,0,0,0-.84.35,1.72,1.72,0,0,0-.46.85Z"/><path class="cls-1" d="M2.15,4.46,2,5.29A3,3,0,0,0,5.7,4c-1.12-.77-2.16,0-3.55.49"/><path class="cls-1" d="M2.15,4.25,2,5.19A2.93,2.93,0,0,0,5.64,4c-1-1.12-2-.19-3.49.29"/><path class="cls-1" d="M3.88,4.62A2.6,2.6,0,0,0,2,5.19C1.68,2.87,3.12,2.92,5,3.5a4.87,4.87,0,0,1-.69,1.79.78.78,0,0,0-.43-.67"/><path class="cls-1" d="M0,4.25a13.17,13.17,0,0,1,6.65-2c-3.3,2.6-3.38,2-6.65,2"/><path class="cls-1" d="M6.65,2.23,4,4.13"/><path class="cls-1" d="M3.53,3.24c0,.3,0-.29,0,0"/><path class="cls-1" d="M0,4.25l4-.12"/><path class="cls-1" d="M3.28,3.27c-.69.19-3,.69-3,1a9.06,9.06,0,0,0,0,1.4"/><path class="cls-1" d="M.48,7.71A2.66,2.66,0,0,1,.29,5.54,6.75,6.75,0,0,1,.48,7.71"/><ellipse class="cls-1" cx="3.18" cy="3.22" rx="0.11" ry="0.06" transform="translate(-0.9 1.26) rotate(-19.63)"/></g></g></svg>