<svg xmlns="http://www.w3.org/2000/svg" viewBox="0 0 24.13 16.09">
    <defs>
        <style>
            .cls-1 {
                fill: #c1c5cc;
            }
        </style>
    </defs>
    <g id="Capa_2" data-name="Capa 2">
        <g id="PRINT">
            <path class="cls-1"
                d="M6.57,15.49l-.39,0V16a1.46,1.46,0,0,0,.57.14A2,2,0,0,0,8.34,15a12.12,12.12,0,0,0,1.5-4.4H9a15.06,15.06,0,0,1-.84,3.44A3,3,0,0,0,7.91,13l-.73-2.33H6.26l1,3.11a3.75,3.75,0,0,1,.24.94.76.76,0,0,1-.3.59A.93.93,0,0,1,6.57,15.49Z" />
            <polygon class="cls-1"
                points="19.59 9.2 19.59 14.66 22.23 14.66 22.23 13.98 20.48 13.98 20.48 9.2 19.59 9.2" />
            <path class="cls-1"
                d="M1.05,10.3h0l1.4,4.36h.71L4.59,10.3h0c.15,1.37.24,2.81.27,4.36h.94c0-1.65-.19-3.47-.44-5.46H4.27l-1.35,4h0l-1.34-4H.41C.19,10.89.06,12.72,0,14.66H.85C.88,13.06.94,11.61,1.05,10.3Zm17.73,1.52c0-1.8-.72-2.71-2.16-2.71A2.08,2.08,0,0,0,15,9.8,3.27,3.27,0,0,0,14.31,12a3.22,3.22,0,0,0,.57,2.11,2,2,0,0,0,1.6.61,2.43,2.43,0,0,0,.73-.1l1.33.76.36-.61h0l-1-.49a2.06,2.06,0,0,0,.26-.25A3.28,3.28,0,0,0,18.78,11.82Zm-2.21,2.24a1.08,1.08,0,0,1-1-.49h0a3.23,3.23,0,0,1-.34-1.71c0-1.38.42-2.06,1.27-2.06a1.08,1.08,0,0,1,1,.49,3.35,3.35,0,0,1,.33,1.7C17.84,13.37,17.42,14.06,16.57,14.06ZM13.27,12s-.79-.45-1.19-.66-.67-.51-.67-.84a.66.66,0,0,1,.25-.51.93.93,0,0,1,.66-.21,2.79,2.79,0,0,1,1.07.23l.21-.47a2.55,2.55,0,0,0-1.41-.4A1.75,1.75,0,0,0,11,9.54a1.4,1.4,0,0,0,.16,2.23l1.17.65c.42.23.65.51.65.83a.74.74,0,0,1-.3.61,1.3,1.3,0,0,1-.79.22,2.68,2.68,0,0,1-1.19-.33l-.24.47a2.8,2.8,0,0,0,1.58.51,2.1,2.1,0,0,0,1.39-.44,1.43,1.43,0,0,0,.52-1.14h0A1.3,1.3,0,0,0,13.27,12ZM16.5,1.63a1.09,1.09,0,0,0-.28,0v0h0c.06.1.15.17.22.27l.15.31h0a.38.38,0,0,0,.14-.33s-.05-.1-.08-.14-.13-.1-.18-.15Z" />
            <path class="cls-1"
                d="M23.83,9.1a3.37,3.37,0,0,0-.7-.66c-.22-.15-.69-.35-.78-.59h0a3.43,3.43,0,0,0,.46-.11c.23-.06.44,0,.68-.1l.32-.1V7.47c-.12-.11-.21-.27-.34-.39a9,9,0,0,0-1.11-.81c-.21-.13-.48-.21-.7-.33s-.21-.06-.26-.12a3.15,3.15,0,0,1-.28-.51c-.19-.36-.38-.77-.55-1.15a5.7,5.7,0,0,0-.34-.75A6.65,6.65,0,0,0,17.62.94a3.1,3.1,0,0,0-.86-.27l-.5,0A1.78,1.78,0,0,1,16,.41c-.39-.24-1.38-.75-1.66-.07-.18.43.27.85.43,1.07a3.3,3.3,0,0,1,.34.49c0,.11.06.23.11.35a6.85,6.85,0,0,0,.35.89,3.38,3.38,0,0,0,.24.41c.06.07.15.1.17.22a1.87,1.87,0,0,0-.15.49A2.89,2.89,0,0,0,16,6.48c.11.17.37.53.71.39s.23-.49.32-.82c0-.08,0-.13.05-.19v0c.09.18.19.36.27.55a3.68,3.68,0,0,0,.88.88c.16.12.29.32.49.4v0h0a.61.61,0,0,0-.15-.13,4.48,4.48,0,0,1-.36-.4A8.64,8.64,0,0,1,17.41,6c-.11-.21-.2-.43-.29-.64s0-.19-.11-.23a2.92,2.92,0,0,0-.32.44,3.78,3.78,0,0,0-.19,1h0c-.22,0-.29-.27-.37-.45a2.78,2.78,0,0,1-.06-1.76c0-.14.25-.58.16-.71s-.17-.2-.24-.3a2.18,2.18,0,0,1-.24-.42c-.17-.37-.25-.78-.42-1.15a2.76,2.76,0,0,0-.34-.5A4,4,0,0,1,14.6.73c0-.07-.08-.19,0-.27s0-.07.09-.09.34,0,.42.06a4.18,4.18,0,0,1,.67.33,1.24,1.24,0,0,0,.32.23h.14c.21,0,.46,0,.66.07a4.47,4.47,0,0,1,1,.45,5.93,5.93,0,0,1,2.1,2.26c.08.15.12.29.19.45.14.33.31.66.46,1a4,4,0,0,0,.48.89c.1.13.5.21.68.28a4.9,4.9,0,0,1,.46.18c.24.14.46.3.68.45s.44.24.46.38a3.14,3.14,0,0,0-1.3.18c-.1,0-.26,0-.28.17s.07.13.11.21a1.48,1.48,0,0,0,.35.4l.43.31c.26.15.56.25.82.41l.44.31c.07,0,.12.13.21.17v0c0-.06-.06-.15-.1-.22A1.8,1.8,0,0,1,23.83,9.1Z" />
        </g>
    </g>
</svg>