<svg xmlns="http://www.w3.org/2000/svg" viewBox="0 0 17.01 19.84">
    <defs>
        <style>
            .cls-1 {
                fill: #c1c5cc;
            }
        </style>
    </defs>
    <g id="Capa_2" data-name="Capa 2">
        <g id="PRINT">
            <path class="cls-1"
                d="M8.5,19.84a1.49,1.49,0,0,1-.74-.2L5.42,18.2c-.35-.2-.18-.27-.07-.31a5,5,0,0,0,1.11-.55.15.15,0,0,1,.17,0l1.76,1a.28.28,0,0,0,.22,0l6.87-4.09a.23.23,0,0,0,.11-.2V5.84a.23.23,0,0,0-.11-.2L8.61,1.45a.22.22,0,0,0-.22,0L1.53,5.64a.23.23,0,0,0-.11.2v8.27a.23.23,0,0,0,.11.2L3.3,15.37c1,.54,1.66,0,1.66-.65V6.59a.2.2,0,0,1,.2-.21h1a.21.21,0,0,1,.21.21v8.13A2.05,2.05,0,0,1,4.2,17a2.94,2.94,0,0,1-1.62-.45L.74,15.44A1.54,1.54,0,0,1,0,14.11V5.72A1.53,1.53,0,0,1,.74,4.4l7-4.2A1.44,1.44,0,0,1,9.24.2l7,4.2A1.53,1.53,0,0,1,17,5.72v8.39a1.54,1.54,0,0,1-.74,1.33l-7,4.2a1.47,1.47,0,0,1-.74.2Z" />
            <path class="cls-1"
                d="M10.67,14.17C7.81,14.17,7,12.77,7,11.55a.2.2,0,0,1,.2-.21h.91a.2.2,0,0,1,.2.18c.14,1,.75,1.38,2.41,1.38,1.48,0,2.09-.46,2.09-1.27,0-.47-.16-.82-2.46-1.05-1.92-.2-3.11-.64-3.11-2.23S8.38,6,10.39,6s3.38.62,3.5,2.25a.22.22,0,0,1-.05.17.2.2,0,0,1-.15.06h-.91a.2.2,0,0,1-.2-.16c-.19-.75-.75-1-2.19-1-1.62,0-1.81.57-1.81,1S8.8,9,11,9.29s3.18.71,3.18,2.28-1.27,2.6-3.5,2.6Z" />
        </g>
    </g>
</svg>