<svg xmlns="http://www.w3.org/2000/svg" viewBox="0 0 14.17 14.57"><defs><style>.cls-1{fill:#2f3238;fill-rule:evenodd;}</style></defs><g id="Capa_2" data-name="Capa 2"><g id="PRINT"><path class="cls-1" d="M.11,11.34S2.19,14,2.32,14.15a1.52,1.52,0,0,0,1.13.42l9.25-.46a1.53,1.53,0,0,0,1.45-1.52l0-9.24a1.48,1.48,0,0,0-.7-1.26h0C12.69,1.61,11.15.66,10.68.35A2.17,2.17,0,0,0,9.39,0l-8,.52A1.45,1.45,0,0,0,0,2V11a.52.52,0,0,0,.11.32h0Zm13-7.53h0l0,8.77a.47.47,0,0,1-.45.47l-9.26.46A.45.45,0,0,1,3,13.39a.47.47,0,0,1-.15-.34V4.35a.47.47,0,0,1,.45-.47l9.28-.54a.48.48,0,0,1,.5.47ZM10,9.39V5.82c-.17-.19-.43-.18-.8-.29a.09.09,0,0,1-.06-.06.08.08,0,0,1,0-.08c.44-.66,1.72-.24,2.55-.51a.11.11,0,0,1,.08,0,.06.06,0,0,1,0,.07.84.84,0,0,1-.77.62v5.87a.47.47,0,0,1-.3.45l-.34.14a.86.86,0,0,1-1.13-.3l-3-4.65v4.23c.17.19.43.18.8.29a.1.1,0,0,1,.06.05.08.08,0,0,1,0,.08c-.45.66-1.72.25-2.55.51a.06.06,0,0,1-.08,0s0,0,0-.07a.84.84,0,0,1,.77-.62V6l-.79-.07a.83.83,0,0,1,.81-.71c.37,0,1.33-.08,1.68-.1a.26.26,0,0,1,.2.1L10,9.38h0ZM2.67,2.68a.74.74,0,0,0,.5.15l8.38-.48a.09.09,0,0,0,.09-.07.09.09,0,0,0,0-.11l-1.5-.95a1.12,1.12,0,0,0-.64-.17S3,1.4,1.71,1.55c-.17,0-.21.08-.21.1a.16.16,0,0,0,.07.19l1.1.84Z"/></g></g></svg>