<svg xmlns="http://www.w3.org/2000/svg" viewBox="0 0 14.17 14.17"><defs><style>.cls-1{fill:#2f3238;}</style></defs><g id="Capa_2" data-name="Capa 2"><g id="PRINT"><path class="cls-1" d="M8,.06A7.08,7.08,0,1,0,14.11,8,7.08,7.08,0,0,0,8,.06ZM9.45,4.48a.49.49,0,0,0-.35.15L6.47,7.26,5.91,6.7C8.5,4.11,9,4.09,9.45,4.48ZM6.58,7.35,9.2,4.73a.36.36,0,0,1,.26-.12.37.37,0,0,1,.24.65h0L6.92,7.7Zm.19.41-.65.14h0l0,0v0s0,0,0,0l.38-.38ZM5.12,7.49l.69-.69.52.51-1.17.26h0s0,0,0,0,0,0,0,0ZM3,11.07H3a.07.07,0,0,1,0-.05h0v0h0l.55-.56.73.72Zm1.43-.75h0a.15.15,0,0,0-.07.12s0,0,0,0h0l.12.51h0a.09.09,0,0,1-.08.08l0,0h0l-.73-.73L5.82,8.11l1.07-.23.52.51A14.36,14.36,0,0,1,4.39,10.32Zm3.12-2h0L7,7.8,9.79,5.37l.07-.08h0C9.77,6.09,8.66,7.21,7.51,8.3Zm2.92-3.5a1.06,1.06,0,0,1-.76-.32h0a1.07,1.07,0,0,1,.76-1.83,1,1,0,0,1,.69.25h0l-.95,1a.07.07,0,0,0,0,.1l.74.74A1.09,1.09,0,0,1,10.43,4.8Zm.76-.32a.93.93,0,0,1-.15.13h0l-.71-.71.91-.9A1.06,1.06,0,0,1,11.19,4.48Z"/></g></g></svg>