<svg xmlns="http://www.w3.org/2000/svg" viewBox="0 0 22.22 19.84">
    <defs>
        <style>
            .cls-1 {
                fill: #c1c5cc;
            }
        </style>
    </defs>
    <g id="Capa_2" data-name="Capa 2">
        <g id="PRINT">
            <circle class="cls-1" cx="11.11" cy="9.91" r="2.03" />
            <path class="cls-1"
                d="M11.11,17.38c1.59,1.55,3.17,2.46,4.43,2.46a2.17,2.17,0,0,0,1.14-.28c1.13-.66,1.55-2.29,1.15-4.63-.06-.41-.15-.83-.26-1.27.44-.13.83-.26,1.22-.39,2.21-.85,3.43-2,3.43-3.32S21,7.47,18.79,6.64a8.72,8.72,0,0,0-1.22-.4A12.29,12.29,0,0,0,17.83,5c.38-2.38,0-4-1.17-4.7A2.27,2.27,0,0,0,15.52,0c-1.24,0-2.84.92-4.43,2.47C9.52.92,8,0,6.68,0A2.27,2.27,0,0,0,5.54.28C4.41.94,4,2.58,4.39,4.91a12.46,12.46,0,0,0,.26,1.27c-.44.13-.83.26-1.22.39C1.22,7.42,0,8.6,0,9.89s1.22,2.49,3.43,3.32a10.26,10.26,0,0,0,1.22.39,12.46,12.46,0,0,0-.26,1.27c-.37,2.33,0,4,1.15,4.62a2.17,2.17,0,0,0,1.14.29c1.27,0,2.84-.88,4.43-2.4ZM9.89,14.43c.39,0,.81,0,1.22,0s.83,0,1.22,0c-.39.52-.8,1-1.22,1.46C10.7,15.43,10.28,15,9.89,14.43ZM7.18,12.18c.22.37.42.72.66,1.07-.68-.09-1.31-.2-1.92-.33.19-.59.41-1.2.67-1.81C6.77,11.46,7,11.83,7.18,12.18ZM5.92,6.92c.61-.13,1.24-.24,1.92-.33-.22.35-.44.7-.66,1.07s-.41.72-.59,1.09A14.14,14.14,0,0,1,5.92,6.92Zm1.2,3q.42-.88.93-1.77c.33-.57.7-1.13,1.07-1.7.66,0,1.31-.07,2-.07s1.35,0,2,.07c.39.57.74,1.13,1.07,1.7s.65,1.18.94,1.77c-.29.59-.59,1.18-.94,1.77s-.7,1.13-1.07,1.7c-.66,0-1.31.07-2,.07s-1.35,0-2-.07c-.39-.57-.74-1.13-1.07-1.7S7.4,10.5,7.12,9.91Zm8.53-1.18-.59-1.09c-.22-.37-.41-.72-.65-1.07q1,.13,1.92.33C16.13,7.51,15.91,8.12,15.65,8.73Zm0,2.36c.26.61.48,1.22.68,1.81q-.91.19-1.92.33c.22-.35.43-.7.65-1.07S15.45,11.46,15.65,11.09Zm.5,7.57a1.16,1.16,0,0,1-.63.16c-1.07,0-2.4-.88-3.71-2.19a22.45,22.45,0,0,0,1.85-2.29,20.17,20.17,0,0,0,2.93-.46c.11.4.17.79.24,1.18C17.14,16.92,16.9,18.25,16.15,18.66Zm1.14-11.5c2.44.7,3.91,1.77,3.91,2.75s-1,1.7-2.78,2.38c-.35.13-.74.26-1.13.37a23.86,23.86,0,0,0-1.07-2.75A19.41,19.41,0,0,0,17.29,7.16ZM15.54,1a1.27,1.27,0,0,1,.64.16c.72.41,1,1.72.67,3.6-.06.37-.15.76-.24,1.18a27.48,27.48,0,0,0-2.92-.46,20.08,20.08,0,0,0-1.86-2.29C13.14,1.9,14.47,1,15.54,1ZM12.33,5.39c-.39,0-.8,0-1.22,0s-.83,0-1.22,0c.39-.52.81-1,1.22-1.46C11.53,4.39,11.94,4.89,12.33,5.39ZM6.07,1.16A1.16,1.16,0,0,1,6.7,1c1.07,0,2.4.88,3.71,2.19A22.45,22.45,0,0,0,8.56,5.48a20.17,20.17,0,0,0-2.93.46c-.11-.4-.17-.79-.24-1.18C5.09,2.9,5.33,1.59,6.07,1.16ZM4.93,12.66C2.49,12,1,10.89,1,9.91S2,8.21,3.8,7.53c.35-.13.74-.26,1.13-.37A25.84,25.84,0,0,0,6,9.91,23.46,23.46,0,0,0,4.93,12.66Zm.46,2.4c.07-.37.15-.76.24-1.18a27.67,27.67,0,0,0,2.93.46,20,20,0,0,0,1.85,2.29C9.1,17.92,7.77,18.82,6.7,18.82a1.21,1.21,0,0,1-.63-.16C5.33,18.25,5.09,16.92,5.39,15.06Z" />
        </g>
    </g>
</svg>