<svg xmlns="http://www.w3.org/2000/svg" viewBox="0 0 27.39 19.84">
    <defs>
        <style>
            .cls-1 {
                fill: #c1c5cc;
            }
        </style>
    </defs>
    <g id="Capa_2" data-name="Capa 2">
        <g id="PRINT">
            <path class="cls-1"
                d="M12.93,10.58c-1.41.37-2.08,2.75-1.59,3.91.06.13.17.14.28,0a7.85,7.85,0,0,0,1.56-3.77C13.2,10.61,13.1,10.54,12.93,10.58Z" />
            <path class="cls-1"
                d="M18.85,13a1.52,1.52,0,0,1-.68,1.71,3,3,0,0,1-2.19.53.31.31,0,0,1-.27-.35c.11-.69,1.22-1.55,1.68-2.06a.25.25,0,0,0,0-.35,8,8,0,0,1-.67-1.74c-.63,1.41-1.44,3.83-2.71,4.7a.6.6,0,0,1-1-.25A3.36,3.36,0,0,1,13,13.82a8.57,8.57,0,0,1-1,1.78,1,1,0,0,1-1.43,0,3.8,3.8,0,0,1-.24-3.5l-1.65.8-.41-.59C9,12,10.51,11.49,11,10.91a3.18,3.18,0,0,1,2.15-1.26.67.67,0,0,1,.72.5,1.85,1.85,0,0,1,0,.91.53.53,0,0,1,.75,0c.55.69-1.12,2.41-.53,3.17a10.19,10.19,0,0,0,1.47-2.81c.2-.4.81-2.43,1.22-2.55a1.88,1.88,0,0,1,1.24,0,.17.17,0,0,1,.09.24,2.86,2.86,0,0,0,.12,2.52A11.61,11.61,0,0,0,19.79,8.9a10,10,0,1,0,0,1.48A3.37,3.37,0,0,0,18.85,13Zm-10.5,3A3.15,3.15,0,0,1,5,17.3c-.42-.11-1.06-1-.5-2.2s2.74-2.27,3-2.41h0c-1-.89-3.53-2.08-3.89-3.91C3.53,8.25,3.78,7,5.3,5.59A13.74,13.74,0,0,1,10,2.89c2.76-1,5.68-.41,6.13,1.36l-.06-.06C16.52,5.93,15,8,13.1,8.74a6.19,6.19,0,0,1-3.73.38,1.92,1.92,0,0,1-1.15-.91c0-.1-.1-.26,0-.31s.09,0,.26.16a2.38,2.38,0,0,0,2,.51c3.19-.36,5.1-2.83,4.49-4.16-.42-.92-2.87-1.35-5.93.18-3.73,1.86-3.94,3.4-4,4-.09,1.6,2,2.44,3.1,3.65a.24.24,0,0,1,.09.08l.41.6A3.44,3.44,0,0,1,8.35,15.94Z" />
            <path class="cls-1"
                d="M7.86,13.28h0a6.77,6.77,0,0,0-1.75,1.25c-.67.7-.86,1.59-.49,1.81s1.16,0,1.73-.67a2.91,2.91,0,0,0,.53-.81l0-.15a2.56,2.56,0,0,0,0-1.48Z" />
            <path class="cls-1" d="M17.77,13.4l-1.22,1.29C16.92,14.84,17.82,13.88,17.77,13.4Z" />
            <path class="cls-1"
                d="M27.38,13h0a2.22,2.22,0,0,0-1-1.56h0a5.05,5.05,0,0,0-4.65-.22,2.93,2.93,0,0,1-.28-2.78.19.19,0,0,0-.13-.27,2,2,0,0,0-1.17,0,.31.31,0,0,0-.23.21,3.62,3.62,0,0,1-.13.47c0,.34.05.68.05,1,0,.16,0,.31,0,.46l.27-.33a5.11,5.11,0,0,0,.68,1.76c-.63.55-1.57,1.33-1.43,2.26a.55.55,0,0,0,.7.46,3.23,3.23,0,0,0,1.89-1.06A1.6,1.6,0,0,0,22,11.81a5.65,5.65,0,0,1,3.45,0,2.18,2.18,0,0,1,1.26,1,1.11,1.11,0,0,1-.49,1.57c-.15.1-.26.18-.21.23s.24.1.64-.15a1.45,1.45,0,0,0,.71-1A2.29,2.29,0,0,0,27.38,13Zm-6.95.81c-.11.06-.37.12-.38,0-.07-.58.57-1.19,1-1.48A1.16,1.16,0,0,1,20.43,13.84Z" />
        </g>
    </g>
</svg>