<svg xmlns="http://www.w3.org/2000/svg" viewBox="0 0 19.78 19.84"><defs><style>.cls-1{fill:#2f3238;fill-rule:evenodd;}</style></defs><g id="Capa_2" data-name="Capa 2"><g id="PRINT"><path class="cls-1" d="M10.13,0a9.92,9.92,0,1,0,9.65,9.92A10,10,0,0,0,10.13,0ZM9.89,19.34a9.43,9.43,0,1,1,9.41-9.26A9.41,9.41,0,0,1,9.89,19.34Zm5-12.22a4.61,4.61,0,0,1-.57-1,3,3,0,0,1-.18-1.31,1.39,1.39,0,0,1,1.41-1.13A8.38,8.38,0,0,0,2.84,5.31c.9,0,1.76-.1,2.62-.11.17,0,.44.13.47.26.09.29-.15.39-.4.4l-.85.07c1,3.06,2,6.08,3.07,9.17a.86.86,0,0,0,.12-.2q.85-2.55,1.7-5.1a1,1,0,0,0,0-.53c-.3-.84-.65-1.67-.9-2.53-.18-.59-.41-1-1.11-.9-.12,0-.26-.24-.39-.37.16-.1.32-.27.48-.28,1.41,0,2.82,0,4.24,0,.16,0,.32.18.48.28-.14.13-.26.32-.43.37a4.56,4.56,0,0,1-.87.09l3.08,9.16c.47-1.55.91-3,1.33-4.4a4.32,4.32,0,0,0-.53-3.58ZM7.55,17.87c0,.06,0,.12,0,.21a8.56,8.56,0,0,0,5.2-.14L10,10.62C9.18,13.11,8.36,15.49,7.55,17.87ZM6.2,17.54c-1.35-3.7-2.68-7.36-4-11A8.39,8.39,0,0,0,6.2,17.54ZM17.42,6.13a10.63,10.63,0,0,1-.2,1.93c-.41,1.47-.92,2.92-1.41,4.37s-1.09,3.15-1.64,4.73a8.13,8.13,0,0,0,4.2-6.71C18.5,8.77,17.92,6.45,17.42,6.13Z"/></g></g></svg>