<svg xmlns="http://www.w3.org/2000/svg" xmlns:xlink="http://www.w3.org/1999/xlink" viewBox="0 0 269.02 326.38"><defs><style>.cls-1{isolation:isolate;}.cls-2,.cls-66,.cls-67,.cls-68{opacity:0.9;}.cls-2{fill:url(#linear-gradient);}.cls-112,.cls-3,.cls-72,.cls-92,.cls-95,.cls-96{opacity:0.95;}.cls-3{fill:url(#linear-gradient-2);}.cls-4{opacity:0.2;}.cls-27,.cls-5{fill:#afb6e5;}.cls-5{opacity:0;}.cls-6{fill:#abb2e2;opacity:0.05;}.cls-7,.cls-82{fill:#a7addf;}.cls-7{opacity:0.1;}.cls-8{fill:#a3a9dc;opacity:0.14;}.cls-9{fill:#9fa4d8;opacity:0.19;}.cls-10,.cls-55{fill:#9ba0d5;}.cls-10{opacity:0.24;}.cls-11{fill:#979bd2;opacity:0.29;}.cls-12{fill:#9397cf;opacity:0.33;}.cls-13,.cls-98{fill:#8f92cc;}.cls-13{opacity:0.38;}.cls-14{fill:#8b8ec9;opacity:0.43;}.cls-15{fill:#8789c6;opacity:0.48;}.cls-16{fill:#8385c2;opacity:0.52;}.cls-17{fill:#7f80bf;opacity:0.57;}.cls-18{fill:#7b7cbc;opacity:0.62;}.cls-19{fill:#7777b9;opacity:0.67;}.cls-20{fill:#7373b6;opacity:0.71;}.cls-21{fill:#6f6eb3;opacity:0.76;}.cls-22{fill:#6b6ab0;opacity:0.81;}.cls-23,.cls-64{fill:#6765ac;}.cls-23{opacity:0.86;}.cls-24,.cls-91{fill:#6361a9;}.cls-24{opacity:0.9;}.cls-25{fill:#5f5ca6;opacity:0.95;}.cls-26{fill:#5b58a3;}.cls-28{fill:url(#Degradado_sin_nombre_161);}.cls-29{fill:url(#Degradado_sin_nombre_160);}.cls-30{fill:url(#Degradado_sin_nombre_159);}.cls-31{fill:url(#Degradado_sin_nombre_158);}.cls-32{fill:url(#Degradado_sin_nombre_157);}.cls-33{fill:url(#Degradado_sin_nombre_156);}.cls-34{fill:url(#Degradado_sin_nombre_155);}.cls-35{fill:url(#Degradado_sin_nombre_154);}.cls-36{fill:url(#Degradado_sin_nombre_153);}.cls-37{fill:url(#Degradado_sin_nombre_152);}.cls-38{fill:url(#Degradado_sin_nombre_151);}.cls-39{fill:url(#Degradado_sin_nombre_150);}.cls-40{fill:url(#Degradado_sin_nombre_149);}.cls-41{fill:url(#Degradado_sin_nombre_148);}.cls-42{fill:url(#Degradado_sin_nombre_147);}.cls-43{fill:url(#Degradado_sin_nombre_146);}.cls-44{fill:url(#Degradado_sin_nombre_145);}.cls-45{fill:url(#Degradado_sin_nombre_144);}.cls-46{fill:url(#Degradado_sin_nombre_143);}.cls-47{fill:url(#Degradado_sin_nombre_142);}.cls-48{fill:url(#linear-gradient-3);}.cls-112,.cls-49,.cls-66{fill:#fff;}.cls-50{fill:url(#linear-gradient-4);}.cls-51{fill:url(#linear-gradient-5);}.cls-52{fill:url(#linear-gradient-6);}.cls-53{fill:url(#linear-gradient-7);}.cls-54{opacity:0.3;mix-blend-mode:multiply;}.cls-55{opacity:0.24;}.cls-56{fill:#9599d0;opacity:0.31;}.cls-57{fill:#8f93cc;opacity:0.38;}.cls-58{fill:#8a8cc7;opacity:0.45;}.cls-59{fill:#8486c3;opacity:0.52;}.cls-60{fill:#7e7fbe;opacity:0.58;}.cls-61{fill:#7879ba;opacity:0.65;}.cls-62,.cls-89{fill:#7272b5;}.cls-62{opacity:0.72;}.cls-63{fill:#6c6cb1;opacity:0.79;}.cls-64{opacity:0.86;}.cls-65{fill:#615fa8;opacity:0.93;}.cls-67{fill:url(#linear-gradient-8);}.cls-68{fill:url(#linear-gradient-9);}.cls-110,.cls-69,.cls-93{mix-blend-mode:color-dodge;}.cls-69{fill:url(#radial-gradient);}.cls-70,.cls-94{mix-blend-mode:screen;}.cls-70{fill:url(#radial-gradient-2);}.cls-71{fill:url(#linear-gradient-10);}.cls-72{fill:url(#linear-gradient-11);}.cls-73{fill:url(#linear-gradient-12);}.cls-74{fill:url(#linear-gradient-13);}.cls-75{fill:#ced3f4;}.cls-76{fill:url(#linear-gradient-14);}.cls-77{fill:url(#linear-gradient-15);}.cls-78{fill:url(#linear-gradient-16);}.cls-79{fill:url(#linear-gradient-17);}.cls-80{fill:url(#linear-gradient-18);}.cls-81{fill:url(#linear-gradient-19);}.cls-82{opacity:0.09;}.cls-83{fill:#a0a5d9;opacity:0.18;}.cls-84{fill:#989cd3;opacity:0.27;}.cls-85{fill:#9094cd;opacity:0.36;}.cls-86{fill:#898bc7;opacity:0.45;}.cls-87{fill:#8183c1;opacity:0.55;}.cls-88{fill:#7a7abb;opacity:0.64;}.cls-89{opacity:0.73;}.cls-90{fill:#6a69af;opacity:0.82;}.cls-91{opacity:0.91;}.cls-92{fill:url(#linear-gradient-20);}.cls-93{fill:url(#radial-gradient-3);}.cls-94{fill:url(#radial-gradient-4);}.cls-95{fill:url(#linear-gradient-21);}.cls-96{fill:url(#linear-gradient-22);}.cls-97{fill:#dcdff4;}.cls-98{opacity:0.38;}.cls-99{fill:#8a8dc8;opacity:0.44;}.cls-100{fill:#8687c5;opacity:0.49;}.cls-101{fill:#8182c1;opacity:0.55;}.cls-102{fill:#7c7dbd;opacity:0.61;}.cls-103{fill:#7778b9;opacity:0.66;}.cls-104{fill:#7372b6;opacity:0.72;}.cls-105{fill:#6e6db2;opacity:0.77;}.cls-106{fill:#6968ae;opacity:0.83;}.cls-107{fill:#6463aa;opacity:0.89;}.cls-108{fill:#605da7;opacity:0.94;}.cls-109{fill:url(#linear-gradient-23);}.cls-110{fill:url(#radial-gradient-5);}.cls-111{fill:url(#linear-gradient-24);}.cls-113{fill:url(#linear-gradient-25);}.cls-114{fill:url(#linear-gradient-26);}</style><linearGradient id="linear-gradient" x1="183.83" y1="7.69" x2="193.5" y2="176.03" gradientTransform="matrix(-1, 0, 0, 1, 400.83, 0)" gradientUnits="userSpaceOnUse"><stop offset="0.03" stop-color="#bb6df3"/><stop offset="0.38" stop-color="#976df3"/><stop offset="0.56" stop-color="#836df3"/><stop offset="0.69" stop-color="#796ff4"/><stop offset="0.92" stop-color="#5d75f6"/><stop offset="1" stop-color="#5277f7"/></linearGradient><linearGradient id="linear-gradient-2" x1="307.72" y1="113.71" x2="352.72" y2="242.71" gradientTransform="matrix(-1, 0, 0, 1, 400.83, 0)" gradientUnits="userSpaceOnUse"><stop offset="0.01" stop-color="#2be9a3"/><stop offset="0.29" stop-color="#07cdbf"/><stop offset="0.34" stop-color="#00c7c5"/><stop offset="0.44" stop-color="#09beca"/><stop offset="0.59" stop-color="#21a7d9"/><stop offset="0.77" stop-color="#4881f1"/><stop offset="0.82" stop-color="#5277f7"/></linearGradient><linearGradient id="Degradado_sin_nombre_161" x1="90.58" y1="31.69" x2="173.03" y2="286.21" gradientTransform="translate(19.09) scale(0.9 1)" gradientUnits="userSpaceOnUse"><stop offset="0" stop-color="#b0b7e6"/><stop offset="0.19" stop-color="#b2b8e6"/><stop offset="0.28" stop-color="#b3b9e6"/><stop offset="0.41" stop-color="#afb6e5"/><stop offset="0.91" stop-color="#afb6e5"/><stop offset="1" stop-color="#b0b7e6"/></linearGradient><linearGradient id="Degradado_sin_nombre_160" x1="83.01" y1="33.22" x2="164.45" y2="284.63" gradientTransform="translate(38.17) scale(0.81 1)" gradientUnits="userSpaceOnUse"><stop offset="0" stop-color="#b2b9e6"/><stop offset="0.19" stop-color="#b4bbe7"/><stop offset="0.28" stop-color="#b7bde7"/><stop offset="0.41" stop-color="#afb6e5"/><stop offset="0.91" stop-color="#afb6e5"/><stop offset="1" stop-color="#b2b9e6"/></linearGradient><linearGradient id="Degradado_sin_nombre_159" x1="73.39" y1="35.12" x2="153.57" y2="282.64" gradientTransform="translate(57.26) scale(0.71 1)" gradientUnits="userSpaceOnUse"><stop offset="0" stop-color="#b3bae7"/><stop offset="0.19" stop-color="#b7bde9"/><stop offset="0.28" stop-color="#bac0e9"/><stop offset="0.41" stop-color="#afb6e5"/><stop offset="0.91" stop-color="#afb6e5"/><stop offset="1" stop-color="#b3bae7"/></linearGradient><linearGradient id="Degradado_sin_nombre_158" x1="60.79" y1="37.55" x2="139.34" y2="280.03" gradientTransform="translate(76.35) scale(0.62 1)" gradientUnits="userSpaceOnUse"><stop offset="0" stop-color="#b5bbe8"/><stop offset="0.19" stop-color="#b9c0ea"/><stop offset="0.28" stop-color="#bec4ea"/><stop offset="0.41" stop-color="#afb6e5"/><stop offset="0.91" stop-color="#afb6e5"/><stop offset="1" stop-color="#b5bbe8"/></linearGradient><linearGradient id="Degradado_sin_nombre_157" x1="42.6" y1="37.81" x2="119.92" y2="276.48" gradientTransform="translate(95.44) scale(0.52 1)" gradientUnits="userSpaceOnUse"><stop offset="0" stop-color="#b6bde8"/><stop offset="0.19" stop-color="#bcc2eb"/><stop offset="0.28" stop-color="#c2c7eb"/><stop offset="0.41" stop-color="#afb6e5"/><stop offset="0.91" stop-color="#afb6e5"/><stop offset="1" stop-color="#b6bde8"/></linearGradient><linearGradient id="Degradado_sin_nombre_156" x1="14.44" y1="32.4" x2="94.88" y2="280.71" gradientTransform="translate(114.52) scale(0.43 1)" gradientUnits="userSpaceOnUse"><stop offset="0" stop-color="#b8bee9"/><stop offset="0.19" stop-color="#bec5ec"/><stop offset="0.28" stop-color="#c6cbec"/><stop offset="0.39" stop-color="#b2b9e6"/><stop offset="0.41" stop-color="#afb6e5"/><stop offset="0.91" stop-color="#afb6e5"/><stop offset="1" stop-color="#b8bee9"/></linearGradient><linearGradient id="Degradado_sin_nombre_155" x1="-29.97" y1="23.46" x2="56.1" y2="289.17" gradientTransform="translate(133.61) scale(0.33 1)" gradientUnits="userSpaceOnUse"><stop offset="0" stop-color="#b9bfea"/><stop offset="0.19" stop-color="#c1c7ee"/><stop offset="0.28" stop-color="#caceee"/><stop offset="0.38" stop-color="#b6bde7"/><stop offset="0.41" stop-color="#afb6e5"/><stop offset="0.91" stop-color="#afb6e5"/><stop offset="1" stop-color="#b9bfea"/></linearGradient><linearGradient id="Degradado_sin_nombre_154" x1="-110.32" y1="6.26" x2="-13.38" y2="305.5" gradientTransform="translate(152.7) scale(0.24 1)" gradientUnits="userSpaceOnUse"><stop offset="0" stop-color="#bac1ea"/><stop offset="0.19" stop-color="#c4c9ef"/><stop offset="0.28" stop-color="#cdd2ef"/><stop offset="0.37" stop-color="#b9c0e8"/><stop offset="0.41" stop-color="#afb6e5"/><stop offset="0.91" stop-color="#afb6e5"/><stop offset="1" stop-color="#bac1ea"/><stop offset="1" stop-color="#bac1ea"/></linearGradient><linearGradient id="Degradado_sin_nombre_153" x1="-299.03" y1="-37.52" x2="-174.4" y2="347.21" gradientTransform="translate(171.78) scale(0.14 1)" gradientUnits="userSpaceOnUse"><stop offset="0" stop-color="#bcc2eb"/><stop offset="0.19" stop-color="#c6ccf0"/><stop offset="0.28" stop-color="#d0d4f0"/><stop offset="0.28" stop-color="#d1d5f0"/><stop offset="0.36" stop-color="#bdc3ea"/><stop offset="0.41" stop-color="#afb6e5"/><stop offset="0.91" stop-color="#afb6e5"/><stop offset="0.99" stop-color="#bac0ea"/><stop offset="1" stop-color="#bcc2eb"/></linearGradient><linearGradient id="Degradado_sin_nombre_152" x1="-1248.46" y1="-273.92" x2="-974.01" y2="573.28" gradientTransform="translate(190.87) scale(0.05 1)" gradientUnits="userSpaceOnUse"><stop offset="0" stop-color="#bdc3ec"/><stop offset="0.19" stop-color="#c9cef1"/><stop offset="0.27" stop-color="#d3d7f1"/><stop offset="0.28" stop-color="#d5d9f1"/><stop offset="0.35" stop-color="#c1c7eb"/><stop offset="0.41" stop-color="#afb6e5"/><stop offset="0.91" stop-color="#afb6e5"/><stop offset="0.98" stop-color="#bac0ea"/><stop offset="1" stop-color="#bdc3ec"/></linearGradient><linearGradient id="Degradado_sin_nombre_151" x1="1377.09" y1="-344.3" x2="1695.72" y2="639.3" gradientTransform="matrix(-0.05, 0, 0, 1, 209.96, 0)" gradientUnits="userSpaceOnUse"><stop offset="0" stop-color="#bfc5ec"/><stop offset="0.19" stop-color="#cbd1f3"/><stop offset="0.26" stop-color="#d5d9f3"/><stop offset="0.28" stop-color="#d9dcf3"/><stop offset="0.35" stop-color="#c5caec"/><stop offset="0.41" stop-color="#afb6e5"/><stop offset="0.91" stop-color="#afb6e5"/><stop offset="0.98" stop-color="#bac0ea"/><stop offset="1" stop-color="#bfc5ec"/></linearGradient><linearGradient id="Degradado_sin_nombre_150" x1="563.57" y1="-97.28" x2="726.32" y2="405.1" gradientTransform="matrix(-0.14, 0, 0, 1, 229.05, 0)" gradientUnits="userSpaceOnUse"><stop offset="0" stop-color="#c0c6ed"/><stop offset="0.19" stop-color="#ced3f4"/><stop offset="0.26" stop-color="#d8dcf4"/><stop offset="0.28" stop-color="#dde0f4"/><stop offset="0.34" stop-color="#c9ceee"/><stop offset="0.41" stop-color="#afb6e5"/><stop offset="0.91" stop-color="#afb6e5"/><stop offset="0.97" stop-color="#bac0ea"/><stop offset="1" stop-color="#c0c6ed"/></linearGradient><linearGradient id="Degradado_sin_nombre_149" x1="400.83" y1="-47.98" x2="532.83" y2="359.52" gradientTransform="matrix(-0.24, 0, 0, 1, 248.13, 0)" gradientUnits="userSpaceOnUse"><stop offset="0" stop-color="#c2c7ee"/><stop offset="0.19" stop-color="#d0d6f5"/><stop offset="0.25" stop-color="#dadef5"/><stop offset="0.28" stop-color="#e1e3f5"/><stop offset="0.34" stop-color="#cdd1ef"/><stop offset="0.41" stop-color="#afb6e5"/><stop offset="0.91" stop-color="#afb6e5"/><stop offset="0.97" stop-color="#bac0ea"/><stop offset="1" stop-color="#c2c7ee"/></linearGradient><linearGradient id="Degradado_sin_nombre_148" x1="331.05" y1="-26.93" x2="450.06" y2="340.47" gradientTransform="matrix(-0.33, 0, 0, 1, 267.22, 0)" gradientUnits="userSpaceOnUse"><stop offset="0" stop-color="#c3c9ee"/><stop offset="0.19" stop-color="#d3d8f6"/><stop offset="0.25" stop-color="#dde1f6"/><stop offset="0.28" stop-color="#e4e7f6"/><stop offset="0.34" stop-color="#d0d5f0"/><stop offset="0.41" stop-color="#afb6e5"/><stop offset="0.91" stop-color="#afb6e5"/><stop offset="0.97" stop-color="#bac0ea"/><stop offset="1" stop-color="#c3c9ee"/></linearGradient><linearGradient id="Degradado_sin_nombre_147" x1="292.26" y1="-15.29" x2="404.15" y2="330.1" gradientTransform="matrix(-0.43, 0, 0, 1, 286.31, 0)" gradientUnits="userSpaceOnUse"><stop offset="0" stop-color="#c4caef"/><stop offset="0.19" stop-color="#d6daf8"/><stop offset="0.25" stop-color="#e0e3f8"/><stop offset="0.28" stop-color="#e8eaf8"/><stop offset="0.33" stop-color="#d4d8f1"/><stop offset="0.41" stop-color="#afb6e5"/><stop offset="0.91" stop-color="#afb6e5"/><stop offset="0.96" stop-color="#bac0ea"/><stop offset="1" stop-color="#c4caef"/></linearGradient><linearGradient id="Degradado_sin_nombre_146" x1="267.56" y1="-7.91" x2="374.96" y2="323.63" gradientTransform="matrix(-0.52, 0, 0, 1, 305.39, 0)" gradientUnits="userSpaceOnUse"><stop offset="0" stop-color="#c6cbf0"/><stop offset="0.19" stop-color="#d8ddf9"/><stop offset="0.25" stop-color="#e2e6f9"/><stop offset="0.28" stop-color="#eceef9"/><stop offset="0.33" stop-color="#d8dcf3"/><stop offset="0.41" stop-color="#afb6e5"/><stop offset="0.91" stop-color="#afb6e5"/><stop offset="0.96" stop-color="#bac0ea"/><stop offset="1" stop-color="#c6cbf0"/></linearGradient><linearGradient id="Degradado_sin_nombre_145" x1="250.46" y1="-2.81" x2="354.76" y2="319.19" gradientTransform="matrix(-0.62, 0, 0, 1, 324.48, 0)" gradientUnits="userSpaceOnUse"><stop offset="0" stop-color="#c7cdf0"/><stop offset="0.19" stop-color="#dbdffa"/><stop offset="0.24" stop-color="#e5e8fa"/><stop offset="0.28" stop-color="#f0f1fa"/><stop offset="0.33" stop-color="#dcdff4"/><stop offset="0.41" stop-color="#afb6e5"/><stop offset="0.91" stop-color="#afb6e5"/><stop offset="0.96" stop-color="#bac0ea"/><stop offset="1" stop-color="#c7cdf0"/></linearGradient><linearGradient id="Degradado_sin_nombre_144" x1="237.84" y1="0.71" x2="340.08" y2="316.33" gradientTransform="matrix(-0.71, 0, 0, 1, 343.57, 0)" gradientUnits="userSpaceOnUse"><stop offset="0" stop-color="#c9cef1"/><stop offset="0.19" stop-color="#dde2fb"/><stop offset="0.24" stop-color="#e7eafb"/><stop offset="0.28" stop-color="#f4f5fb"/><stop offset="0.33" stop-color="#e0e3f5"/><stop offset="0.41" stop-color="#afb6e5"/><stop offset="0.91" stop-color="#afb6e5"/><stop offset="0.96" stop-color="#bac0ea"/><stop offset="1" stop-color="#c9cef1"/></linearGradient><linearGradient id="Degradado_sin_nombre_143" x1="228.1" y1="3.15" x2="328.92" y2="314.37" gradientTransform="matrix(-0.81, 0, 0, 1, 362.66, 0)" gradientUnits="userSpaceOnUse"><stop offset="0" stop-color="#cacff2"/><stop offset="0.19" stop-color="#e0e4fd"/><stop offset="0.24" stop-color="#eaedfd"/><stop offset="0.28" stop-color="#f7f8fd"/><stop offset="0.32" stop-color="#e3e6f6"/><stop offset="0.41" stop-color="#b1b8e6"/><stop offset="0.41" stop-color="#afb6e5"/><stop offset="0.91" stop-color="#afb6e5"/><stop offset="0.95" stop-color="#bac0ea"/><stop offset="1" stop-color="#cacff2"/></linearGradient><linearGradient id="Degradado_sin_nombre_142" x1="220.42" y1="5.09" x2="320.11" y2="312.83" gradientTransform="matrix(-0.9, 0, 0, 1, 381.74, 0)" gradientUnits="userSpaceOnUse"><stop offset="0" stop-color="#ccd1f2"/><stop offset="0.19" stop-color="#e2e7fe"/><stop offset="0.24" stop-color="#eceffe"/><stop offset="0.28" stop-color="#fbfcfe"/><stop offset="0.32" stop-color="#e7eaf8"/><stop offset="0.4" stop-color="#b5bbe7"/><stop offset="0.41" stop-color="#afb6e5"/><stop offset="0.91" stop-color="#afb6e5"/><stop offset="0.95" stop-color="#bac0ea"/><stop offset="1" stop-color="#ccd1f2"/></linearGradient><linearGradient id="linear-gradient-3" x1="214.2" y1="6.65" x2="312.98" y2="311.58" gradientTransform="matrix(-1, 0, 0, 1, 400.83, 0)" gradientUnits="userSpaceOnUse"><stop offset="0" stop-color="#cdd2f3"/><stop offset="0.19" stop-color="#e5e9ff"/><stop offset="0.24" stop-color="#eff2ff"/><stop offset="0.28" stop-color="#fff"/><stop offset="0.32" stop-color="#ebedf9"/><stop offset="0.4" stop-color="#b9bfe8"/><stop offset="0.41" stop-color="#afb6e5"/><stop offset="0.91" stop-color="#afb6e5"/><stop offset="0.95" stop-color="#bac0ea"/><stop offset="1" stop-color="#cdd2f3"/></linearGradient><linearGradient id="linear-gradient-4" x1="57.41" y1="242.81" x2="405.97" y2="100.17" gradientTransform="matrix(-1, 0, 0, 1, 400.83, 0)" gradientUnits="userSpaceOnUse"><stop offset="0" stop-color="#afb6e5"/><stop offset="0.14" stop-color="#b6bce8"/><stop offset="0.35" stop-color="#c8cdf1"/><stop offset="0.58" stop-color="#e5e9ff"/><stop offset="0.86" stop-color="#f5f6ff"/><stop offset="1" stop-color="#fff"/></linearGradient><linearGradient id="linear-gradient-5" x1="193.09" y1="43.53" x2="347.14" y2="337.27" gradientTransform="matrix(-1, 0, 0, 1, 400.83, 0)" gradientUnits="userSpaceOnUse"><stop offset="0.01" stop-color="#273b98"/><stop offset="0.23" stop-color="#2f2ba2"/><stop offset="0.4" stop-color="#361cac"/><stop offset="0.77" stop-color="#440b89"/><stop offset="1" stop-color="#4e0070"/></linearGradient><linearGradient id="linear-gradient-6" x1="334.45" y1="153.01" x2="284.3" y2="126.14" xlink:href="#linear-gradient-4"/><linearGradient id="linear-gradient-7" x1="238.22" y1="253.54" x2="269.31" y2="68.9" gradientTransform="matrix(-1, 0, 0, 1, 400.83, 0)" gradientUnits="userSpaceOnUse"><stop offset="0" stop-color="#5277f7"/><stop offset="0.09" stop-color="#5b76f7"/><stop offset="0.24" stop-color="#7374f6"/><stop offset="0.42" stop-color="#9a70f4"/><stop offset="0.56" stop-color="#bb6df3"/><stop offset="1" stop-color="#f36dd4"/></linearGradient><linearGradient id="linear-gradient-8" x1="241.19" y1="254.24" x2="163.16" y2="50.16" xlink:href="#linear-gradient"/><linearGradient id="linear-gradient-9" x1="264.22" y1="255.95" x2="175.49" y2="147.98" gradientTransform="matrix(-1, 0, 0, 1, 400.83, 0)" gradientUnits="userSpaceOnUse"><stop offset="0.03" stop-color="#bb6df3"/><stop offset="0.6" stop-color="#5b41e0"/><stop offset="0.71" stop-color="#594be4"/><stop offset="0.91" stop-color="#5567f0"/><stop offset="1" stop-color="#5277f7"/></linearGradient><radialGradient id="radial-gradient" cx="220.49" cy="61.44" r="93.5" gradientTransform="matrix(-1, 0, 0, 1, 400.83, 0)" gradientUnits="userSpaceOnUse"><stop offset="0" stop-color="#711f56"/><stop offset="0.16" stop-color="#6c1e52"/><stop offset="0.36" stop-color="#5c1946"/><stop offset="0.58" stop-color="#431233"/><stop offset="0.82" stop-color="#200918"/><stop offset="1"/></radialGradient><radialGradient id="radial-gradient-2" cx="-767.76" cy="376.31" r="21.09" gradientTransform="matrix(-0.7, 0, 0, 1.6, -354.81, -384.74)" gradientUnits="userSpaceOnUse"><stop offset="0" stop-color="#836df3"/><stop offset="0.11" stop-color="#6655bd"/><stop offset="0.23" stop-color="#4b3e8b"/><stop offset="0.36" stop-color="#342b60"/><stop offset="0.48" stop-color="#211c3e"/><stop offset="0.61" stop-color="#130f23"/><stop offset="0.73" stop-color="#08070f"/><stop offset="0.86" stop-color="#020204"/><stop offset="1"/></radialGradient><linearGradient id="linear-gradient-10" x1="134.29" y1="88.46" x2="157.29" y2="175.46" xlink:href="#linear-gradient"/><linearGradient id="linear-gradient-11" x1="352.1" y1="116.55" x2="394.35" y2="234.05" xlink:href="#linear-gradient-2"/><linearGradient id="linear-gradient-12" x1="360.49" y1="165.52" x2="376.83" y2="156.86" gradientTransform="matrix(-1, 0, 0, 1, 400.83, 0)" gradientUnits="userSpaceOnUse"><stop offset="0.08" stop-color="#b4f759"/><stop offset="0.14" stop-color="#adf65d"/><stop offset="0.24" stop-color="#9af467"/><stop offset="0.36" stop-color="#7af178"/><stop offset="0.48" stop-color="#4fed90"/><stop offset="0.58" stop-color="#2be9a3"/><stop offset="0.7" stop-color="#24e4a8"/><stop offset="0.87" stop-color="#11d4b8"/><stop offset="0.98" stop-color="#00c7c5"/></linearGradient><linearGradient id="linear-gradient-13" x1="141.38" y1="124.93" x2="151.38" y2="145.93" gradientTransform="matrix(-1, 0, 0, 1, 400.83, 0)" gradientUnits="userSpaceOnUse"><stop offset="0.06" stop-color="#f36dd4"/><stop offset="0.2" stop-color="#e96dda"/><stop offset="0.43" stop-color="#cd6de9"/><stop offset="0.55" stop-color="#bb6df3"/><stop offset="1" stop-color="#836df3"/></linearGradient><linearGradient id="linear-gradient-14" x1="180.54" y1="73.99" x2="209.47" y2="158.18" gradientTransform="matrix(-1, 0, 0, 1, 400.83, 0)" gradientUnits="userSpaceOnUse"><stop offset="0" stop-color="#836df3"/><stop offset="0.14" stop-color="#8c6df3"/><stop offset="0.38" stop-color="#a46df3"/><stop offset="0.56" stop-color="#bb6df3"/><stop offset="1" stop-color="#f36dd4"/></linearGradient><linearGradient id="linear-gradient-15" x1="203.06" y1="76.23" x2="204.36" y2="149.52" gradientTransform="matrix(-1, 0, 0, 1, 400.83, 0)" gradientUnits="userSpaceOnUse"><stop offset="0" stop-color="#6cf"/><stop offset="0.45" stop-color="#5ea8fc"/><stop offset="1" stop-color="#5277f7"/></linearGradient><linearGradient id="linear-gradient-16" x1="233.38" y1="99.42" x2="201.53" y2="120.06" gradientTransform="matrix(-1, 0, 0, 1, 400.83, 0)" gradientUnits="userSpaceOnUse"><stop offset="0" stop-color="#dfed72"/><stop offset="0.44" stop-color="#b4f759"/><stop offset="0.57" stop-color="#adf65d"/><stop offset="0.76" stop-color="#9af467"/><stop offset="0.98" stop-color="#7bf178"/><stop offset="1" stop-color="#78f179"/></linearGradient><linearGradient id="linear-gradient-17" x1="226.47" y1="123" x2="222.88" y2="137.55" gradientTransform="matrix(-1, 0, 0, 1, 400.83, 0)" gradientUnits="userSpaceOnUse"><stop offset="0" stop-color="#ffe585"/><stop offset="0.28" stop-color="#dbee70"/><stop offset="0.55" stop-color="#b4f759"/><stop offset="0.66" stop-color="#adf65d"/><stop offset="0.81" stop-color="#9af467"/><stop offset="0.99" stop-color="#7bf178"/><stop offset="1" stop-color="#78f179"/></linearGradient><linearGradient id="linear-gradient-18" x1="223.96" y1="139.01" x2="220.47" y2="153.77" xlink:href="#linear-gradient-15"/><linearGradient id="linear-gradient-19" x1="223.42" y1="140.01" x2="221.03" y2="156.17" xlink:href="#linear-gradient-14"/><linearGradient id="linear-gradient-20" x1="248.66" y1="144.42" x2="341.34" y2="144.42" xlink:href="#linear-gradient-2"/><radialGradient id="radial-gradient-3" cx="295" cy="135.6" r="87.22" xlink:href="#radial-gradient"/><radialGradient id="radial-gradient-4" cx="356.34" cy="315.5" r="15.75" gradientTransform="matrix(-1.03, 0, 0, 1.7, 498.75, -409.27)" gradientUnits="userSpaceOnUse"><stop offset="0" stop-color="#00c7c5"/><stop offset="0.03" stop-color="#00bdbb"/><stop offset="0.16" stop-color="#008b8a"/><stop offset="0.29" stop-color="#00605f"/><stop offset="0.43" stop-color="#003e3d"/><stop offset="0.57" stop-color="#002322"/><stop offset="0.71" stop-color="#000f0f"/><stop offset="0.85" stop-color="#000404"/><stop offset="1"/></radialGradient><linearGradient id="linear-gradient-21" x1="284.58" y1="168.91" x2="259.33" y2="118.91" gradientTransform="matrix(-0.5, -0.86, -0.86, 0.5, 391.97, 308.49)" xlink:href="#linear-gradient-2"/><linearGradient id="linear-gradient-22" x1="293.05" y1="177.65" x2="269.3" y2="136.15" xlink:href="#linear-gradient-2"/><linearGradient id="linear-gradient-23" x1="185.47" y1="177.92" x2="243.14" y2="228.92" gradientTransform="matrix(-1, 0, 0, 1, 400.83, 0)" gradientUnits="userSpaceOnUse"><stop offset="0" stop-color="#fffa84"/><stop offset="0.39" stop-color="#c8f864"/><stop offset="0.53" stop-color="#b4f759"/><stop offset="0.83" stop-color="#88f371"/><stop offset="1" stop-color="#6ef07f"/></linearGradient><radialGradient id="radial-gradient-5" cx="217.95" cy="198.49" r="54.55" xlink:href="#radial-gradient"/><linearGradient id="linear-gradient-24" x1="214.45" y1="200.42" x2="251.39" y2="233.09" xlink:href="#linear-gradient-23"/><linearGradient id="linear-gradient-25" x1="144.4" y1="131.39" x2="156.65" y2="147.64" xlink:href="#linear-gradient-13"/><linearGradient id="linear-gradient-26" x1="365.98" y1="163.19" x2="384.23" y2="157.07" xlink:href="#linear-gradient-12"/></defs><g class="cls-1"><g id="Capa_2" data-name="Capa 2"><g id="Layer_1" data-name="Layer 1"><path class="cls-2" d="M173.23,211.22a.5.5,0,1,1,.4-.91,6.44,6.44,0,0,0,2.55.5h.16a.53.53,0,0,1,.51.49.5.5,0,0,1-.49.51h-.18A7.37,7.37,0,0,1,173.23,211.22Zm5.58-.29a.5.5,0,0,1,.31-.63,14.55,14.55,0,0,0,2.6-1.19l0,0a.5.5,0,0,1,.67.19.51.51,0,0,1-.2.69,15.59,15.59,0,0,1-2.78,1.28l-.16,0A.49.49,0,0,1,178.81,210.93Zm-8.12-1.65a8.6,8.6,0,0,1-1.49-2.78.5.5,0,0,1,.31-.64.52.52,0,0,1,.64.32,7.84,7.84,0,0,0,1.31,2.47.49.49,0,0,1-.07.7.45.45,0,0,1-.31.11A.5.5,0,0,1,170.69,209.28Zm13.47-1a.49.49,0,0,1,.18-.68l2.6-1.49a.5.5,0,0,1,.5.86l-2.6,1.5a.54.54,0,0,1-.25.06A.5.5,0,0,1,184.16,208.28Zm5.19-3a.5.5,0,0,1,.18-.68l2.6-1.49a.49.49,0,0,1,.68.18.51.51,0,0,1-.18.69l-2.6,1.49a.55.55,0,0,1-.25.07A.49.49,0,0,1,189.35,205.29Zm-20.74-1.85c0-.4,0-.82,0-1.26v-1.77a.5.5,0,0,1,.5-.5.51.51,0,0,1,.5.5v1.77c0,.41,0,.8,0,1.19a.5.5,0,0,1-.46.53h0A.5.5,0,0,1,168.61,203.44Zm25.93-1.13a.51.51,0,0,1,.18-.69l2.6-1.49a.49.49,0,0,1,.68.18.51.51,0,0,1-.18.69l-2.6,1.49a.45.45,0,0,1-.25.07A.5.5,0,0,1,194.54,202.31Zm5.19-3a.49.49,0,0,1,.18-.68l2.6-1.5a.51.51,0,0,1,.68.19.49.49,0,0,1-.18.68l-2.6,1.49a.45.45,0,0,1-.25.07A.5.5,0,0,1,199.73,199.32Zm-31.16-1.9v-3a.5.5,0,0,1,.5-.5.51.51,0,0,1,.5.5v3a.5.5,0,0,1-.5.5A.5.5,0,0,1,168.57,197.42Zm36.35-1.09a.5.5,0,0,1,.19-.68l2.59-1.49a.5.5,0,0,1,.5.86l-2.6,1.5a.51.51,0,0,1-.25.06A.5.5,0,0,1,204.92,196.33Zm5.19-3a.51.51,0,0,1,.18-.69l2.6-1.49a.49.49,0,0,1,.68.18.51.51,0,0,1-.18.69l-2.6,1.49a.55.55,0,0,1-.25.07A.5.5,0,0,1,210.11,193.35Zm-41.54-1.92v-3a.5.5,0,0,1,.5-.5.5.5,0,0,1,.5.5v3a.5.5,0,0,1-.5.5A.5.5,0,0,1,168.57,191.43Zm46.73-1.07a.49.49,0,0,1,.19-.68l2.59-1.5a.5.5,0,0,1,.5.87l-2.6,1.49a.43.43,0,0,1-.25.07A.5.5,0,0,1,215.3,190.36Zm5.19-3a.5.5,0,0,1,.19-.68l2.59-1.5a.5.5,0,0,1,.68.19.49.49,0,0,1-.18.68l-2.6,1.5a.51.51,0,0,1-.25.06A.5.5,0,0,1,220.49,187.37Zm-51.92-1.93v-3a.5.5,0,0,1,.5-.5.5.5,0,0,1,.5.5v3a.5.5,0,0,1-.5.5A.5.5,0,0,1,168.57,185.44Zm57.11-1.06a.5.5,0,0,1,.19-.68l2.59-1.49a.5.5,0,1,1,.5.86l-2.6,1.5a.51.51,0,0,1-.68-.19Zm5.19-3a.51.51,0,0,1,.19-.69l2.59-1.49a.49.49,0,0,1,.68.18.51.51,0,0,1-.18.69l-2.6,1.49a.42.42,0,0,1-.24.07A.5.5,0,0,1,230.87,181.4Zm-62.3-2v-3a.5.5,0,0,1,.5-.5.5.5,0,0,1,.5.5v3a.5.5,0,0,1-.5.5A.5.5,0,0,1,168.57,179.45Zm67.49-1a.49.49,0,0,1,.19-.68l2.59-1.5a.5.5,0,0,1,.5.87l-2.6,1.49a.42.42,0,0,1-.24.07A.51.51,0,0,1,236.06,178.41Zm5.19-3a.5.5,0,0,1,.14-.69,21.07,21.07,0,0,0,2.32-1.78.5.5,0,0,1,.71,0,.51.51,0,0,1,0,.71,22.75,22.75,0,0,1-2.43,1.86.45.45,0,0,1-.27.08A.52.52,0,0,1,241.25,175.42Zm-72.68-2v-3a.5.5,0,0,1,.5-.5.5.5,0,0,1,.5.5v3a.5.5,0,0,1-.5.5A.5.5,0,0,1,168.57,173.46Zm77.26-1.87a.5.5,0,0,1,0-.71,26.4,26.4,0,0,0,1.85-2.29.5.5,0,0,1,.7-.1.51.51,0,0,1,.11.7c-.61.82-1.25,1.62-1.92,2.36a.49.49,0,0,1-.37.16A.54.54,0,0,1,245.83,171.59Zm-77.26-4.11v-3a.5.5,0,0,1,.5-.5.51.51,0,0,1,.5.5v3a.51.51,0,0,1-.5.5A.5.5,0,0,1,168.57,167.48Zm80.88-.66a.48.48,0,0,1-.17-.68q.75-1.27,1.38-2.61a.5.5,0,1,1,.9.43c-.43.91-.91,1.82-1.42,2.69a.52.52,0,0,1-.44.24A.47.47,0,0,1,249.45,166.82Zm-80.88-5.33v-3a.5.5,0,0,1,.5-.5.51.51,0,0,1,.5.5v3a.51.51,0,0,1-.5.5A.5.5,0,0,1,168.57,161.49Zm83.51,0a.5.5,0,0,1-.3-.64,25.59,25.59,0,0,0,.82-2.82.5.5,0,0,1,1,.23,25.51,25.51,0,0,1-.86,2.93.5.5,0,0,1-.47.33A.51.51,0,0,1,252.08,161.45Zm-83.51-5.95v-3a.5.5,0,0,1,.5-.5.51.51,0,0,1,.5.5v3a.5.5,0,0,1-.5.5A.5.5,0,0,1,168.57,155.5Zm85,.15a.51.51,0,0,1-.46-.54,15.75,15.75,0,0,0,.08-1.66v-1.29a.5.5,0,0,1,.5-.5.5.5,0,0,1,.5.5v1.29c0,.57,0,1.15-.08,1.75a.49.49,0,0,1-.5.45Zm-85-6.14v-3a.5.5,0,0,1,.5-.5.5.5,0,0,1,.5.5v3a.5.5,0,0,1-.5.5A.5.5,0,0,1,168.57,149.51Zm84.58-.34v-3a.51.51,0,0,1,.5-.5.5.5,0,0,1,.5.5v3a.5.5,0,0,1-.5.5A.51.51,0,0,1,253.15,149.17Zm-84.58-5.65v-3a.5.5,0,0,1,.5-.5.5.5,0,0,1,.5.5v3a.5.5,0,0,1-.5.5A.5.5,0,0,1,168.57,143.52Zm84.58-.34v-3a.51.51,0,0,1,.5-.5.5.5,0,0,1,.5.5v3a.5.5,0,0,1-.5.5A.51.51,0,0,1,253.15,143.18Zm-84.58-5.65v-3a.5.5,0,0,1,.5-.5.5.5,0,0,1,.5.5v3a.5.5,0,0,1-.5.5A.5.5,0,0,1,168.57,137.53Zm84.58-.34v-3a.51.51,0,0,1,.5-.5.5.5,0,0,1,.5.5v3a.5.5,0,0,1-.5.5A.51.51,0,0,1,253.15,137.19Zm-84.58-5.65v-3a.5.5,0,0,1,.5-.5.5.5,0,0,1,.5.5v3a.5.5,0,0,1-.5.5A.5.5,0,0,1,168.57,131.54Zm84.58-.34v-3a.5.5,0,0,1,.5-.5.5.5,0,0,1,.5.5v3a.5.5,0,0,1-.5.5A.5.5,0,0,1,253.15,131.2Zm-84.58-5.64v-3a.5.5,0,0,1,.5-.5.51.51,0,0,1,.5.5v3a.51.51,0,0,1-.5.5A.5.5,0,0,1,168.57,125.56Zm84.58-.35v-3a.5.5,0,0,1,.5-.5.5.5,0,0,1,.5.5v3a.5.5,0,0,1-.5.5A.5.5,0,0,1,253.15,125.21Zm-84.58-5.64v-3a.5.5,0,0,1,.5-.5.51.51,0,0,1,.5.5v3a.51.51,0,0,1-.5.5A.5.5,0,0,1,168.57,119.57Zm84.58-.35v-3a.5.5,0,0,1,.5-.5.5.5,0,0,1,.5.5v3a.5.5,0,0,1-.5.5A.5.5,0,0,1,253.15,119.22Zm-84.58-5.64v-3a.5.5,0,0,1,.5-.5.51.51,0,0,1,.5.5v3a.5.5,0,0,1-.5.5A.5.5,0,0,1,168.57,113.58Zm84.58-.35v-3a.5.5,0,0,1,.5-.5.5.5,0,0,1,.5.5v3a.5.5,0,0,1-.5.5A.5.5,0,0,1,253.15,113.23Zm-84.58-5.64v-3a.5.5,0,0,1,.5-.5.5.5,0,0,1,.5.5v3a.5.5,0,0,1-.5.5A.5.5,0,0,1,168.57,107.59Zm84.58-.34v-3a.51.51,0,0,1,.5-.5.5.5,0,0,1,.5.5v3a.5.5,0,0,1-.5.5A.51.51,0,0,1,253.15,107.25Zm-84.58-5.65v-3a.5.5,0,0,1,.5-.5.5.5,0,0,1,.5.5v3a.5.5,0,0,1-.5.5A.5.5,0,0,1,168.57,101.6Zm84.58-.34v-3a.51.51,0,0,1,.5-.5.5.5,0,0,1,.5.5v3a.5.5,0,0,1-.5.5A.51.51,0,0,1,253.15,101.26Zm-84.58-5.65v-3a.5.5,0,0,1,.5-.5.5.5,0,0,1,.5.5v3a.5.5,0,0,1-.5.5A.5.5,0,0,1,168.57,95.61Zm84.58-.34v-3a.51.51,0,0,1,.5-.5.5.5,0,0,1,.5.5v3a.5.5,0,0,1-.5.5A.51.51,0,0,1,253.15,95.27Zm-84.58-5.65v-3a.5.5,0,0,1,.5-.5.5.5,0,0,1,.5.5v3a.5.5,0,0,1-.5.5A.5.5,0,0,1,168.57,89.62Zm84.58-.34v-3a.5.5,0,0,1,.5-.5.5.5,0,0,1,.5.5v3a.5.5,0,0,1-.5.5A.5.5,0,0,1,253.15,89.28Zm-84.58-5.64v-3a.5.5,0,0,1,.5-.5.51.51,0,0,1,.5.5v3a.51.51,0,0,1-.5.5A.5.5,0,0,1,168.57,83.64Zm84.58-.35v-3a.5.5,0,0,1,.5-.5.5.5,0,0,1,.5.5v3a.5.5,0,0,1-.5.5A.5.5,0,0,1,253.15,83.29Zm-84.58-5.64v-3a.5.5,0,0,1,.5-.5.51.51,0,0,1,.5.5v3a.51.51,0,0,1-.5.5A.5.5,0,0,1,168.57,77.65Zm84.58-.35v-3a.5.5,0,0,1,.5-.5.5.5,0,0,1,.5.5v3a.5.5,0,0,1-.5.5A.5.5,0,0,1,253.15,77.3Zm-84.58-5.64v-3a.5.5,0,0,1,.5-.5.51.51,0,0,1,.5.5v3a.5.5,0,0,1-.5.5A.5.5,0,0,1,168.57,71.66Zm84.58-.35v-3a.5.5,0,0,1,.5-.5.5.5,0,0,1,.5.5v3a.5.5,0,0,1-.5.5A.5.5,0,0,1,253.15,71.31Zm-84.58-5.64v-3a.5.5,0,0,1,.5-.5.5.5,0,0,1,.5.5v3a.5.5,0,0,1-.5.5A.5.5,0,0,1,168.57,65.67Zm84.58-.34v-3a.51.51,0,0,1,.5-.5.5.5,0,0,1,.5.5v3a.5.5,0,0,1-.5.5A.51.51,0,0,1,253.15,65.33Zm-84.58-5.65V58.36c0-.55,0-1.13.07-1.72a.5.5,0,0,1,1,.09c0,.56-.07,1.11-.07,1.63v1.32a.5.5,0,0,1-.5.5A.5.5,0,0,1,168.57,59.68Zm84.58-.34v-3a.51.51,0,0,1,.5-.5.5.5,0,0,1,.5.5v3a.5.5,0,0,1-.5.5A.51.51,0,0,1,253.15,59.34Zm-83.64-5.12a.5.5,0,0,1-.38-.6A25.36,25.36,0,0,1,170,50.7a.5.5,0,0,1,.63-.31.51.51,0,0,1,.31.64,25.59,25.59,0,0,0-.82,2.82.51.51,0,0,1-.49.39Zm83.64-.87v-3a.51.51,0,0,1,.5-.5.5.5,0,0,1,.5.5v3a.5.5,0,0,1-.5.5A.5.5,0,0,1,253.15,53.35Zm-81.77-4.8a.51.51,0,0,1-.24-.67c.43-.9.91-1.81,1.43-2.69a.5.5,0,0,1,.68-.17.49.49,0,0,1,.18.68q-.77,1.29-1.38,2.61a.5.5,0,0,1-.45.28A.54.54,0,0,1,171.38,48.55Zm81.77-1.19v-3a.5.5,0,0,1,.5-.5.5.5,0,0,1,.5.5v3a.5.5,0,0,1-.5.5A.5.5,0,0,1,253.15,47.36Zm-78.8-4a.51.51,0,0,1-.11-.7,29.87,29.87,0,0,1,1.92-2.36.5.5,0,0,1,.74.66c-.64.72-1.27,1.49-1.85,2.29a.52.52,0,0,1-.4.21A.54.54,0,0,1,174.35,43.35Zm78.8-2v-3a.5.5,0,0,1,.5-.5.5.5,0,0,1,.5.5v3a.5.5,0,0,1-.5.5A.5.5,0,0,1,253.15,41.37Zm-74.87-2.53a.5.5,0,0,1,0-.7,21.62,21.62,0,0,1,2.43-1.87.5.5,0,0,1,.55.83A21.87,21.87,0,0,0,179,38.89a.5.5,0,0,1-.7,0Zm74.87-3.46v-3a.5.5,0,0,1,.5-.5.5.5,0,0,1,.5.5v3a.5.5,0,0,1-.5.5A.5.5,0,0,1,253.15,35.38Zm-70,0a.49.49,0,0,1,.18-.68l2.6-1.5a.51.51,0,0,1,.68.19.49.49,0,0,1-.18.68l-2.6,1.5a.54.54,0,0,1-.25.06A.5.5,0,0,1,183.17,35.41Zm5.19-3a.49.49,0,0,1,.18-.68l2.6-1.49a.49.49,0,0,1,.68.18.5.5,0,0,1-.18.68l-2.6,1.5a.54.54,0,0,1-.25.06A.5.5,0,0,1,188.36,32.42Zm64.79-3v-3a.5.5,0,0,1,.5-.5.5.5,0,0,1,.5.5v3a.5.5,0,0,1-.5.5A.5.5,0,0,1,253.15,29.39Zm-59.6.05a.51.51,0,0,1,.18-.69l2.6-1.49a.49.49,0,0,1,.68.18.51.51,0,0,1-.18.69l-2.6,1.49a.45.45,0,0,1-.25.07A.5.5,0,0,1,193.55,29.44Zm5.19-3a.49.49,0,0,1,.18-.68l2.6-1.5a.5.5,0,0,1,.5.87l-2.6,1.49a.45.45,0,0,1-.25.07A.5.5,0,0,1,198.74,26.45Zm54.41-3v-3a.51.51,0,0,1,.5-.5.5.5,0,0,1,.5.5v3a.5.5,0,0,1-.5.5A.51.51,0,0,1,253.15,23.41Zm-49.22.05a.49.49,0,0,1,.18-.68l2.6-1.49a.5.5,0,0,1,.5.86l-2.6,1.5a.54.54,0,0,1-.25.06A.5.5,0,0,1,203.93,23.46Zm5.19-3a.5.5,0,0,1,.18-.68l2.6-1.49a.5.5,0,1,1,.5.86l-2.6,1.5a.55.55,0,0,1-.25.07A.49.49,0,0,1,209.12,20.47Zm44-3v-3a.51.51,0,0,1,.5-.5.5.5,0,0,1,.5.5v3a.5.5,0,0,1-.5.5A.51.51,0,0,1,253.15,17.42Zm-38.84.07a.51.51,0,0,1,.18-.69l2.6-1.49a.49.49,0,0,1,.68.18.51.51,0,0,1-.18.69L215,17.67a.45.45,0,0,1-.25.07A.5.5,0,0,1,214.31,17.49Zm5.19-3a.49.49,0,0,1,.18-.68l2.6-1.5a.5.5,0,0,1,.5.87l-2.6,1.49a.45.45,0,0,1-.25.07A.5.5,0,0,1,219.5,14.5Zm33.65-3.07V9.63c0-.4,0-.78,0-1.16a.5.5,0,0,1,.46-.53.51.51,0,0,1,.54.46c0,.4,0,.81,0,1.23v1.8a.5.5,0,0,1-.5.5A.5.5,0,0,1,253.15,11.43Zm-28.46.08a.5.5,0,0,1,.18-.68l2.6-1.49a.5.5,0,1,1,.5.86l-2.6,1.5a.54.54,0,0,1-.25.06A.5.5,0,0,1,224.69,11.51Zm5.19-3a.5.5,0,0,1,.19-.68l2.59-1.49a.5.5,0,0,1,.5.86l-2.6,1.5a.52.52,0,0,1-.25.07A.49.49,0,0,1,229.88,8.52Zm22.7-2.86a7.84,7.84,0,0,0-1.31-2.47.52.52,0,0,1,.07-.71.51.51,0,0,1,.71.08,8.83,8.83,0,0,1,1.48,2.79.51.51,0,0,1-.32.63l-.16,0A.49.49,0,0,1,252.58,5.66Zm-17.51-.12a.51.51,0,0,1,.19-.69l2.59-1.49a.5.5,0,0,1,.68.18.51.51,0,0,1-.18.69l-2.6,1.49a.43.43,0,0,1-.25.07A.5.5,0,0,1,235.07,5.54Zm5.21-3a.55.55,0,0,1,.21-.7A14.88,14.88,0,0,1,243.31.56a.5.5,0,0,1,.63.31.51.51,0,0,1-.32.64A13.55,13.55,0,0,0,241,2.71l-.05,0a.46.46,0,0,1-.23.06A.52.52,0,0,1,240.28,2.54Zm8.83-1A6.23,6.23,0,0,0,246.53,1h-.13a.51.51,0,0,1-.5-.49.5.5,0,0,1,.49-.51h.15a7.35,7.35,0,0,1,3,.6.5.5,0,0,1,.25.66.49.49,0,0,1-.46.3A.51.51,0,0,1,249.11,1.52Z"/><path class="cls-3" d="M38.69,244.85a.5.5,0,0,1,.49-.51,9.62,9.62,0,0,0,2.79-.52.51.51,0,0,1,.63.32.5.5,0,0,1-.31.63,10.34,10.34,0,0,1-3.09.57h0A.51.51,0,0,1,38.69,244.85Zm-2.61-.1a6.7,6.7,0,0,1-2.54-1.95.49.49,0,0,1,.07-.7.5.5,0,0,1,.7.07,5.64,5.64,0,0,0,2.17,1.66.5.5,0,0,1,.25.66.49.49,0,0,1-.45.3A.45.45,0,0,1,36.08,244.75Zm8.33-1.45a.5.5,0,0,1,.18-.68l2.6-1.5a.51.51,0,0,1,.68.19.49.49,0,0,1-.18.68l-2.6,1.49a.45.45,0,0,1-.25.07A.5.5,0,0,1,44.41,243.3Zm5.19-3a.49.49,0,0,1,.18-.68l2.6-1.49a.5.5,0,1,1,.5.86l-2.6,1.5a.54.54,0,0,1-.25.06A.5.5,0,0,1,49.6,240.31ZM32.05,240a12.41,12.41,0,0,1-.59-3.05.5.5,0,0,1,.46-.54.52.52,0,0,1,.54.46,11.57,11.57,0,0,0,.54,2.82.51.51,0,0,1-.32.63.44.44,0,0,1-.16,0A.49.49,0,0,1,32.05,240Zm22.74-2.69a.51.51,0,0,1,.18-.69l2.6-1.49a.49.49,0,0,1,.68.18.51.51,0,0,1-.18.69l-2.6,1.49a.45.45,0,0,1-.25.07A.5.5,0,0,1,54.79,237.33Zm5.19-3a.49.49,0,0,1,.18-.68l2.6-1.5a.51.51,0,0,1,.68.19.5.5,0,0,1-.19.68l-2.59,1.49a.45.45,0,0,1-.25.07A.5.5,0,0,1,60,234.34Zm-28.57-.4v-3a.5.5,0,0,1,.5-.5.5.5,0,0,1,.5.5v3a.5.5,0,0,1-.5.5A.5.5,0,0,1,31.41,233.94Zm33.76-2.59a.49.49,0,0,1,.18-.68l2.6-1.49a.49.49,0,1,1,.49.86l-2.59,1.5a.54.54,0,0,1-.25.06A.5.5,0,0,1,65.17,231.35Zm5.19-3a.51.51,0,0,1,.18-.69l2.6-1.49a.5.5,0,0,1,.68.18.51.51,0,0,1-.19.69L71,228.55a.47.47,0,0,1-.25.07A.5.5,0,0,1,70.36,228.37ZM31.41,228v-3a.5.5,0,0,1,.5-.5.5.5,0,0,1,.5.5v3a.5.5,0,0,1-.5.5A.5.5,0,0,1,31.41,228Zm44.13-2.57a.51.51,0,0,1,.19-.68l2.59-1.5a.52.52,0,0,1,.69.19.51.51,0,0,1-.19.68l-2.59,1.49a.47.47,0,0,1-.25.07A.52.52,0,0,1,75.54,225.38Zm5.19-3a.51.51,0,0,1,.19-.68l2.59-1.49a.5.5,0,1,1,.5.86l-2.59,1.5a.57.57,0,0,1-.25.06A.51.51,0,0,1,80.73,222.39ZM31.41,222v-3a.51.51,0,0,1,.5-.5.5.5,0,0,1,.5.5v3a.5.5,0,0,1-.5.5A.51.51,0,0,1,31.41,222Zm54.51-2.56a.52.52,0,0,1,.19-.69l2.59-1.49a.5.5,0,1,1,.5.87l-2.59,1.49a.47.47,0,0,1-.25.07A.51.51,0,0,1,85.92,219.41Zm5.19-3a.51.51,0,0,1,.19-.68l2.59-1.5a.5.5,0,0,1,.68.19.49.49,0,0,1-.18.68L91.8,216.6a.47.47,0,0,1-.25.07A.51.51,0,0,1,91.11,216.42ZM31.41,216v-3a.5.5,0,0,1,.5-.5.5.5,0,0,1,.5.5v3a.5.5,0,0,1-.5.5A.5.5,0,0,1,31.41,216Zm64.89-2.55a.5.5,0,0,1,.19-.68l2.59-1.49a.5.5,0,0,1,.5.86l-2.6,1.5a.51.51,0,0,1-.25.06A.5.5,0,0,1,96.3,213.43Zm5.19-3a.51.51,0,0,1,.19-.69l1.66-.95.89-.55a.5.5,0,1,1,.55.83c-.31.21-.63.4-.94.58l-1.67,1a.43.43,0,0,1-.25.07A.5.5,0,0,1,101.49,210.45ZM31.41,210v-3a.5.5,0,0,1,.5-.5.5.5,0,0,1,.5.5v3a.5.5,0,0,1-.5.5A.5.5,0,0,1,31.41,210Zm75.09-2.8a.51.51,0,0,1,0-.71,25.21,25.21,0,0,0,2.08-2.06.5.5,0,0,1,.71,0,.51.51,0,0,1,0,.71,27.29,27.29,0,0,1-2.17,2.14.5.5,0,0,1-.33.13A.52.52,0,0,1,106.5,207.19ZM31.41,204v-3a.5.5,0,0,1,.5-.5.5.5,0,0,1,.5.5v3a.5.5,0,0,1-.5.5A.5.5,0,0,1,31.41,204Zm79.18-1.17a.5.5,0,0,1-.1-.7c.57-.78,1.12-1.61,1.62-2.45a.51.51,0,0,1,.69-.18.51.51,0,0,1,.17.69,29.2,29.2,0,0,1-1.68,2.53.48.48,0,0,1-.4.21A.49.49,0,0,1,110.59,202.83ZM31.41,198v-3a.51.51,0,0,1,.5-.5.5.5,0,0,1,.5.5v3a.5.5,0,0,1-.5.5A.51.51,0,0,1,31.41,198Zm82.33-.28a.5.5,0,0,1-.24-.67c.42-.9.8-1.81,1.12-2.72a.5.5,0,0,1,.94.34,29.22,29.22,0,0,1-1.16,2.81.49.49,0,0,1-.45.29A.5.5,0,0,1,113.74,197.74ZM31.41,192v-3a.5.5,0,0,1,.5-.5.5.5,0,0,1,.5.5v3a.5.5,0,0,1-.5.5A.5.5,0,0,1,31.41,192Zm84.41.11a.49.49,0,0,1-.37-.6,23.46,23.46,0,0,0,.47-2.89.5.5,0,0,1,1,.09,23.47,23.47,0,0,1-.5,3,.5.5,0,0,1-.49.39ZM31.41,186v-3a.5.5,0,0,1,.5-.5.5.5,0,0,1,.5.5v3a.5.5,0,0,1-.5.5A.5.5,0,0,1,31.41,186Zm84.59-.33v-3a.5.5,0,0,1,.5-.5.51.51,0,0,1,.5.5v3a.51.51,0,0,1-.5.5A.5.5,0,0,1,116,185.71Zm-84.59-5.66v-3a.5.5,0,0,1,.5-.5.5.5,0,0,1,.5.5v3a.5.5,0,0,1-.5.5A.5.5,0,0,1,31.41,180.05Zm84.59-.33v-3a.5.5,0,0,1,.5-.5.5.5,0,0,1,.5.5v3a.5.5,0,0,1-.5.5A.5.5,0,0,1,116,179.72Zm-84.59-5.65v-3a.51.51,0,0,1,.5-.5.5.5,0,0,1,.5.5v3a.5.5,0,0,1-.5.5A.51.51,0,0,1,31.41,174.07Zm84.59-.34v-3a.5.5,0,0,1,.5-.5.5.5,0,0,1,.5.5v3a.5.5,0,0,1-.5.5A.5.5,0,0,1,116,173.73Zm-84.59-5.65v-3a.5.5,0,0,1,.5-.5.5.5,0,0,1,.5.5v3a.5.5,0,0,1-.5.5A.5.5,0,0,1,31.41,168.08Zm84.59-.34v-3a.5.5,0,0,1,.5-.5.5.5,0,0,1,.5.5v3a.5.5,0,0,1-.5.5A.5.5,0,0,1,116,167.74Zm-84.59-5.65v-3a.5.5,0,0,1,.5-.5.5.5,0,0,1,.5.5v3a.5.5,0,0,1-.5.5A.5.5,0,0,1,31.41,162.09Zm84.59-.33v-3a.5.5,0,0,1,.5-.5.51.51,0,0,1,.5.5v3a.51.51,0,0,1-.5.5A.5.5,0,0,1,116,161.76Zm-84.59-5.65v-3a.51.51,0,0,1,.5-.5.5.5,0,0,1,.5.5v3a.5.5,0,0,1-.5.5A.51.51,0,0,1,31.41,156.11Zm84.59-.34v-3a.5.5,0,0,1,.5-.5.5.5,0,0,1,.5.5v3a.5.5,0,0,1-.5.5A.5.5,0,0,1,116,155.77Zm-84.59-5.65v-1.3c0-.57,0-1.15.08-1.74a.51.51,0,0,1,.55-.45.49.49,0,0,1,.45.54c-.05.56-.08,1.11-.08,1.65v1.3a.5.5,0,0,1-.5.5A.5.5,0,0,1,31.41,150.12Zm84.59-.34v-3a.5.5,0,0,1,.5-.5.5.5,0,0,1,.5.5v3a.5.5,0,0,1-.5.5A.5.5,0,0,1,116,149.78Zm-83.64-5.12a.5.5,0,0,1-.38-.6,29.14,29.14,0,0,1,.86-2.93.5.5,0,1,1,.94.34,25.59,25.59,0,0,0-.82,2.82.5.5,0,0,1-.49.38ZM116,143.8v-3a.5.5,0,0,1,.5-.5.51.51,0,0,1,.5.5v3a.51.51,0,0,1-.5.5A.5.5,0,0,1,116,143.8ZM34.24,139a.5.5,0,0,1-.24-.67c.43-.91.91-1.81,1.42-2.68a.51.51,0,0,1,.69-.18.49.49,0,0,1,.17.69c-.5.84-1,1.72-1.38,2.6a.48.48,0,0,1-.45.28A.52.52,0,0,1,34.24,139ZM116,137.81v-3a.5.5,0,0,1,.5-.5.51.51,0,0,1,.5.5v3a.51.51,0,0,1-.5.5A.5.5,0,0,1,116,137.81Zm-78.79-4a.5.5,0,0,1-.11-.7A29.87,29.87,0,0,1,39,130.73a.49.49,0,0,1,.7,0,.5.5,0,0,1,0,.71,26.4,26.4,0,0,0-1.85,2.29.51.51,0,0,1-.41.2A.46.46,0,0,1,37.21,133.79Zm78.79-2v-3a.5.5,0,0,1,.5-.5.5.5,0,0,1,.5.5v3a.5.5,0,0,1-.5.5A.5.5,0,0,1,116,131.82Zm-74.86-2.53a.5.5,0,0,1,0-.71,22.75,22.75,0,0,1,2.43-1.86.5.5,0,0,1,.55.83,23.14,23.14,0,0,0-2.32,1.78.46.46,0,0,1-.33.13A.5.5,0,0,1,41.14,129.29ZM116,125.83v-3a.5.5,0,0,1,.5-.5.5.5,0,0,1,.5.5v3a.5.5,0,0,1-.5.5A.5.5,0,0,1,116,125.83Zm-70,0a.49.49,0,0,1,.18-.68l2.6-1.49a.5.5,0,0,1,.5.86l-2.6,1.5a.54.54,0,0,1-.25.06A.5.5,0,0,1,46,125.86Zm5.19-3a.51.51,0,0,1,.18-.69L54,120.7a.5.5,0,0,1,.68.18.51.51,0,0,1-.19.69l-2.59,1.49a.55.55,0,0,1-.25.07A.5.5,0,0,1,51.22,122.88Zm64.78-3v-3a.5.5,0,0,1,.5-.5.51.51,0,0,1,.5.5v3a.51.51,0,0,1-.5.5A.5.5,0,0,1,116,119.85Zm-59.59,0a.49.49,0,0,1,.18-.68l2.6-1.5a.5.5,0,1,1,.49.87l-2.59,1.49a.45.45,0,0,1-.25.07A.5.5,0,0,1,56.41,119.89Zm5.19-3a.49.49,0,0,1,.18-.68l2.6-1.49a.49.49,0,1,1,.49.86l-2.59,1.5a.57.57,0,0,1-.25.06A.5.5,0,0,1,61.6,116.9Zm54.4-3v-3a.5.5,0,0,1,.5-.5.5.5,0,0,1,.5.5v3a.5.5,0,0,1-.5.5A.5.5,0,0,1,116,113.86Zm-49.22.06a.52.52,0,0,1,.19-.69l2.59-1.49a.51.51,0,0,1,.69.18.52.52,0,0,1-.19.69l-2.59,1.49a.59.59,0,0,1-.25.07A.52.52,0,0,1,66.78,113.92Zm5.19-3a.5.5,0,0,1,.19-.68l2.59-1.5a.52.52,0,0,1,.69.19.51.51,0,0,1-.19.68l-2.59,1.49a.47.47,0,0,1-.25.07A.51.51,0,0,1,72,110.93Zm44-3.06v-3a.5.5,0,0,1,.5-.5.5.5,0,0,1,.5.5v3a.5.5,0,0,1-.5.5A.5.5,0,0,1,116,107.87Zm-38.84.07a.51.51,0,0,1,.19-.68l2.59-1.49a.5.5,0,1,1,.5.86l-2.59,1.5a.57.57,0,0,1-.25.06A.51.51,0,0,1,77.16,107.94Zm5.19-3a.52.52,0,0,1,.19-.69l2.59-1.49a.49.49,0,0,1,.68.18.51.51,0,0,1-.18.69L83,105.14a.59.59,0,0,1-.25.07A.51.51,0,0,1,82.35,105ZM116,101.88v-1.79c0-.4,0-.79,0-1.16a.5.5,0,0,1,.46-.54.51.51,0,0,1,.53.47c0,.39,0,.81,0,1.23v1.79a.5.5,0,0,1-.5.5A.5.5,0,0,1,116,101.88ZM87.54,102a.49.49,0,0,1,.19-.68l2.59-1.5A.51.51,0,0,1,91,100a.49.49,0,0,1-.18.68l-2.6,1.49a.42.42,0,0,1-.24.07A.5.5,0,0,1,87.54,102Zm5.19-3a.5.5,0,0,1,.19-.68l2.59-1.49a.5.5,0,1,1,.5.86l-2.6,1.5a.51.51,0,0,1-.25.06A.5.5,0,0,1,92.73,99Zm22.69-2.86a7.79,7.79,0,0,0-1.3-2.48.49.49,0,1,1,.77-.62,8.58,8.58,0,0,1,1.48,2.78.49.49,0,0,1-.32.63.4.4,0,0,1-.15,0A.5.5,0,0,1,115.42,96.12ZM97.92,96a.5.5,0,0,1,.19-.69l2.59-1.49a.49.49,0,0,1,.68.18.51.51,0,0,1-.18.69l-2.6,1.49a.55.55,0,0,1-.25.07A.5.5,0,0,1,97.92,96Zm5.21-3a.53.53,0,0,1,.21-.69A14.8,14.8,0,0,1,106.15,91a.49.49,0,0,1,.63.31.5.5,0,0,1-.31.64,13.55,13.55,0,0,0-2.63,1.2l0,0a.39.39,0,0,1-.23.07A.51.51,0,0,1,103.13,93ZM112,92a6.23,6.23,0,0,0-2.58-.52h-.14a.5.5,0,0,1,0-1h.15a7.28,7.28,0,0,1,3,.6.5.5,0,0,1-.2,1A.45.45,0,0,1,112,92Z"/><g class="cls-4"><path class="cls-5" d="M87.59,326.38a19.15,19.15,0,0,0,9.57-2.3l97.41-57.48c3.49-2,5.49-5.2,5.49-8.75,0-3.88-2.41-7.5-6.61-9.93L134.23,209a23.52,23.52,0,0,0-11.62-3,19.15,19.15,0,0,0-9.57,2.31L59.26,238.53,5.49,268.73C2,270.74,0,273.93,0,277.47c0,3.89,2.41,7.51,6.61,9.94l69.36,36A23.62,23.62,0,0,0,87.59,326.38Z"/><path class="cls-6" d="M136.94,211.16a24.24,24.24,0,0,0-9.32-2.89c-.72-.07-1.45-.12-2.18-.13a19.17,19.17,0,0,0-9.49,2.13c-.1,0-6,3.3-6.09,3.35L62.61,240.16l-7.15,4L9.3,270.11a10.8,10.8,0,0,0-5.48,7.31,10.24,10.24,0,0,0-.12,1.23c-.13,3.81,2.19,7.43,6.39,9.85l15.61,8.1c.21.12,30.16,15.52,30.35,15.41l21.64,10.73A23.18,23.18,0,0,0,89,325.43a19.12,19.12,0,0,0,9.31-2.3L155,289.7l38.19-22.51c3.32-1.92,5.43-5.07,5.43-8.45,0-3.7-2.06-7.28-6.06-9.59L157,224.73C157.19,224.63,137.16,211.29,136.94,211.16Z"/><path class="cls-7" d="M139.65,213.34a25.46,25.46,0,0,0-9.22-2.93c-.71-.08-1.43-.14-2.15-.16a19.15,19.15,0,0,0-9.42,2c-.2,0-5.92,3.16-6.07,3.25L66,241.79l-7.08,4L13.1,271.49c-2.78,1.61-5.06,4.41-5.54,7.14-.07.4-.13.8-.16,1.2-.25,3.74,2,7.35,6.17,9.77l15.19,7.87c.43.25,29.22,14.89,29.6,14.68l21,9.91c3,1.72,7.18,2.42,11,2.42a19,19,0,0,0,9-2.3l55.18-32.51,37.18-21.9c3.15-1.82,5.37-4.94,5.37-8.14a10.53,10.53,0,0,0-5.51-9.26l-32.87-23.7C159.13,226.46,140.08,213.58,139.65,213.34Z"/><path class="cls-8" d="M142.36,215.51a27,27,0,0,0-9.13-3c-.7-.08-1.4-.17-2.11-.2a19.26,19.26,0,0,0-9.36,1.79c-.29,0-5.82,3-6,3.16L69.3,243.41l-7,4L16.9,272.88c-2.63,1.52-5.1,4.39-5.6,7-.07.39-.16.78-.2,1.17-.38,3.67,1.76,7.27,6,9.69l14.78,7.64c.64.37,28.28,14.26,28.83,13.94l20.46,9.1c2.83,1.63,7,2.14,10.64,2.14a18.83,18.83,0,0,0,8.77-2.29l53.67-31.59,36.16-21.28c3-1.73,5.32-4.81,5.32-7.85a9.91,9.91,0,0,0-5-8.91l-30.19-23C161.08,228.28,143,215.88,142.36,215.51Z"/><path class="cls-9" d="M145.07,217.69a28.68,28.68,0,0,0-9-3c-.69-.08-1.38-.19-2.09-.23a18.94,18.94,0,0,0-9.28,1.62c-.39,0-5.72,2.89-6,3.06l-46,25.9-7,3.92-45,25.3c-2.48,1.44-5.16,4.37-5.67,6.8-.08.37-.18.75-.24,1.13-.51,3.59,1.54,7.18,5.73,9.6l14.36,7.42c.86.5,27.34,13.63,28.08,13.2l19.87,8.28c2.67,1.55,6.92,1.88,10.32,1.88a18.72,18.72,0,0,0,8.49-2.29l52.17-30.68L189,268.94c2.82-1.63,5.25-4.67,5.25-7.54,0-3.15-1-6.61-4.41-8.58l-27.52-22.28C163,230.11,145.93,218.18,145.07,217.69Z"/><path class="cls-10" d="M147.78,219.86a30.77,30.77,0,0,0-8.93-3c-.68-.09-1.37-.21-2.06-.26a19,19,0,0,0-9.21,1.44c-.49,0-5.62,2.76-6,3L76,246.66l-6.9,3.89-44.58,25.1c-2.33,1.35-5.2,4.35-5.73,6.62-.09.37-.21.73-.28,1.1-.64,3.52,1.32,7.1,5.51,9.52l14,7.19c1.07.62,26.39,13,27.32,12.46L84.56,320c2.51,1.45,6.79,1.61,10,1.61a18.65,18.65,0,0,0,8.22-2.29l50.66-29.76,34.13-20.05c2.65-1.53,5.19-4.54,5.19-7.24,0-3-.66-6.39-3.86-8.23L164,232.48C165,231.94,148.85,220.48,147.78,219.86Z"/><path class="cls-11" d="M150.49,222a32.73,32.73,0,0,0-8.83-3.07c-.68-.09-1.35-.23-2-.3a19,19,0,0,0-9.13,1.27,56.34,56.34,0,0,0-6,2.88L79.33,248.29l-6.84,3.85L28.32,277c-2.19,1.27-5.27,4.33-5.81,6.45-.09.36-.23.71-.31,1.07-.77,3.45,1.11,7,5.29,9.44L41,301c1.28.75,25.45,12.37,26.56,11.72l18.68,6.66c2.36,1.36,6.67,1.33,9.67,1.33a18.6,18.6,0,0,0,8-2.28L153,289.54l33.11-19.43c2.5-1.44,5.14-4.41,5.14-6.94,0-2.78-.31-6.17-3.31-7.9L165.8,234.41C166.92,233.77,151.77,222.78,150.49,222Z"/><path class="cls-12" d="M153.19,224.21a35.38,35.38,0,0,0-8.72-3.1c-.67-.1-1.33-.26-2-.33a18.94,18.94,0,0,0-9.06,1.1c-.7,0-5.42,2.49-5.93,2.79l-44.8,25.25-6.77,3.82L32.12,278.41c-2,1.19-5.32,4.32-5.87,6.28-.1.36-.25.69-.35,1-.9,3.38.89,6.94,5.07,9.35l13.12,6.74c1.5.87,24.51,11.74,25.81,11L88,318.64c2.2,1.27,6.54,1.07,9.34,1.07a18.57,18.57,0,0,0,7.68-2.28l47.64-27.92,32.1-18.82c2.33-1.34,5.08-4.27,5.08-6.64,0-2.59,0-5.94-2.76-7.56l-19.51-20.14C168.86,235.6,154.69,225.08,153.19,224.21Z"/><path class="cls-13" d="M155.9,226.39a38.34,38.34,0,0,0-8.63-3.14c-.65-.1-1.31-.28-2-.36a19,19,0,0,0-9,.92c-.8.05-5.33,2.36-5.9,2.7L86,251.54l-6.72,3.79L35.93,279.8c-1.9,1.09-5.39,4.29-5.94,6.1-.1.35-.28.67-.39,1-1,3.31.67,6.86,4.85,9.27l12.71,6.52c1.71,1,23.56,11.1,25,10.24l17.5,5c2,1.18,6.41.8,9,.8a18.62,18.62,0,0,0,7.41-2.28l46.13-27,31.09-18.19c2.16-1.25,5-4.15,5-6.34,0-2.41.4-5.72-2.21-7.22l-16.83-19.44C170.81,237.43,157.62,227.38,155.9,226.39Z"/><path class="cls-14" d="M158.61,228.56a41.89,41.89,0,0,0-8.53-3.17c-.65-.11-1.29-.3-2-.4a18.92,18.92,0,0,0-8.91.76c-.9.05-5.23,2.22-5.88,2.6l-44,24.82-6.65,3.76-43,24.25c-1.75,1-5.76,4.2-6,5.94a6.93,6.93,0,0,0-.42,1c-1.18,3.24.44,6.78,4.62,9.19l12.29,6.29c1.93,1.11,22.63,10.46,24.3,9.5l16.91,4.2c1.88,1.09,6.28.53,8.68.53,2.08,0,5.65-1.41,7.14-2.27l44.62-26.09,30.07-17.58c2-1.15,5-4,5-6,0-2.22.74-5.49-1.66-6.88l-14.16-18.72C172.75,239.25,160.54,229.68,158.61,228.56Z"/><path class="cls-15" d="M161.32,230.74a46.21,46.21,0,0,0-8.43-3.21c-.64-.11-1.27-.32-1.93-.43a18.94,18.94,0,0,0-8.83.58c-1,.06-5.13,2.09-5.85,2.51L92.71,254.8l-6.6,3.72L43.54,282.57c-1.61.92-5.85,4.17-6.07,5.76a5.84,5.84,0,0,0-.46.94c-1.32,3.16.23,6.7,4.4,9.1l11.88,6.07c2.14,1.24,21.68,9.83,23.53,8.76l16.32,3.39c1.73,1,6.16.26,8.36.26,1.91,0,5.5-1.48,6.87-2.27l43.12-25.17,29-17c1.83-1.05,4.9-3.87,4.9-5.73,0-2,1.09-5.27-1.11-6.54l-11.49-18C174.7,241.08,163.46,232,161.32,230.74Z"/><path class="cls-16" d="M164,232.91a52.35,52.35,0,0,0-8.33-3.24c-.63-.12-1.25-.34-1.9-.46a18.78,18.78,0,0,0-8.77.41c-1.09.06-5,1.95-5.81,2.41L96.05,256.42l-6.53,3.69L47.34,284c-1.46.84-5.94,4.15-6.13,5.59a5.79,5.79,0,0,0-.5.91c-1.45,3.09,0,6.62,4.17,9l11.47,5.84c2.36,1.36,20.74,9.2,22.78,8l15.73,2.58c1.57.9,6,0,8,0,1.74,0,5.36-1.55,6.6-2.27l41.61-24.25,28-16.35c1.66-1,4.84-3.75,4.84-5.43,0-1.85,1.44-5.05-.56-6.21l-8.82-17.3C176.65,242.91,166.39,234.27,164,232.91Z"/><path class="cls-17" d="M166.74,235.09a59,59,0,0,0-8.23-3.28c-.63-.12-1.24-.37-1.88-.5a18.93,18.93,0,0,0-8.69.24c-1.19.07-4.92,1.82-5.79,2.32L99.4,258.05l-6.47,3.66L51.15,285.33c-1.32.76-6,4.12-6.21,5.42a7.34,7.34,0,0,0-.53.88c-1.6,3-.21,6.53,4,8.94l11.06,5.61c2.57,1.49,19.79,8.57,22,7.29l15.14,1.75c1.41.82,5.9-.28,7.7-.28,1.56,0,5.21-1.61,6.33-2.26l40.1-23.34,27-15.73c1.5-.86,4.78-3.61,4.78-5.13s1.8-4.82,0-5.86L176.36,246C178.59,244.74,169.31,236.57,166.74,235.09Z"/><path class="cls-18" d="M169.45,237.26a68.23,68.23,0,0,0-8.14-3.31c-.61-.13-1.21-.39-1.84-.53a19,19,0,0,0-8.62.06c-1.29.08-4.83,1.69-5.76,2.23l-42.35,24-6.41,3.62L55,286.72c-1.17.67-6.11,4.09-6.27,5.24a7.42,7.42,0,0,0-.57.85c-1.74,2.95-.42,6.45,3.73,8.85l10.65,5.39c2.78,1.61,18.85,7.94,21.26,6.55l14.55.94c1.25.72,5.77-.55,7.37-.55,1.39,0,5.07-1.68,6.06-2.26l38.59-22.42,26-15.11c1.33-.77,4.72-3.48,4.72-4.83s2.15-4.61.54-5.53L178.12,248C180.54,246.57,172.23,238.87,169.45,237.26Z"/><path class="cls-19" d="M172.15,239.44a75.63,75.63,0,0,0-8-3.35c-.61-.13-1.19-.41-1.82-.56a18.84,18.84,0,0,0-8.54-.11,20.59,20.59,0,0,0-5.74,2.14L106.08,261.3l-6.34,3.6-41,23.2c-1,.59-6.19,4.07-6.33,5.08a6.6,6.6,0,0,0-.61.81c-1.88,2.87-.64,6.37,3.51,8.77l10.23,5.17c3,1.73,17.91,7.3,20.51,5.8l14,.12c1.1.64,5.64-.82,7-.82,1.22,0,4.92-1.74,5.79-2.25l37.08-21.5,25-14.5c1.16-.67,4.66-3.35,4.66-4.53s2.49-4.38,1.09-5.19l-.79-15.16C182.48,248.4,175.16,241.17,172.15,239.44Z"/><path class="cls-20" d="M174.86,241.61c-.77-.45-7-3.15-7.93-3.38-.6-.14-1.17-.43-1.79-.6a18.88,18.88,0,0,0-8.47-.28A19.08,19.08,0,0,0,151,239.4l-41.53,23.53-6.29,3.56-40.58,23c-.88.5-6.28,4-6.4,4.9a5.84,5.84,0,0,0-.65.78c-2,2.8-.86,6.29,3.29,8.69l9.82,4.94c3.21,1.85,17,6.67,19.75,5.06l13.36-.69c1,.55,5.52-1.09,6.72-1.09,1,0,4.78-1.81,5.52-2.24l35.57-20.6,24-13.88c1-.57,4.61-3.21,4.6-4.22s2.85-4.16,1.65-4.85l1.88-14.46C184.43,250.22,178.08,243.47,174.86,241.61Z"/><path class="cls-21" d="M177.57,243.79c-.65-.38-7-3.22-7.83-3.41-.6-.15-1.16-.46-1.77-.64a18.71,18.71,0,0,0-8.39-.45,17.64,17.64,0,0,0-5.69,2l-41.12,23.32-6.22,3.52L66.36,290.87c-.73.42-6.37,4-6.46,4.73a6,6,0,0,0-.69.75c-2.17,2.72-1.08,6.21,3.07,8.6l9.4,4.72c3.43,2,16,6,19,4.33l12.77-1.51c.79.45,5.39-1.36,6.39-1.36s4.63-1.88,5.26-2.24l34.06-19.68,23-13.26c.83-.48,4.54-3.08,4.54-3.93s3.2-3.93,2.2-4.51l4.55-13.74C186.38,252.05,181,245.77,177.57,243.79Z"/><path class="cls-22" d="M180.28,246c-.52-.3-7.1-3.28-7.73-3.44s-1.14-.48-1.74-.67a18.74,18.74,0,0,0-8.32-.63,16.41,16.41,0,0,0-5.66,1.86l-40.71,23.1-6.16,3.5L70.17,292.25c-.59.34-6.46,4-6.54,4.56a7,7,0,0,0-.72.72c-2.32,2.64-1.29,6.13,2.85,8.52l9,4.49c3.64,2.1,15.08,5.41,18.23,3.59l12.19-2.33c.63.37,5.26-1.63,6.06-1.63s4.49-1.95,5-2.23l32.55-18.76,21.95-12.65c.66-.38,4.48-2.95,4.48-3.62s3.55-3.71,2.75-4.17l7.22-13C188.32,253.88,183.92,248.07,180.28,246Z"/><path class="cls-23" d="M183,248.14c-.39-.23-7.15-3.44-7.64-3.48a13,13,0,0,0-1.71-.7,18.7,18.7,0,0,0-8.24-.8,15.2,15.2,0,0,0-5.63,1.76l-40.31,22.89-6.1,3.46L74,293.64c-.44.25-6.54,3.95-6.6,4.38a7.26,7.26,0,0,0-.76.69c-2.47,2.56-1.51,6.05,2.63,8.44l8.58,4.26c3.85,2.23,14.13,4.78,17.47,2.85l11.6-3.14c.47.27,5.13-1.9,5.73-1.9a36.43,36.43,0,0,0,4.72-2.23l31-17.84,20.93-12c.5-.29,4.43-2.82,4.43-3.32s3.9-3.49,3.29-3.84l9.9-12.32C190.27,255.71,186.85,250.37,183,248.14Z"/><path class="cls-24" d="M185.7,250.31c-.26-.15-7.21-3.48-7.54-3.51a13.35,13.35,0,0,0-1.68-.74,18.74,18.74,0,0,0-8.18-1,14.4,14.4,0,0,0-5.6,1.67l-39.89,22.67-6,3.44L77.78,295c-.3.17-6.63,3.93-6.67,4.22a5.8,5.8,0,0,0-.8.65c-2.62,2.47-1.73,6,2.41,8.35l8.16,4c4.07,2.35,13.2,4.15,16.72,2.11l11-3.95c.32.18,5-2.17,5.41-2.17a48.62,48.62,0,0,0,4.45-2.23L148,289.11l19.92-11.41c.33-.19,4.36-2.68,4.36-3s4.25-3.26,3.85-3.49l12.57-11.62C192.21,257.54,189.77,252.67,185.7,250.31Z"/><path class="cls-25" d="M188.41,252.49c-.13-.08-7.28-3.54-7.44-3.55a12.59,12.59,0,0,0-1.66-.77,18.68,18.68,0,0,0-8.1-1.15,13.44,13.44,0,0,0-5.57,1.59l-39.49,22.45-6,3.4-38.59,22c-.14.08-6.71,3.89-6.73,4a6.09,6.09,0,0,0-.84.62c-2.77,2.39-2,5.88,2.19,8.27L84,313.15c4.28,2.48,12.25,3.52,16,1.37l10.41-4.77c.16.09,4.88-2.44,5.08-2.44s4-2.15,4.18-2.22l28-16,18.91-10.8c.16-.09,4.3-2.55,4.3-2.71s4.6-3,4.4-3.16l15.24-10.9C194.16,259.36,192.69,255,188.41,252.49Z"/><path class="cls-26" d="M102.22,314.66l45-25.61,45-25.61c3.89-2.25,3.41-6.18-1.09-8.78l-7.34-3.58c-4.5-2.6-11.31-2.88-15.21-.63l-45,25.6-45,25.61c-3.9,2.25-3.41,6.18,1.09,8.78L87,314C91.51,316.62,98.32,316.91,102.22,314.66Z"/></g><path class="cls-27" d="M98.32,308.79l79.52-45.91c9-5.18,16.24-19.07,16.24-31V20.07c0-6.08,5-7.42,2-9.61-.11-.08-12.13-5.47-12.26-5.52-3.26-1.25-6.75-1.81-11,.64L93.28,51.49c-9,5.18-16.24,19.07-16.24,31V294.3c0,6.35,2.06,10.88,5.32,13,.2.12,13.65,6.34,13.87,6.41C99.12,314.64,94.4,311.06,98.32,308.79Z"/><path class="cls-28" d="M98.32,308.79l79.52-45.91c9-5.18,16.24-19.07,16.24-31V20.07c0-6.08,5-7.42,2-9.61-.11-.08-11.93-5.4-12.07-5.45-3.26-1.25-6.74-1.8-11,.64L93.48,51.56c-9,5.18-16.24,19.08-16.24,31V294.37c0,6.36,2.05,10.89,5.32,13,.19.12,13.45,6.27,13.67,6.34C99.12,314.64,94.4,311.06,98.32,308.79Z"/><path class="cls-29" d="M98.32,308.79l79.52-45.91c9-5.18,16.24-19.07,16.24-31V20.07c0-6.08,5-7.42,2-9.61-.11-.08-11.74-5.33-11.87-5.38-3.26-1.25-6.75-1.8-11,.64L93.68,51.63c-9,5.18-16.25,19.08-16.25,31V294.44c0,6.36,2.06,10.89,5.33,13,.19.13,13.25,6.2,13.47,6.27C99.12,314.64,94.4,311.06,98.32,308.79Z"/><path class="cls-30" d="M98.32,308.79l79.52-45.91c9-5.18,16.24-19.07,16.24-31V20.07c0-6.08,5-7.42,2-9.61-.11-.08-11.54-5.25-11.67-5.3-3.26-1.25-6.75-1.81-11,.64L93.87,51.71c-9,5.18-16.24,19.07-16.24,31V294.52c0,6.35,2.05,10.88,5.32,13,.2.12,13.06,6.12,13.28,6.19C99.12,314.64,94.4,311.06,98.32,308.79Z"/><path class="cls-31" d="M98.32,308.79l79.52-45.91c9-5.18,16.24-19.07,16.24-31V20.07c0-6.08,5-7.42,2-9.61-.11-.08-11.35-5.18-11.48-5.23-3.26-1.25-6.75-1.81-11,.64L94.07,51.78c-9,5.18-16.24,19.07-16.24,31V294.59c0,6.35,2,10.88,5.32,13,.19.12,12.86,6.05,13.08,6.12C99.12,314.64,94.4,311.06,98.32,308.79Z"/><path class="cls-32" d="M98.32,308.79l79.52-45.91c9-5.18,16.24-19.07,16.24-31V20.07c0-6.08,5-7.42,2-9.61-.11-.08-11.15-5.11-11.28-5.16-3.26-1.25-6.75-1.8-11,.64L94.26,51.85C85.29,57,78,70.93,78,82.89V294.66c0,6.36,2.06,10.89,5.33,13,.19.12,12.66,6,12.88,6.05C99.12,314.64,94.4,311.06,98.32,308.79Z"/><path class="cls-33" d="M98.32,308.79l79.52-45.91c9-5.18,16.24-19.07,16.24-31V20.07c0-6.08,5-7.42,2-9.61-.11-.08-11-5-11.09-5.09-3.26-1.24-6.74-1.8-11,.64L94.46,51.93C85.49,57.1,78.22,71,78.22,83V294.73c0,6.36,2,10.89,5.32,13,.19.13,12.47,5.91,12.69,6C99.12,314.64,94.4,311.06,98.32,308.79Z"/><path class="cls-34" d="M98.32,308.79l79.52-45.91c9-5.18,16.24-19.07,16.24-31V20.07c0-6.08,5-7.42,2-9.61-.11-.08-10.76-5-10.89-5-3.26-1.25-6.75-1.81-11,.64L94.66,52c-9,5.18-16.25,19.07-16.25,31V294.81c0,6.35,2.06,10.88,5.33,13,.19.12,12.27,5.83,12.49,5.9C99.12,314.64,94.4,311.06,98.32,308.79Z"/><path class="cls-35" d="M98.32,308.79l79.52-45.91c9-5.18,16.24-19.07,16.24-31V20.07c0-6.08,5-7.42,2-9.61-.11-.08-10.56-4.89-10.69-4.94-3.26-1.25-6.75-1.81-11,.64L94.85,52.07c-9,5.18-16.24,19.07-16.24,31V294.88c0,6.36,2,10.89,5.32,13,.2.12,12.08,5.76,12.3,5.83C99.12,314.64,94.4,311.06,98.32,308.79Z"/><path class="cls-36" d="M98.32,308.79l79.52-45.91c9-5.18,16.24-19.07,16.24-31V20.07c0-6.08,5-7.42,2-9.61-.11-.08-10.37-4.82-10.5-4.87-3.26-1.25-6.75-1.8-11,.64L95.05,52.14c-9,5.18-16.24,19.08-16.24,31V295c0,6.36,2,10.89,5.32,13,.19.12,11.88,5.69,12.1,5.76C99.12,314.64,94.4,311.06,98.32,308.79Z"/><path class="cls-37" d="M98.32,308.79l79.52-45.91c9-5.18,16.24-19.07,16.24-31V20.07c0-6.08,5-7.42,2-9.61-.11-.08-10.17-4.74-10.3-4.8-3.26-1.24-6.75-1.8-11,.64L95.24,52.22C86.27,57.4,79,71.29,79,83.25V295c0,6.35,2.06,10.88,5.33,13,.19.13,11.68,5.62,11.9,5.69C99.12,314.64,94.4,311.06,98.32,308.79Z"/><path class="cls-38" d="M98.32,308.79l79.52-45.91c9-5.18,16.24-19.07,16.24-31V20.07c0-6.08,5-7.42,2-9.61-.11-.08-10-4.67-10.11-4.72-3.26-1.25-6.74-1.81-11,.64L95.44,52.29c-9,5.18-16.24,19.07-16.24,31V295.1c0,6.35,2,10.88,5.32,13,.19.12,11.49,5.54,11.71,5.61C99.12,314.64,94.4,311.06,98.32,308.79Z"/><path class="cls-39" d="M98.32,308.79l79.52-45.91c9-5.18,16.24-19.07,16.24-31V20.07c0-6.08,5-7.42,2-9.61-.11-.08-9.78-4.6-9.91-4.65-3.26-1.25-6.75-1.81-11,.64L95.64,52.36c-9,5.18-16.25,19.07-16.25,31V295.17c0,6.36,2.06,10.89,5.33,13,.19.12,11.29,5.47,11.51,5.54C99.12,314.64,94.4,311.06,98.32,308.79Z"/><path class="cls-40" d="M98.32,308.79l79.52-45.91c9-5.18,16.24-19.07,16.24-31V20.07c0-6.08,5-7.42,2-9.61-.11-.08-9.58-4.53-9.71-4.58-3.26-1.25-6.75-1.8-11,.64L95.83,52.43c-9,5.18-16.24,19.08-16.24,31V295.24c0,6.36,2,10.89,5.32,13,.2.13,11.1,5.4,11.32,5.47C99.12,314.64,94.4,311.06,98.32,308.79Z"/><path class="cls-41" d="M98.32,308.79l79.52-45.91c9-5.18,16.24-19.07,16.24-31V20.07c0-6.08,5-7.42,2-9.61-.11-.08-9.39-4.45-9.52-4.5-3.26-1.25-6.75-1.81-11,.64L96,52.51c-9,5.18-16.24,19.07-16.24,31V295.32c0,6.35,2,10.88,5.32,13,.19.12,10.9,5.32,11.12,5.39C99.12,314.64,94.4,311.06,98.32,308.79Z"/><path class="cls-42" d="M98.32,308.79l79.52-45.91c9-5.18,16.24-19.07,16.24-31V20.07c0-6.08,5-7.42,2-9.61-.11-.08-9.19-4.38-9.32-4.43-3.26-1.25-6.75-1.81-11,.64L96.22,52.58c-9,5.18-16.24,19.07-16.24,31V295.39c0,6.35,2.06,10.88,5.33,13,.19.12,10.7,5.25,10.92,5.32C99.12,314.64,94.4,311.06,98.32,308.79Z"/><path class="cls-43" d="M98.32,308.79l79.52-45.91c9-5.18,16.24-19.07,16.24-31V20.07c0-6.08,5-7.42,2-9.61-.11-.08-9-4.31-9.13-4.36-3.26-1.25-6.74-1.8-11,.64L96.42,52.65c-9,5.18-16.24,19.08-16.24,31V295.46c0,6.36,2,10.89,5.32,13,.19.12,10.51,5.18,10.73,5.25C99.12,314.64,94.4,311.06,98.32,308.79Z"/><path class="cls-44" d="M98.32,308.79l79.52-45.91c9-5.18,16.24-19.07,16.24-31V20.07c0-6.08,5-7.42,2-9.61-.11-.08-8.8-4.24-8.93-4.29-3.26-1.25-6.75-1.8-11,.64L96.62,52.72c-9,5.18-16.25,19.08-16.25,31V295.53c0,6.36,2.06,10.89,5.33,13,.19.13,10.31,5.11,10.53,5.18C99.12,314.64,94.4,311.06,98.32,308.79Z"/><path class="cls-45" d="M98.32,308.79l79.52-45.91c9-5.18,16.24-19.07,16.24-31V20.07c0-6.08,5-7.42,2-9.61-.11-.08-8.6-4.16-8.73-4.21-3.26-1.25-6.75-1.81-11,.64L96.81,52.8c-9,5.18-16.24,19.07-16.24,31V295.61c0,6.35,2.05,10.88,5.32,13,.2.12,10.12,5,10.34,5.1C99.12,314.64,94.4,311.06,98.32,308.79Z"/><path class="cls-46" d="M98.32,308.79l79.52-45.91c9-5.18,16.24-19.07,16.24-31V20.07c0-6.08,5-7.42,2-9.61-.11-.08-8.41-4.09-8.54-4.14-3.26-1.25-6.75-1.81-11,.64L97,52.87c-9,5.18-16.24,19.07-16.24,31V295.68c0,6.35,2,10.88,5.32,13,.19.12,9.92,5,10.14,5C99.12,314.64,94.4,311.06,98.32,308.79Z"/><path class="cls-47" d="M98.32,308.79l79.52-45.91c9-5.18,16.24-19.07,16.24-31V20.07c0-6.08,5-7.42,2-9.61-.11-.08-8.21-4-8.34-4.07-3.26-1.25-6.75-1.8-11,.64L97.2,52.94C88.23,58.12,81,72,81,84V295.75c0,6.36,2.06,10.89,5.33,13,.19.12,9.72,4.89,9.94,5C99.12,314.64,94.4,311.06,98.32,308.79Z"/><path class="cls-48" d="M98.32,308.79l79.52-45.91c9-5.18,16.24-19.07,16.24-31V20.07c0-6.08,5-7.42,2-9.61-.11-.08-8-4-8.15-4-3.26-1.24-6.74-1.8-11,.64L97.4,53c-9,5.17-16.24,19.07-16.24,31V295.82c0,6.36,2,10.89,5.32,13,.19.13,9.53,4.82,9.75,4.89C99.12,314.64,94.4,311.06,98.32,308.79Z"/><path class="cls-49" d="M105.91,312.38l79.52-45.91c9-5.18,16.25-19.07,16.25-31V23.66c0-12-7.28-17.46-16.25-12.28L105.91,57.3c-9,5.17-16.24,19.07-16.24,31V300.1C89.67,312.06,96.94,317.56,105.91,312.38Z"/><path class="cls-50" d="M99.46,312.72a11.44,11.44,0,0,0,5.65-1.73l79.52-45.91c8.51-4.92,15.44-18.21,15.44-29.64V23.66c0-7.66-3.22-12.62-8.19-12.62a11.43,11.43,0,0,0-5.64,1.74L106.72,58.69C98.2,63.6,91.28,76.9,91.28,88.33V300.1C91.28,307.77,94.49,312.72,99.46,312.72Z"/><path class="cls-27" d="M196.3,238.14v-211c0-8.77-5.34-12.81-11.92-9L107,62.86c-6.59,3.8-11.92,14-11.92,22.77v211c0,8.78,5.33,12.81,11.92,9l77.41-44.69C191,257.11,196.3,246.91,196.3,238.14Z"/><path class="cls-51" d="M183.48,20.5c6.21-3.58,11.23-.72,11.23,6.4V240.24c0,7.11-5,15.79-11.23,19.37l-75.62,43.66c-6.2,3.58-11.23.71-11.23-6.4V83.53c0-7.12,5-15.79,11.23-19.37Z"/><path class="cls-52" d="M83.57,157.93h0c2.28,1.32,4.13-.08,4.13-3.13V137.57c0-3-1.85-6.57-4.13-7.89h0c-2.28-1.32-4.13.08-4.13,3.12V150C79.44,153.08,81.29,156.61,83.57,157.93Z"/><path class="cls-49" d="M117.31,70.19c0-.46-.33-.65-.73-.42l-10.49,6.06a1.6,1.6,0,0,0-.73,1.25c0,.46.33.64.73.41l10.49-6.06A1.6,1.6,0,0,0,117.31,70.19Zm-12,10.63c0,.45.33.64.73.41l10.49-6.06a1.6,1.6,0,0,0,.73-1.25c0-.46-.33-.64-.73-.41l-10.49,6.06A1.6,1.6,0,0,0,105.36,80.82Zm0,3.73c0,.46.33.65.73.42l10.49-6.06a1.6,1.6,0,0,0,.73-1.25c0-.46-.33-.64-.73-.41l-10.49,6A1.62,1.62,0,0,0,105.36,84.55Z"/><path class="cls-53" d="M106.36,259.37a11.18,11.18,0,0,1-2.08-7.05V118.85c0-8.33,5.9-18.51,13.15-22.7l58.78-33.83a12.17,12.17,0,0,1,6-1.84c4.62,0,7.61,3.79,7.61,9.64V203.58c0,8.33-5.9,18.51-13.16,22.7l-58.77,33.83a12.17,12.17,0,0,1-6,1.84h0A6.86,6.86,0,0,1,106.36,259.37ZM176.7,63.19,117.93,97c-7,4-12.65,13.82-12.65,21.83V252.32a10.17,10.17,0,0,0,1.86,6.42,5.89,5.89,0,0,0,4.75,2.21h0a11.34,11.34,0,0,0,5.54-1.71l58.78-33.82c7-4,12.65-13.83,12.65-21.84V70.12c0-5.33-2.53-8.64-6.61-8.64A11.27,11.27,0,0,0,176.7,63.19Z"/><g class="cls-54"><path class="cls-55" d="M213.8,27.36c7.9-4.56,14.3-.91,14.3,8.14V189.07c0,9.06-6.4,20.09-14.3,24.65L140,256.1c-7.89,4.56-17.45.41-17.45-8.65V93.89c0-9.06,9.56-19.6,17.45-24.15Z"/><path class="cls-56" d="M214,27.61c7.88-4.55,14.27-.9,14.27,8.14v153c0,9-6.39,20.07-14.27,24.62l-73.54,42.25c-7.88,4.55-17.15.45-17.15-8.6V94c0-9,9.27-19.61,17.15-24.16Z"/><path class="cls-57" d="M214.15,27.87C222,23.32,228.41,27,228.41,36V188.36c0,9-6.39,20-14.26,24.58l-73.3,42.11c-7.88,4.55-16.85.5-16.85-8.53V94.16c0-9,9-19.64,16.85-24.18Z"/><path class="cls-58" d="M214.32,28.13c7.87-4.54,14.24-.91,14.24,8.11V188c0,9-6.37,20-14.24,24.56l-73.07,42c-7.86,4.54-16.53.54-16.53-8.48V94.29c0-9,8.67-19.65,16.53-24.19Z"/><path class="cls-59" d="M214.5,28.38c7.85-4.53,14.22-.9,14.22,8.11V187.64c0,9-6.37,20-14.22,24.53L141.66,254c-7.85,4.53-16.23.58-16.23-8.43V94.43c0-9,8.38-19.68,16.23-24.21Z"/><path class="cls-60" d="M214.67,28.64c7.84-4.53,14.2-.91,14.2,8.09V187.29c0,9-6.36,20-14.2,24.49l-72.6,41.7c-7.84,4.53-15.93.63-15.93-8.37V94.56c0-9,8.09-19.69,15.93-24.22Z"/><path class="cls-61" d="M214.84,28.89C222.67,24.37,229,28,229,37v150c0,9-6.35,19.94-14.18,24.46L142.48,253c-7.84,4.52-15.63.67-15.63-8.32V94.7c0-9,7.79-19.72,15.63-24.24Z"/><path class="cls-62" d="M215,29.15c7.83-4.52,14.17-.9,14.17,8.08V186.57c0,9-6.34,19.92-14.17,24.43l-72.13,41.43c-7.82,4.52-15.31.72-15.31-8.25V94.83c0-9,7.49-19.73,15.31-24.25Z"/><path class="cls-63" d="M215.19,29.41c7.81-4.52,14.14-.9,14.14,8.06V186.21c0,9-6.33,19.89-14.14,24.41l-71.9,41.29c-7.81,4.51-15,.76-15-8.2V95c0-9,7.2-19.76,15-24.27Z"/><path class="cls-64" d="M215.36,29.66c7.8-4.5,14.13-.9,14.13,8.06V185.86c0,8.95-6.33,19.86-14.13,24.37L143.7,251.39c-7.81,4.5-14.71.8-14.71-8.15V95.1c0-8.95,6.9-19.77,14.71-24.28Z"/><path class="cls-65" d="M215.53,29.92c7.8-4.5,14.11-.9,14.11,8V185.5c0,8.94-6.31,19.84-14.11,24.34l-71.43,41c-7.79,4.5-14.39.85-14.39-8.09V95.23c0-8.94,6.6-19.79,14.39-24.29Z"/><path class="cls-26" d="M215.71,30.17c7.78-4.49,14.09-.89,14.09,8V185.14c0,8.93-6.31,19.82-14.09,24.31l-71.2,40.89c-7.78,4.49-14.09.9-14.09-8V95.37c0-8.93,6.31-19.81,14.09-24.31Z"/></g><path class="cls-66" d="M130.44,94.46c0-9,6.33-19.88,14.14-24.39L216.11,29c7.81-4.51,14.14-.9,14.14,8.06V146.57l-99.81,57.35Z"/><path class="cls-67" d="M216.11,216.4l-71.53,41.07c-7.81,4.51-14.14.9-14.14-8.06V203.92l99.81-57.35V192C230.25,201,223.92,211.89,216.11,216.4Z"/><path class="cls-68" d="M216.11,216.4l-71.53,41.07c-7.81,4.51-14.14.9-14.14-8.06V203.92l99.81-57.35V192C230.25,201,223.92,211.89,216.11,216.4Z"/><path class="cls-69" d="M144.58,70.07,216.11,29c7.81-4.51,14.14-.9,14.14,8.06v1.37c0-9-6.33-12.58-14.14-8.07L144.58,71.44c-7.81,4.51-14.14,15.43-14.14,24.39V94.46C130.44,85.5,136.77,74.58,144.58,70.07Z"/><ellipse class="cls-70" cx="180.62" cy="216.19" rx="14.71" ry="33.68"/><ellipse class="cls-49" cx="254.55" cy="133.85" rx="19.7" ry="11.37" transform="translate(10.53 286.05) rotate(-59.69)"/><path class="cls-71" d="M240.08,141.91c0-9,6.37-20,14.22-24.53a13.11,13.11,0,0,1,6.52-2c5,0,8.2,4.07,8.2,10.38,0,9-6.38,20-14.22,24.53a13.19,13.19,0,0,1-6.52,2C243.29,152.3,240.08,148.22,240.08,141.91Zm14.72-23.66c-7.57,4.37-13.72,15-13.72,23.66,0,5.79,2.75,9.39,7.2,9.39a12.22,12.22,0,0,0,6-1.86c7.56-4.36,13.72-15,13.72-23.66,0-5.79-2.76-9.38-7.2-9.38A12.14,12.14,0,0,0,254.8,118.25Z"/><ellipse class="cls-49" cx="32.83" cy="160.79" rx="19.7" ry="11.37" transform="translate(-122.55 107.98) rotate(-59.69)"/><path class="cls-72" d="M18.36,168.85c0-9,6.38-20,14.22-24.53a13.24,13.24,0,0,1,6.52-2c5,0,8.2,4.07,8.2,10.38,0,9-6.38,20-14.22,24.53a13.16,13.16,0,0,1-6.52,2C21.58,179.24,18.36,175.16,18.36,168.85Zm14.72-23.66c-7.57,4.37-13.72,15-13.72,23.66,0,5.79,2.76,9.39,7.2,9.39a12.3,12.3,0,0,0,6-1.85c7.56-4.37,13.72-15,13.72-23.67,0-5.79-2.76-9.38-7.2-9.38A12.17,12.17,0,0,0,33.08,145.19Z"/><path class="cls-73" d="M24.7,162.34l4.72-2.72V154.2a1.67,1.67,0,0,1,.75-1.29l4.3-2.48c.42-.24.75-.05.75.42v5.42l4.72-2.73c.42-.24.75,0,.75.43v4.93a1.64,1.64,0,0,1-.75,1.3l-4.72,2.73v5.41a1.64,1.64,0,0,1-.75,1.3l-4.3,2.48c-.41.24-.75,0-.75-.43v-5.41L24.7,169c-.41.24-.75.05-.75-.43v-4.93A1.67,1.67,0,0,1,24.7,162.34Z"/><path class="cls-74" d="M246.8,137.6,256.65,124c.88-1.23,2.11-1.2,2.11,0v15.93c0,1.24-1.23,2.68-2.11,2.47l-9.85-2.28C246,139.94,246,138.65,246.8,137.6Z"/><path class="cls-75" d="M140.27,138.86c0-25.62,18.16-56.94,40.49-69.83s40.49-2.54,40.49,23.08-18.17,57-40.49,69.84S140.27,164.48,140.27,138.86Zm2.46-1.42c0,24.07,17.06,33.8,38,21.69s38-41.54,38-65.6-17.06-33.79-38-21.69S142.73,113.38,142.73,137.44Z"/><path class="cls-75" d="M145.88,135.62c0-22.07,15.65-49.05,34.88-60.16s34.88-2.18,34.88,19.89S200,144.41,180.76,155.51,145.88,157.69,145.88,135.62Zm2.45-1.41c0,20.51,14.55,28.81,32.43,18.48s32.42-35.41,32.42-55.92S198.64,68,180.76,78.28,148.33,113.69,148.33,134.21Z"/><path class="cls-75" d="M151.49,132.39c0-18.53,13.13-41.17,29.27-50.49S210,80.07,210,98.59s-13.13,41.17-29.27,50.48S151.49,150.91,151.49,132.39Zm2.45-1.42c0,17,12,23.82,26.82,15.29S207.57,117,207.57,100s-12-23.82-26.81-15.28S153.94,114,153.94,131Z"/><path class="cls-76" d="M180.76,162c22.32-12.89,40.49-44.22,40.49-69.84,0-9.44-2.46-17.12-7.1-22.19-.39-.42-1.15-.14-1.71.62s-.7,1.73-.32,2.15c4.37,4.76,6.67,12,6.67,20.84,0,24.06-17.06,53.49-38,65.6a2.7,2.7,0,0,0-1.23,2.12C179.53,162,180.08,162.34,180.76,162Z"/><path class="cls-77" d="M180.76,155.51c19.23-11.1,34.88-38.09,34.88-60.16s-15.65-31-34.88-19.89a2.7,2.7,0,0,0-1.23,2.12c0,.78.55,1.09,1.23.7,17.88-10.32,32.42-2,32.42,18.49s-14.54,45.6-32.42,55.92a2.7,2.7,0,0,0-1.23,2.12C179.53,155.59,180.08,155.9,180.76,155.51Z"/><path class="cls-78" d="M180.76,149.07c16.14-9.31,29.27-32,29.27-50.48s-13.13-26-29.27-16.69c-8.84,5.1-17.12,14.4-22.71,25.5-.43.85-.35,1.69.18,1.88s1.3-.35,1.72-1.2c5.13-10.17,12.71-18.69,20.81-23.36C195.54,76.18,207.57,83,207.57,100s-12,37.72-26.81,46.26a2.7,2.7,0,0,0-1.23,2.11C179.53,149.15,180.08,149.47,180.76,149.07Z"/><path class="cls-79" d="M178.44,149c0,1.3.91,1.82,2,1.17a4.51,4.51,0,0,0,2.05-3.53c0-1.3-.92-1.82-2.05-1.17A4.53,4.53,0,0,0,178.44,149Z"/><path class="cls-80" d="M178.44,155.46c0,1.3.91,1.82,2,1.17a4.54,4.54,0,0,0,2.05-3.53c0-1.3-.92-1.82-2.05-1.17A4.49,4.49,0,0,0,178.44,155.46Z"/><path class="cls-81" d="M178.44,162c0,1.3.91,1.82,2,1.17a4.54,4.54,0,0,0,2.05-3.53c0-1.3-.92-1.82-2.05-1.17A4.49,4.49,0,0,0,178.44,162Z"/><g class="cls-54"><path class="cls-5" d="M135.72,103.52c7.9-4.56,14.29-.91,14.29,8.14v81.7c0,9.06-6.39,20.09-14.29,24.65L69.08,256.37c-7.89,4.56-17.45.41-17.45-8.65V166c0-9.06,9.56-19.59,17.45-24.15Z"/><path class="cls-82" d="M135.9,103.77c7.88-4.55,14.27-.91,14.27,8.14V193c0,9.05-6.39,20.07-14.27,24.62L69.49,255.85c-7.88,4.55-17.15.45-17.15-8.59v-81.1c0-9,9.27-19.61,17.15-24.16Z"/><path class="cls-83" d="M136.07,104c7.87-4.55,14.25-.91,14.25,8.13v80.48c0,9-6.38,20.05-14.25,24.59L69.9,255.33c-7.88,4.54-16.85.49-16.85-8.54V166.3c0-9,9-19.63,16.85-24.18Z"/><path class="cls-84" d="M136.24,104.28c7.86-4.54,14.24-.9,14.24,8.12v79.89c0,9-6.38,20-14.24,24.55l-65.94,38c-7.86,4.54-16.53.54-16.53-8.48V166.43c0-9,8.67-19.65,16.53-24.19Z"/><path class="cls-85" d="M136.41,104.54c7.86-4.53,14.22-.9,14.22,8.11v79.28c0,9-6.36,20-14.22,24.53l-65.7,37.82c-7.85,4.53-16.23.58-16.23-8.43V166.57c0-9,8.38-19.67,16.23-24.21Z"/><path class="cls-86" d="M136.59,104.8c7.84-4.53,14.2-.91,14.2,8.09v78.68c0,9-6.36,20-14.2,24.5L71.12,253.75c-7.85,4.53-15.93.63-15.93-8.36V166.7c0-9,8.08-19.69,15.93-24.22Z"/><path class="cls-87" d="M136.76,105.05c7.83-4.52,14.18-.9,14.18,8.09v78.08c0,9-6.35,19.94-14.18,24.46L71.52,253.23c-7.83,4.52-15.62.68-15.62-8.31V166.84c0-9,7.79-19.71,15.62-24.24Z"/><path class="cls-88" d="M136.93,105.31c7.83-4.52,14.17-.9,14.17,8.07v77.48c0,9-6.34,19.92-14.17,24.43l-65,37.42c-7.82,4.51-15.31.72-15.31-8.26V167c0-9,7.49-19.73,15.31-24.25Z"/><path class="cls-89" d="M137.11,105.56c7.81-4.51,14.14-.89,14.14,8.07V190.5c0,9-6.33,19.89-14.14,24.4L72.34,252.18c-7.81,4.51-15,.77-15-8.2V167.11c0-9,7.2-19.75,15-24.27Z"/><path class="cls-90" d="M137.28,105.82c7.8-4.5,14.13-.9,14.13,8.06v76.27c0,8.95-6.33,19.86-14.13,24.37L72.75,251.66c-7.81,4.5-14.71.81-14.71-8.15V167.24c0-9,6.9-19.77,14.71-24.28Z"/><path class="cls-91" d="M137.45,106.08c7.79-4.5,14.11-.9,14.11,8v75.67c0,8.94-6.32,19.84-14.11,24.34l-64.3,37c-7.79,4.5-14.4.85-14.4-8.09V167.38c0-8.94,6.61-19.8,14.4-24.29Z"/><path class="cls-26" d="M137.62,106.33c7.79-4.49,14.1-.89,14.1,8v75.06c0,8.93-6.31,19.82-14.1,24.31L73.56,250.61c-7.78,4.5-14.09.9-14.09-8V167.51c0-8.93,6.31-19.81,14.09-24.3Z"/></g><path class="cls-92" d="M59.49,166.61c0-9,6.33-19.88,14.14-24.39L138,105.16c7.81-4.51,14.15-.9,14.15,8.06V132.3L59.49,185.64Z"/><path class="cls-66" d="M138,220.69,73.63,257.75c-7.81,4.51-14.14.9-14.14-8.07v-64l92.68-53.34v64C152.17,205.26,145.83,216.18,138,220.69Z"/><path class="cls-93" d="M73.63,142.22,138,105.16c7.81-4.51,14.15-.9,14.15,8.06v1.37c0-9-6.34-12.58-14.15-8.07L73.63,143.58C65.82,148.09,59.49,159,59.49,168v-1.37C59.49,157.65,65.82,146.73,73.63,142.22Z"/><ellipse class="cls-94" cx="132.61" cy="127.11" rx="16.18" ry="26.77"/><ellipse class="cls-95" cx="127.56" cy="146.52" rx="19.7" ry="11.37" transform="translate(-63.31 182.7) rotate(-59.69)"/><path class="cls-96" d="M127.56,130.49c-7.71,4.45-14,15.24-14,24.09s6.26,12.42,14,8Z"/><path class="cls-49" d="M120.45,159.2a1.31,1.31,0,0,1-.26-.81v-2.53a6.68,6.68,0,0,1,2.29-4.69,10.71,10.71,0,0,0,2.2-2.64,1.91,1.91,0,0,0,.23-.67,3.59,3.59,0,0,1-1.23-1.22,1.25,1.25,0,0,1-1.2-1.28,3,3,0,0,1,.6-1.77,8,8,0,0,1,4.07-6.9,4.76,4.76,0,0,1,2.3-.76c1,0,2.16.55,2.4,3.07a1.48,1.48,0,0,1,.63,1.34,3.28,3.28,0,0,1-1,2,13.92,13.92,0,0,1-1.2,2.67,1.29,1.29,0,0,0-.2.71,2.56,2.56,0,0,0,1.78,0c1.61-.49,2.9.61,2.9,2.43v2.53a2.37,2.37,0,0,1-1.09,1.9l-11.73,6.77a1.31,1.31,0,0,1-.67.19A1,1,0,0,1,120.45,159.2ZM132.24,147a3.73,3.73,0,0,1-2.83-.14,1.22,1.22,0,0,1-.57-.72,2.4,2.4,0,0,1,.31-1.76,12.5,12.5,0,0,0,1.14-2.57l.05-.17.14-.13a2.11,2.11,0,0,0,.7-1.17c0-.06,0-.11,0-.15l-.55.13,0-.78c-.1-2.31-.89-2.31-1.14-2.31a3.45,3.45,0,0,0-1.65.59,6.76,6.76,0,0,0-3.43,6.06v.27l-.2.18a2,2,0,0,0-.43,1l.67-.15.23.5a2.32,2.32,0,0,0,.94,1,1.2,1.2,0,0,1,.55.77,2.3,2.3,0,0,1-.32,1.69,12.18,12.18,0,0,1-2.47,3,5.33,5.33,0,0,0-1.84,3.7v2.28L133,151.49a1.07,1.07,0,0,0,.44-.77v-2.53c0-.37-.08-1.25-.83-1.25A1.43,1.43,0,0,0,132.24,147Z"/><polygon class="cls-97" points="70.07 219.51 141.88 177.97 141.88 160.96 70.07 202.5 70.07 219.51"/><polygon class="cls-27" points="140.06 177.28 140.06 162.01 141.88 160.96 141.88 177.97 70.07 219.51 70.07 217.78 140.06 177.28"/><polygon class="cls-97" points="70.07 242.55 141.88 201 141.88 183.99 70.07 225.54 70.07 242.55"/><polygon class="cls-27" points="140.06 200.32 140.06 185.04 141.88 183.99 141.88 201 70.07 242.54 70.07 240.81 140.06 200.32"/><path class="cls-75" d="M167,125.93l-3.38,4.33a2.38,2.38,0,0,0-.56,2,12.31,12.31,0,0,0,1.18,2.56c.26.43.84.38,1.4-.1l3.85-3.28a6.65,6.65,0,0,0,3,1.7l-.92,5c-.13.71.12,1.24.62,1.25A12.75,12.75,0,0,0,175,139a2.39,2.39,0,0,0,1.43-1.46l2.08-5.08a16.64,16.64,0,0,0,2.1-1,21.64,21.64,0,0,0,2.11-1.42l2.08,2.68c.29.39.89.32,1.43-.19a37.92,37.92,0,0,0,2.82-3,2.5,2.5,0,0,0,.62-2l-.93-3.89a33.36,33.36,0,0,0,3-5.14l3.86-1.17a2.47,2.47,0,0,0,1.4-1.52,36.25,36.25,0,0,0,1.17-3.91c.18-.72-.06-1.26-.55-1.32l-3.38-.43a21.81,21.81,0,0,0,.18-2.52,16.81,16.81,0,0,0-.18-2.32l3.38-4.33a2.33,2.33,0,0,0,.55-2A12,12,0,0,0,197,96.53c-.26-.43-.85-.37-1.4.1l-3.86,3.28a6.6,6.6,0,0,0-3-1.7l.93-4.95c.13-.72-.12-1.25-.62-1.25a12.15,12.15,0,0,0-2.82.28,2.37,2.37,0,0,0-1.43,1.46l-2.08,5.08a16.1,16.1,0,0,0-2.11,1,20.37,20.37,0,0,0-2.1,1.42l-2.08-2.68c-.3-.39-.89-.32-1.43.19a39.78,39.78,0,0,0-2.82,3,2.5,2.5,0,0,0-.62,2l.92,3.89a34.19,34.19,0,0,0-3,5.14l-3.85,1.17a2.47,2.47,0,0,0-1.4,1.52,38.74,38.74,0,0,0-1.18,3.91c-.17.72.07,1.26.56,1.32l3.38.43a19.79,19.79,0,0,0-.18,2.52A15.38,15.38,0,0,0,167,125.93Zm8.07-7.08a12.22,12.22,0,0,1,5.53-9.55c3.06-1.76,5.54-.35,5.54,3.16a12.2,12.2,0,0,1-5.54,9.55C177.58,123.77,175.1,122.36,175.1,118.85Z"/><g class="cls-54"><path class="cls-98" d="M194.51,179.39c5.33-3.08,9.66-.61,9.66,5.51V199c0,6.12-4.33,13.58-9.66,16.66l-35.18,20.49c-5.34,3.08-11.8.27-11.8-5.85V216.21c0-6.12,6.46-13.24,11.8-16.32Z"/><path class="cls-99" d="M194.79,179.82c5.31-3.06,9.62-.61,9.62,5.49v13.45c0,6.09-4.31,13.52-9.62,16.58l-34.86,20.31c-5.31,3.06-11.55.3-11.55-5.79V216.4c0-6.09,6.24-13.2,11.55-16.27Z"/><path class="cls-100" d="M195.08,180.26c5.28-3,9.57-.61,9.57,5.45v12.78c0,6.06-4.29,13.44-9.57,16.49l-34.54,20.13c-5.29,3-11.32.33-11.32-5.73V216.6c0-6.06,6-13.17,11.32-16.22Z"/><path class="cls-101" d="M195.37,180.69c5.25-3,9.51-.61,9.51,5.42v12.1c0,6-4.26,13.38-9.51,16.42l-34.23,19.94c-5.26,3-11.07.36-11.07-5.67V216.8c0-6,5.81-13.14,11.07-16.17Z"/><path class="cls-102" d="M195.65,181.12c5.23-3,9.47-.61,9.47,5.4v11.42c0,6-4.24,13.31-9.47,16.33L161.74,234c-5.23,3-10.83.39-10.83-5.61V217c0-6,5.6-13.11,10.83-16.12Z"/><path class="cls-103" d="M195.94,181.55c5.2-3,9.42-.6,9.42,5.37v10.74c0,6-4.22,13.25-9.42,16.26l-33.59,19.57c-5.21,3-10.59.42-10.59-5.56V217.19c0-6,5.38-13.06,10.59-16.07Z"/><path class="cls-104" d="M196.23,182c5.18-3,9.37-.6,9.37,5.34v10.07c0,5.94-4.19,13.18-9.37,16.17L163,233c-5.18,3-10.35.44-10.35-5.5V217.39c0-5.94,5.17-13,10.35-16Z"/><path class="cls-105" d="M196.51,182.41c5.16-3,9.33-.6,9.33,5.32v9.38c0,5.91-4.17,13.12-9.33,16.09l-32.95,19.21c-5.16,3-10.11.47-10.11-5.44v-9.38c0-5.92,5-13,10.11-16Z"/><path class="cls-106" d="M196.8,182.84c5.13-3,9.28-.59,9.28,5.29v8.71c0,5.88-4.15,13-9.28,16l-32.64,19c-5.13,3-9.86.5-9.86-5.38v-8.71c0-5.88,4.73-13,9.86-15.92Z"/><path class="cls-107" d="M197.09,183.27c5.1-3,9.23-.59,9.23,5.26v8c0,5.85-4.13,13-9.23,15.93l-32.33,18.84c-5.1,2.95-9.62.53-9.62-5.32v-8c0-5.85,4.52-12.92,9.62-15.87Z"/><path class="cls-108" d="M197.37,183.7c5.08-2.93,9.19-.59,9.19,5.24v7.35c0,5.82-4.11,12.91-9.19,15.84l-32,18.66c-5.08,2.93-9.38.56-9.38-5.27v-7.34c0-5.83,4.3-12.89,9.38-15.82Z"/><path class="cls-26" d="M197.66,184.13c5.05-2.92,9.14-.58,9.14,5.21V196c0,5.79-4.09,12.85-9.14,15.77L166,230.25c-5.05,2.92-9.14.59-9.14-5.21v-6.67c0-5.79,4.09-12.85,9.14-15.76Z"/></g><path class="cls-109" d="M159.85,235.75l40.5-23.55c4.36-2.52,7.93-9.34,7.93-15.16v-8.59c0-5.82-3.57-8.52-7.93-6L159.85,206c-4.37,2.52-7.94,9.34-7.94,15.16v8.59C151.91,235.57,155.48,238.27,159.85,235.75Z"/><path class="cls-110" d="M159.85,206l40.5-23.56c4.36-2.52,7.93.18,7.93,6v.89c0-5.82-3.57-8.52-7.93-6l-40.5,23.56c-4.37,2.52-7.94,9.34-7.94,15.16v-.89C151.91,215.35,155.48,208.53,159.85,206Z"/><path class="cls-111" d="M159.85,206l20.78-12.09v29.75l-20.78,12.08c-4.37,2.52-7.94-.18-7.94-6v-8.59C151.91,215.35,155.48,208.53,159.85,206Z"/><path class="cls-27" d="M165.76,120.93l-2.11-.27c-.37,0-.59-.36-.61-.82l2.79.35C165.8,120.44,165.78,120.68,165.76,120.93Z"/><path class="cls-27" d="M177.33,100.37l-1.56-2a.65.65,0,0,1,.68.22l1.2,1.55Z"/><path class="cls-27" d="M171.31,132.2l-.08.41a6.4,6.4,0,0,1-1.56-1.08A6.57,6.57,0,0,0,171.31,132.2Z"/><path class="cls-27" d="M188.84,97.81a7.28,7.28,0,0,0-1.27-.5l.92-5a1.88,1.88,0,0,0,0-.33,5.24,5.24,0,0,1,.56,0c.5,0,.75.53.62,1.25Z"/><path class="cls-27" d="M185.05,131.64a37.92,37.92,0,0,0,2.82-3,2.45,2.45,0,0,0,.62-2l-.92-3.89a34.29,34.29,0,0,0,3-5.15l3.85-1.16a2.47,2.47,0,0,0,1.4-1.52,38.15,38.15,0,0,0,1.18-3.92,1.77,1.77,0,0,0,.05-.5l.59.08c.49.06.73.6.55,1.32a36.25,36.25,0,0,1-1.17,3.91,2.47,2.47,0,0,1-1.4,1.52l-3.86,1.17a33.36,33.36,0,0,1-3,5.14l.93,3.89a2.5,2.5,0,0,1-.62,2,37.92,37.92,0,0,1-2.82,3c-.54.51-1.14.58-1.43.19l-.52-.67A1.55,1.55,0,0,0,185.05,131.64Z"/><path class="cls-27" d="M173.82,138.13a2.4,2.4,0,0,0,1.43-1.46l2.08-5.08a16.21,16.21,0,0,0,2.11-1,20,20,0,0,0,2.11-1.42l.87,1.13a19.83,19.83,0,0,1-1.79,1.19,16.64,16.64,0,0,1-2.1,1l-2.08,5.08A2.39,2.39,0,0,1,175,139a12.75,12.75,0,0,1-2.82.29c-.42,0-.65-.39-.64-.93A12.91,12.91,0,0,0,173.82,138.13Z"/><path class="cls-27" d="M164.47,133.79l3.86-3.29a6.4,6.4,0,0,0,1.17.92l-3.83,3.26c-.56.48-1.14.53-1.4.1-.13-.21-.24-.45-.36-.68A1.66,1.66,0,0,0,164.47,133.79Z"/><path class="cls-27" d="M194.24,105.38a16.81,16.81,0,0,1,.18,2.32c0,.58,0,1.18-.11,1.78l-1.27-.16a19.67,19.67,0,0,0,.18-2.52,15.49,15.49,0,0,0-.18-2.32l3.38-4.33a2.37,2.37,0,0,0,.56-2,12.84,12.84,0,0,0-.82-1.88.66.66,0,0,1,.84.22,12,12,0,0,1,1.17,2.56,2.33,2.33,0,0,1-.55,2Z"/><path class="cls-27" d="M190.4,98.89l.17.11,0,0Z"/><path class="cls-49" d="M109.79,241.48l3.54,3.72c.32.34,0,1.24-.55,1.56l-7.09,4.09c-.55.32-.88-.21-.56-.91l3.54-7.82C109,241.52,109.52,241.19,109.79,241.48Z"/><path class="cls-112" d="M176.76,212.25c0,2.36,1.67,3.31,3.72,2.12a8.2,8.2,0,0,0,3.73-6.42c0-2.37-1.67-3.32-3.73-2.13A8.24,8.24,0,0,0,176.76,212.25Z"/><path class="cls-113" d="M246.8,137.6l7.08-9.81v14l-7.08-1.64C246,139.94,246,138.65,246.8,137.6Z"/><path class="cls-114" d="M24.7,162.34l4.72-2.72V154.2a1.67,1.67,0,0,1,.75-1.29l2.21-1.28v19.22l-2.21,1.27c-.41.24-.75,0-.75-.43v-5.41L24.7,169c-.41.24-.75.05-.75-.43v-4.93A1.67,1.67,0,0,1,24.7,162.34Z"/><path class="cls-49" d="M113.56,287.07a.5.5,0,0,1-.41-.58.51.51,0,0,1,.58-.41,4.57,4.57,0,0,0,2.65-.33.5.5,0,0,1,.4.91,5.67,5.67,0,0,1-2.28.49A5.86,5.86,0,0,1,113.56,287.07Zm-2.91-1.41a5.66,5.66,0,0,1-1.69-2.78.51.51,0,0,1,.36-.61.5.5,0,0,1,.61.36,4.63,4.63,0,0,0,1.39,2.28.5.5,0,0,1,0,.71.49.49,0,0,1-.37.16A.5.5,0,0,1,110.65,285.66Zm8.11-.67a.51.51,0,0,1,.19-.68l2.61-1.48a.5.5,0,0,1,.49.87l-2.6,1.48a.47.47,0,0,1-.25.07A.5.5,0,0,1,118.76,285Zm5.22-3a.49.49,0,0,1,.19-.68l2.61-1.48a.49.49,0,0,1,.68.18.5.5,0,0,1-.19.68l-2.61,1.49a.54.54,0,0,1-.25.06A.5.5,0,0,1,124,282Zm-15.2-2.26v-3a.5.5,0,0,1,.5-.5.5.5,0,0,1,.5.5v3a.5.5,0,0,1-.5.5A.5.5,0,0,1,108.78,279.77Zm20.42-.71a.49.49,0,0,1,.18-.68L132,276.9a.5.5,0,0,1,.5.87l-2.61,1.48a.47.47,0,0,1-.25.07A.49.49,0,0,1,129.2,279.06Zm5.21-3a.5.5,0,0,1,.19-.68l2.61-1.48a.49.49,0,1,1,.49.86l-2.61,1.49a.51.51,0,0,1-.68-.19Zm-25.63-2.33v-3a.5.5,0,0,1,.5-.5.5.5,0,0,1,.5.5v3a.5.5,0,0,1-.5.5A.5.5,0,0,1,108.78,273.77Zm30.85-.63a.51.51,0,0,1,.19-.69l2.6-1.48a.5.5,0,1,1,.5.87l-2.61,1.48a.45.45,0,0,1-.25.07A.5.5,0,0,1,139.63,273.14Zm5.22-3a.49.49,0,0,1,.18-.68l2.61-1.48a.49.49,0,0,1,.68.18.51.51,0,0,1-.18.69l-2.61,1.48a.57.57,0,0,1-.25.06A.5.5,0,0,1,144.85,270.17Zm-36.07-2.4v-3a.5.5,0,0,1,.5-.5.5.5,0,0,1,.5.5v3a.5.5,0,0,1-.5.5A.5.5,0,0,1,108.78,267.77Zm41.28-.56a.52.52,0,0,1,.19-.69l2.61-1.48a.5.5,0,1,1,.49.87l-2.61,1.48a.42.42,0,0,1-.24.07A.5.5,0,0,1,150.06,267.21Zm5.22-3a.5.5,0,0,1,.19-.68l2.6-1.48a.51.51,0,0,1,.69.18.52.52,0,0,1-.19.69L156,264.43a.54.54,0,0,1-.25.06A.5.5,0,0,1,155.28,264.24Zm-46.5-2.47v-3a.5.5,0,0,1,.5-.5.5.5,0,0,1,.5.5v3a.5.5,0,0,1-.5.5A.5.5,0,0,1,108.78,261.77Zm51.71-.49a.52.52,0,0,1,.19-.69l2.61-1.48a.5.5,0,0,1,.68.19.49.49,0,0,1-.19.68l-2.6,1.48a.47.47,0,0,1-.25.07A.52.52,0,0,1,160.49,261.28Zm5.22-3a.5.5,0,0,1,.19-.68l2.61-1.48a.49.49,0,0,1,.68.19.5.5,0,0,1-.19.68l-2.61,1.48a.53.53,0,0,1-.24.06A.5.5,0,0,1,165.71,258.31Zm-56.93-2.54v-3a.5.5,0,0,1,.5-.5.5.5,0,0,1,.5.5v3a.5.5,0,0,1-.5.5A.5.5,0,0,1,108.78,255.77Zm62.15-.42a.49.49,0,0,1,.19-.68l1.31-.75c.41-.24.82-.5,1.21-.77a.5.5,0,1,1,.58.82c-.42.29-.85.56-1.3.82l-1.31.74a.45.45,0,0,1-.25.07A.5.5,0,0,1,170.93,255.35Zm4.93-3.39a.49.49,0,0,1,0-.7,15.26,15.26,0,0,0,1.78-2.29.5.5,0,0,1,.69-.15.49.49,0,0,1,.16.69,16.7,16.7,0,0,1-1.91,2.44.51.51,0,0,1-.36.15A.45.45,0,0,1,175.86,252Zm-67.08-2.19V246.9a.51.51,0,0,1,.5-.5.5.5,0,0,1,.5.5v2.87a.5.5,0,0,1-.5.5A.5.5,0,0,1,108.78,249.77ZM179.21,247a.5.5,0,0,1-.28-.64,15,15,0,0,0,.78-2.79.5.5,0,1,1,1,.17,16.06,16.06,0,0,1-.83,3,.49.49,0,0,1-.46.32A.41.41,0,0,1,179.21,247Zm.72-6.33v-3a.5.5,0,0,1,.5-.5.5.5,0,0,1,.5.5v3a.5.5,0,0,1-.5.5A.51.51,0,0,1,179.93,240.7Zm0-6v-3a.5.5,0,0,1,.5-.5.5.5,0,0,1,.5.5v3a.5.5,0,0,1-.5.5A.51.51,0,0,1,179.93,234.7Zm0-6v-3a.5.5,0,0,1,.5-.5.5.5,0,0,1,.5.5v3a.5.5,0,0,1-.5.5A.51.51,0,0,1,179.93,228.7Zm0-6v-3a.5.5,0,0,1,.5-.5.5.5,0,0,1,.5.5v3a.5.5,0,0,1-.5.5A.51.51,0,0,1,179.93,222.7Zm0-6v-3a.5.5,0,0,1,.5-.5.5.5,0,0,1,.5.5v3a.5.5,0,0,1-.5.5A.51.51,0,0,1,179.93,216.7Z"/></g></g></g></svg>