<svg xmlns="http://www.w3.org/2000/svg" xmlns:xlink="http://www.w3.org/1999/xlink" viewBox="0 0 203.87 325.2"><defs><style>.cls-1{isolation:isolate;}.cls-2,.cls-24{opacity:0.5;}.cls-2,.cls-80{mix-blend-mode:multiply;}.cls-3,.cls-50{fill:#afb6e5;}.cls-3{opacity:0;}.cls-4{fill:#a7adda;opacity:0.02;}.cls-5{fill:#9ea5cf;opacity:0.05;}.cls-6{fill:#969cc4;opacity:0.07;}.cls-7{fill:#8e93b9;opacity:0.1;}.cls-8{fill:#858bae;opacity:0.12;}.cls-9{fill:#7d82a4;opacity:0.14;}.cls-10{fill:#757999;opacity:0.17;}.cls-11{fill:#6c718e;opacity:0.19;}.cls-12{fill:#646883;opacity:0.21;}.cls-13{fill:#5c5f78;opacity:0.24;}.cls-14{fill:#53576d;opacity:0.26;}.cls-15{fill:#4b4e62;opacity:0.29;}.cls-16{fill:#434557;opacity:0.31;}.cls-17{fill:#3a3d4c;opacity:0.33;}.cls-18{fill:#323441;opacity:0.36;}.cls-19{fill:#2a2b37;opacity:0.38;}.cls-20{fill:#21232c;opacity:0.4;}.cls-21{fill:#191a21;opacity:0.43;}.cls-22{fill:#111116;opacity:0.45;}.cls-23{fill:#08090b;opacity:0.48;}.cls-25{fill:url(#linear-gradient);}.cls-26{fill:url(#linear-gradient-2);}.cls-27{mix-blend-mode:color-dodge;fill:url(#Radial_Gradient_1);}.cls-28{opacity:0.2;}.cls-29{fill:#abb2e2;opacity:0.05;}.cls-30,.cls-81{fill:#a7addf;}.cls-30{opacity:0.1;}.cls-31{fill:#a3a9dc;opacity:0.14;}.cls-32{fill:#9fa4d8;opacity:0.19;}.cls-33{fill:#9ba0d5;opacity:0.24;}.cls-34{fill:#979bd2;opacity:0.29;}.cls-35{fill:#9397cf;opacity:0.33;}.cls-36{fill:#8f92cc;opacity:0.38;}.cls-37{fill:#8b8ec9;opacity:0.43;}.cls-38{fill:#8789c6;opacity:0.48;}.cls-39{fill:#8385c2;opacity:0.52;}.cls-40{fill:#7f80bf;opacity:0.57;}.cls-41{fill:#7b7cbc;opacity:0.62;}.cls-42{fill:#7777b9;opacity:0.67;}.cls-43{fill:#7373b6;opacity:0.71;}.cls-44{fill:#6f6eb3;opacity:0.76;}.cls-45{fill:#6b6ab0;opacity:0.81;}.cls-46{fill:#6765ac;opacity:0.86;}.cls-47,.cls-90{fill:#6361a9;}.cls-47{opacity:0.9;}.cls-48{fill:#5f5ca6;opacity:0.95;}.cls-49{fill:#5b58a3;}.cls-51{fill:url(#Degradado_sin_nombre_161);}.cls-52{fill:url(#Degradado_sin_nombre_160);}.cls-53{fill:url(#Degradado_sin_nombre_159);}.cls-54{fill:url(#Degradado_sin_nombre_158);}.cls-55{fill:url(#Degradado_sin_nombre_157);}.cls-56{fill:url(#Degradado_sin_nombre_156);}.cls-57{fill:url(#Degradado_sin_nombre_155);}.cls-58{fill:url(#Degradado_sin_nombre_154);}.cls-59{fill:url(#Degradado_sin_nombre_153);}.cls-60{fill:url(#Degradado_sin_nombre_152);}.cls-61{fill:url(#Degradado_sin_nombre_151);}.cls-62{fill:url(#Degradado_sin_nombre_150);}.cls-63{fill:url(#Degradado_sin_nombre_149);}.cls-64{fill:url(#Degradado_sin_nombre_148);}.cls-65{fill:url(#Degradado_sin_nombre_147);}.cls-66{fill:url(#Degradado_sin_nombre_146);}.cls-67{fill:url(#Degradado_sin_nombre_145);}.cls-68{fill:url(#Degradado_sin_nombre_144);}.cls-69{fill:url(#Degradado_sin_nombre_143);}.cls-70{fill:url(#Degradado_sin_nombre_142);}.cls-71{fill:url(#linear-gradient-3);}.cls-72{fill:#fff;}.cls-73{fill:url(#linear-gradient-4);}.cls-74{fill:url(#linear-gradient-5);}.cls-75{fill:url(#linear-gradient-6);}.cls-76{fill:url(#linear-gradient-7);}.cls-77{fill:url(#linear-gradient-8);}.cls-78{fill:#e6e7e8;}.cls-79{fill:url(#linear-gradient-9);}.cls-80{opacity:0.3;}.cls-81{opacity:0.09;}.cls-82{fill:#a0a5d9;opacity:0.18;}.cls-83{fill:#989cd3;opacity:0.27;}.cls-84{fill:#9094cd;opacity:0.36;}.cls-85{fill:#898bc7;opacity:0.45;}.cls-86{fill:#8183c1;opacity:0.55;}.cls-87{fill:#7a7abb;opacity:0.64;}.cls-88{fill:#7272b5;opacity:0.73;}.cls-89{fill:#6a69af;opacity:0.82;}.cls-90{opacity:0.91;}.cls-91{fill:url(#linear-gradient-10);}.cls-92{fill:url(#linear-gradient-11);}.cls-93{fill:url(#linear-gradient-12);}.cls-94{fill:#273b98;}.cls-95{mix-blend-mode:screen;fill:url(#radial-gradient);}.cls-100,.cls-101,.cls-103,.cls-104,.cls-105,.cls-106,.cls-96,.cls-97{opacity:0.95;}.cls-96{fill:url(#linear-gradient-13);}.cls-97{fill:url(#linear-gradient-14);}.cls-98{fill:url(#linear-gradient-15);}.cls-99{fill:url(#linear-gradient-16);}.cls-100{fill:url(#linear-gradient-17);}.cls-101{fill:url(#linear-gradient-18);}.cls-102{fill:url(#linear-gradient-19);}.cls-103{fill:url(#linear-gradient-20);}.cls-104{fill:url(#linear-gradient-21);}.cls-105{fill:url(#linear-gradient-22);}.cls-106{fill:url(#linear-gradient-23);}.cls-107{fill:url(#linear-gradient-24);}.cls-108{fill:url(#linear-gradient-25);}.cls-109{fill:url(#linear-gradient-26);}</style><linearGradient id="linear-gradient" x1="42.8" y1="245.96" x2="253.11" y2="245.96" gradientUnits="userSpaceOnUse"><stop offset="0" stop-color="#b7bee9"/><stop offset="0.18" stop-color="#bac1eb"/><stop offset="0.33" stop-color="#c5cbef"/><stop offset="0.43" stop-color="#d1d6f5"/><stop offset="0.46" stop-color="#dbe0fa"/><stop offset="0.5" stop-color="#e5e9ff"/><stop offset="0.53" stop-color="#d1d6f6"/><stop offset="0.56" stop-color="#afb6e5"/><stop offset="1" stop-color="#afb6e5"/></linearGradient><linearGradient id="linear-gradient-2" x1="141.4" y1="151.69" x2="104.07" y2="248.04" gradientUnits="userSpaceOnUse"><stop offset="0" stop-color="#afb6e5"/><stop offset="0.14" stop-color="#b6bce8"/><stop offset="0.35" stop-color="#c8cdf1"/><stop offset="0.58" stop-color="#e5e9ff"/><stop offset="0.86" stop-color="#f5f6ff"/><stop offset="1" stop-color="#fff"/></linearGradient><radialGradient id="Radial_Gradient_1" cx="117.02" cy="227.62" r="56.6" gradientUnits="userSpaceOnUse"><stop offset="0" stop-color="#fff"/><stop offset="1"/></radialGradient><linearGradient id="Degradado_sin_nombre_161" x1="78.65" y1="1.54" x2="155.93" y2="240.07" gradientUnits="userSpaceOnUse"><stop offset="0" stop-color="#b0b7e6"/><stop offset="0.19" stop-color="#b2b8e6"/><stop offset="0.28" stop-color="#b3b9e6"/><stop offset="0.41" stop-color="#afb6e5"/><stop offset="0.91" stop-color="#afb6e5"/><stop offset="1" stop-color="#b0b7e6"/></linearGradient><linearGradient id="Degradado_sin_nombre_160" x1="78.58" y1="1.57" x2="155.85" y2="240.1" gradientUnits="userSpaceOnUse"><stop offset="0" stop-color="#b2b9e6"/><stop offset="0.19" stop-color="#b4bbe7"/><stop offset="0.28" stop-color="#b7bde7"/><stop offset="0.41" stop-color="#afb6e5"/><stop offset="0.91" stop-color="#afb6e5"/><stop offset="1" stop-color="#b2b9e6"/></linearGradient><linearGradient id="Degradado_sin_nombre_159" x1="78.5" y1="1.6" x2="155.77" y2="240.12" gradientUnits="userSpaceOnUse"><stop offset="0" stop-color="#b3bae7"/><stop offset="0.19" stop-color="#b7bde9"/><stop offset="0.28" stop-color="#bac0e9"/><stop offset="0.41" stop-color="#afb6e5"/><stop offset="0.91" stop-color="#afb6e5"/><stop offset="1" stop-color="#b3bae7"/></linearGradient><linearGradient id="Degradado_sin_nombre_158" x1="78.43" y1="1.63" x2="155.69" y2="240.15" gradientUnits="userSpaceOnUse"><stop offset="0" stop-color="#b5bbe8"/><stop offset="0.19" stop-color="#b9c0ea"/><stop offset="0.28" stop-color="#bec4ea"/><stop offset="0.41" stop-color="#afb6e5"/><stop offset="0.91" stop-color="#afb6e5"/><stop offset="1" stop-color="#b5bbe8"/></linearGradient><linearGradient id="Degradado_sin_nombre_157" x1="78.35" y1="1.66" x2="155.61" y2="240.17" gradientUnits="userSpaceOnUse"><stop offset="0" stop-color="#b6bde8"/><stop offset="0.19" stop-color="#bcc2eb"/><stop offset="0.28" stop-color="#c2c7eb"/><stop offset="0.41" stop-color="#afb6e5"/><stop offset="0.91" stop-color="#afb6e5"/><stop offset="1" stop-color="#b6bde8"/></linearGradient><linearGradient id="Degradado_sin_nombre_156" x1="78.27" y1="1.69" x2="155.54" y2="240.2" gradientUnits="userSpaceOnUse"><stop offset="0" stop-color="#b8bee9"/><stop offset="0.19" stop-color="#bec5ec"/><stop offset="0.28" stop-color="#c6cbec"/><stop offset="0.39" stop-color="#b2b9e6"/><stop offset="0.41" stop-color="#afb6e5"/><stop offset="0.91" stop-color="#afb6e5"/><stop offset="1" stop-color="#b8bee9"/></linearGradient><linearGradient id="Degradado_sin_nombre_155" x1="78.2" y1="1.73" x2="155.46" y2="240.23" gradientUnits="userSpaceOnUse"><stop offset="0" stop-color="#b9bfea"/><stop offset="0.19" stop-color="#c1c7ee"/><stop offset="0.28" stop-color="#caceee"/><stop offset="0.38" stop-color="#b6bde7"/><stop offset="0.41" stop-color="#afb6e5"/><stop offset="0.91" stop-color="#afb6e5"/><stop offset="1" stop-color="#b9bfea"/></linearGradient><linearGradient id="Degradado_sin_nombre_154" x1="78.12" y1="1.76" x2="155.38" y2="240.25" gradientUnits="userSpaceOnUse"><stop offset="0" stop-color="#bac1ea"/><stop offset="0.19" stop-color="#c4c9ef"/><stop offset="0.28" stop-color="#cdd2ef"/><stop offset="0.37" stop-color="#b9c0e8"/><stop offset="0.41" stop-color="#afb6e5"/><stop offset="0.91" stop-color="#afb6e5"/><stop offset="1" stop-color="#bac1ea"/><stop offset="1" stop-color="#bac1ea"/></linearGradient><linearGradient id="Degradado_sin_nombre_153" x1="78.05" y1="1.79" x2="155.3" y2="240.28" gradientUnits="userSpaceOnUse"><stop offset="0" stop-color="#bcc2eb"/><stop offset="0.19" stop-color="#c6ccf0"/><stop offset="0.28" stop-color="#d0d4f0"/><stop offset="0.28" stop-color="#d1d5f0"/><stop offset="0.36" stop-color="#bdc3ea"/><stop offset="0.41" stop-color="#afb6e5"/><stop offset="0.91" stop-color="#afb6e5"/><stop offset="0.99" stop-color="#bac0ea"/><stop offset="1" stop-color="#bcc2eb"/></linearGradient><linearGradient id="Degradado_sin_nombre_152" x1="77.97" y1="1.82" x2="155.23" y2="240.3" gradientUnits="userSpaceOnUse"><stop offset="0" stop-color="#bdc3ec"/><stop offset="0.19" stop-color="#c9cef1"/><stop offset="0.27" stop-color="#d3d7f1"/><stop offset="0.28" stop-color="#d5d9f1"/><stop offset="0.35" stop-color="#c1c7eb"/><stop offset="0.41" stop-color="#afb6e5"/><stop offset="0.91" stop-color="#afb6e5"/><stop offset="0.98" stop-color="#bac0ea"/><stop offset="1" stop-color="#bdc3ec"/></linearGradient><linearGradient id="Degradado_sin_nombre_151" x1="77.9" y1="1.85" x2="155.15" y2="240.33" gradientUnits="userSpaceOnUse"><stop offset="0" stop-color="#bfc5ec"/><stop offset="0.19" stop-color="#cbd1f3"/><stop offset="0.26" stop-color="#d5d9f3"/><stop offset="0.28" stop-color="#d9dcf3"/><stop offset="0.35" stop-color="#c5caec"/><stop offset="0.41" stop-color="#afb6e5"/><stop offset="0.91" stop-color="#afb6e5"/><stop offset="0.98" stop-color="#bac0ea"/><stop offset="1" stop-color="#bfc5ec"/></linearGradient><linearGradient id="Degradado_sin_nombre_150" x1="77.82" y1="1.88" x2="155.07" y2="240.35" gradientUnits="userSpaceOnUse"><stop offset="0" stop-color="#c0c6ed"/><stop offset="0.19" stop-color="#ced3f4"/><stop offset="0.26" stop-color="#d8dcf4"/><stop offset="0.28" stop-color="#dde0f4"/><stop offset="0.34" stop-color="#c9ceee"/><stop offset="0.41" stop-color="#afb6e5"/><stop offset="0.91" stop-color="#afb6e5"/><stop offset="0.97" stop-color="#bac0ea"/><stop offset="1" stop-color="#c0c6ed"/></linearGradient><linearGradient id="Degradado_sin_nombre_149" x1="77.75" y1="1.92" x2="154.99" y2="240.38" gradientUnits="userSpaceOnUse"><stop offset="0" stop-color="#c2c7ee"/><stop offset="0.19" stop-color="#d0d6f5"/><stop offset="0.25" stop-color="#dadef5"/><stop offset="0.28" stop-color="#e1e3f5"/><stop offset="0.34" stop-color="#cdd1ef"/><stop offset="0.41" stop-color="#afb6e5"/><stop offset="0.91" stop-color="#afb6e5"/><stop offset="0.97" stop-color="#bac0ea"/><stop offset="1" stop-color="#c2c7ee"/></linearGradient><linearGradient id="Degradado_sin_nombre_148" x1="77.67" y1="1.95" x2="154.92" y2="240.4" gradientUnits="userSpaceOnUse"><stop offset="0" stop-color="#c3c9ee"/><stop offset="0.19" stop-color="#d3d8f6"/><stop offset="0.25" stop-color="#dde1f6"/><stop offset="0.28" stop-color="#e4e7f6"/><stop offset="0.34" stop-color="#d0d5f0"/><stop offset="0.41" stop-color="#afb6e5"/><stop offset="0.91" stop-color="#afb6e5"/><stop offset="0.97" stop-color="#bac0ea"/><stop offset="1" stop-color="#c3c9ee"/></linearGradient><linearGradient id="Degradado_sin_nombre_147" x1="77.59" y1="1.98" x2="154.84" y2="240.43" gradientUnits="userSpaceOnUse"><stop offset="0" stop-color="#c4caef"/><stop offset="0.19" stop-color="#d6daf8"/><stop offset="0.25" stop-color="#e0e3f8"/><stop offset="0.28" stop-color="#e8eaf8"/><stop offset="0.33" stop-color="#d4d8f1"/><stop offset="0.41" stop-color="#afb6e5"/><stop offset="0.91" stop-color="#afb6e5"/><stop offset="0.96" stop-color="#bac0ea"/><stop offset="1" stop-color="#c4caef"/></linearGradient><linearGradient id="Degradado_sin_nombre_146" x1="77.52" y1="2.01" x2="154.76" y2="240.45" gradientUnits="userSpaceOnUse"><stop offset="0" stop-color="#c6cbf0"/><stop offset="0.19" stop-color="#d8ddf9"/><stop offset="0.25" stop-color="#e2e6f9"/><stop offset="0.28" stop-color="#eceef9"/><stop offset="0.33" stop-color="#d8dcf3"/><stop offset="0.41" stop-color="#afb6e5"/><stop offset="0.91" stop-color="#afb6e5"/><stop offset="0.96" stop-color="#bac0ea"/><stop offset="1" stop-color="#c6cbf0"/></linearGradient><linearGradient id="Degradado_sin_nombre_145" x1="77.44" y1="2.04" x2="154.68" y2="240.48" gradientUnits="userSpaceOnUse"><stop offset="0" stop-color="#c7cdf0"/><stop offset="0.19" stop-color="#dbdffa"/><stop offset="0.24" stop-color="#e5e8fa"/><stop offset="0.28" stop-color="#f0f1fa"/><stop offset="0.33" stop-color="#dcdff4"/><stop offset="0.41" stop-color="#afb6e5"/><stop offset="0.91" stop-color="#afb6e5"/><stop offset="0.96" stop-color="#bac0ea"/><stop offset="1" stop-color="#c7cdf0"/></linearGradient><linearGradient id="Degradado_sin_nombre_144" x1="77.37" y1="2.07" x2="154.6" y2="240.5" gradientUnits="userSpaceOnUse"><stop offset="0" stop-color="#c9cef1"/><stop offset="0.19" stop-color="#dde2fb"/><stop offset="0.24" stop-color="#e7eafb"/><stop offset="0.28" stop-color="#f4f5fb"/><stop offset="0.33" stop-color="#e0e3f5"/><stop offset="0.41" stop-color="#afb6e5"/><stop offset="0.91" stop-color="#afb6e5"/><stop offset="0.96" stop-color="#bac0ea"/><stop offset="1" stop-color="#c9cef1"/></linearGradient><linearGradient id="Degradado_sin_nombre_143" x1="77.29" y1="2.11" x2="154.53" y2="240.53" gradientUnits="userSpaceOnUse"><stop offset="0" stop-color="#cacff2"/><stop offset="0.19" stop-color="#e0e4fd"/><stop offset="0.24" stop-color="#eaedfd"/><stop offset="0.28" stop-color="#f7f8fd"/><stop offset="0.32" stop-color="#e3e6f6"/><stop offset="0.41" stop-color="#b1b8e6"/><stop offset="0.41" stop-color="#afb6e5"/><stop offset="0.91" stop-color="#afb6e5"/><stop offset="0.95" stop-color="#bac0ea"/><stop offset="1" stop-color="#cacff2"/></linearGradient><linearGradient id="Degradado_sin_nombre_142" x1="77.22" y1="2.14" x2="154.45" y2="240.55" gradientUnits="userSpaceOnUse"><stop offset="0" stop-color="#ccd1f2"/><stop offset="0.19" stop-color="#e2e7fe"/><stop offset="0.24" stop-color="#eceffe"/><stop offset="0.28" stop-color="#fbfcfe"/><stop offset="0.32" stop-color="#e7eaf8"/><stop offset="0.4" stop-color="#b5bbe7"/><stop offset="0.41" stop-color="#afb6e5"/><stop offset="0.91" stop-color="#afb6e5"/><stop offset="0.95" stop-color="#bac0ea"/><stop offset="1" stop-color="#ccd1f2"/></linearGradient><linearGradient id="linear-gradient-3" x1="77.14" y1="2.17" x2="154.37" y2="240.58" gradientUnits="userSpaceOnUse"><stop offset="0" stop-color="#cdd2f3"/><stop offset="0.19" stop-color="#e5e9ff"/><stop offset="0.24" stop-color="#eff2ff"/><stop offset="0.28" stop-color="#fff"/><stop offset="0.32" stop-color="#ebedf9"/><stop offset="0.4" stop-color="#b9bfe8"/><stop offset="0.41" stop-color="#afb6e5"/><stop offset="0.91" stop-color="#afb6e5"/><stop offset="0.95" stop-color="#bac0ea"/><stop offset="1" stop-color="#cdd2f3"/></linearGradient><linearGradient id="linear-gradient-4" x1="-45.44" y1="186.81" x2="227.07" y2="75.29" xlink:href="#linear-gradient-2"/><linearGradient id="linear-gradient-5" x1="60.64" y1="31.01" x2="181.08" y2="260.66" gradientUnits="userSpaceOnUse"><stop offset="0.01" stop-color="#273b98"/><stop offset="0.23" stop-color="#2f2ba2"/><stop offset="0.4" stop-color="#361cac"/><stop offset="0.77" stop-color="#440b89"/><stop offset="1" stop-color="#4e0070"/></linearGradient><linearGradient id="linear-gradient-6" x1="171.16" y1="116.6" x2="131.95" y2="95.59" xlink:href="#linear-gradient-2"/><linearGradient id="linear-gradient-7" x1="72.03" y1="178.51" x2="135.16" y2="69.17" gradientUnits="userSpaceOnUse"><stop offset="0" stop-color="#ced3f4"/><stop offset="0.01" stop-color="#d3d8f7"/><stop offset="0.06" stop-color="#e1e5fd"/><stop offset="0.1" stop-color="#e5e9ff"/><stop offset="0.25" stop-color="#eaedff"/><stop offset="1" stop-color="#fff"/></linearGradient><linearGradient id="linear-gradient-8" x1="144.82" y1="103.92" x2="51.29" y2="80.99" gradientUnits="userSpaceOnUse"><stop offset="0.01" stop-color="#b4f759"/><stop offset="0.05" stop-color="#90ed6f"/><stop offset="0.15" stop-color="#35d5a5"/><stop offset="0.2" stop-color="#00c7c5"/><stop offset="0.41" stop-color="#2d9be0"/><stop offset="0.6" stop-color="#5277f7"/><stop offset="0.66" stop-color="#5b76f7"/><stop offset="0.77" stop-color="#7374f6"/><stop offset="0.9" stop-color="#9a70f4"/><stop offset="1" stop-color="#bb6df3"/></linearGradient><linearGradient id="linear-gradient-9" x1="149.1" y1="213.1" x2="66.1" y2="50.76" xlink:href="#linear-gradient-8"/><linearGradient id="linear-gradient-10" x1="37.97" y1="284.4" x2="102.84" y2="172.04" gradientUnits="userSpaceOnUse"><stop offset="0" stop-color="#ced3f4"/><stop offset="0.01" stop-color="#d3d8f7"/><stop offset="0.06" stop-color="#e1e5fd"/><stop offset="0.1" stop-color="#e5e9ff"/><stop offset="0.45" stop-color="#e8ecff"/><stop offset="0.72" stop-color="#f2f4ff"/><stop offset="0.92" stop-color="#fff"/><stop offset="1" stop-color="#f5f7ff"/></linearGradient><linearGradient id="linear-gradient-11" x1="32.94" y1="325.52" x2="50.94" y2="294.85" gradientUnits="userSpaceOnUse"><stop offset="0" stop-color="#ced3f4"/><stop offset="0.02" stop-color="#d3d8f7"/><stop offset="0.1" stop-color="#e1e5fd"/><stop offset="0.17" stop-color="#e5e9ff"/><stop offset="0.52" stop-color="#e8ecff"/><stop offset="0.79" stop-color="#f2f4ff"/><stop offset="1" stop-color="#fff"/></linearGradient><linearGradient id="linear-gradient-12" x1="75.68" y1="208.41" x2="5.68" y2="105.74" xlink:href="#linear-gradient-8"/><radialGradient id="radial-gradient" cx="648.67" cy="313.01" r="15.75" gradientTransform="matrix(0, 2.19, -1.13, 0, 460.38, -1372.48)" gradientUnits="userSpaceOnUse"><stop offset="0" stop-color="#5277f7"/><stop offset="0" stop-color="#5277f6"/><stop offset="0.12" stop-color="#3f5bbd"/><stop offset="0.24" stop-color="#2e438b"/><stop offset="0.36" stop-color="#202e60"/><stop offset="0.49" stop-color="#141e3e"/><stop offset="0.61" stop-color="#0b1123"/><stop offset="0.74" stop-color="#05070f"/><stop offset="0.87" stop-color="#010204"/><stop offset="1"/></radialGradient><linearGradient id="linear-gradient-13" x1="120.69" y1="78.95" x2="92.56" y2="23.24" gradientTransform="translate(42.03 -47.17) rotate(30.31)" gradientUnits="userSpaceOnUse"><stop offset="0.01" stop-color="#2be9a3"/><stop offset="0.29" stop-color="#07cdbf"/><stop offset="0.34" stop-color="#00c7c5"/><stop offset="0.44" stop-color="#09beca"/><stop offset="0.59" stop-color="#21a7d9"/><stop offset="0.77" stop-color="#4881f1"/><stop offset="0.82" stop-color="#5277f7"/></linearGradient><linearGradient id="linear-gradient-14" x1="130.13" y1="88.69" x2="103.67" y2="42.45" gradientTransform="matrix(1, 0, 0, 1, 0, 0)" xlink:href="#linear-gradient-13"/><linearGradient id="linear-gradient-15" x1="1.36" y1="183.63" x2="66.6" y2="273.1" gradientUnits="userSpaceOnUse"><stop offset="0.01" stop-color="#b4f759"/><stop offset="0.11" stop-color="#90ed6f"/><stop offset="0.33" stop-color="#35d5a5"/><stop offset="0.46" stop-color="#00c7c5"/><stop offset="0.72" stop-color="#2d9be0"/><stop offset="0.96" stop-color="#5277f7"/></linearGradient><linearGradient id="linear-gradient-16" x1="71.05" y1="275.29" x2="-4.95" y2="178.96" xlink:href="#linear-gradient-15"/><linearGradient id="linear-gradient-17" x1="195.95" y1="202.16" x2="119.78" y2="148.32" gradientTransform="matrix(1, 0, 0, 1, 0, 0)" xlink:href="#linear-gradient-13"/><linearGradient id="linear-gradient-18" x1="66.77" y1="55.66" x2="72.42" y2="71.86" gradientUnits="userSpaceOnUse"><stop offset="0.01" stop-color="#00c7c5"/><stop offset="0.22" stop-color="#24a4db"/><stop offset="0.47" stop-color="#5277f7"/><stop offset="0.62" stop-color="#5b75f6"/><stop offset="0.87" stop-color="#7370f4"/><stop offset="1" stop-color="#836df3"/></linearGradient><linearGradient id="linear-gradient-19" x1="11.01" y1="54.39" x2="278.34" y2="252.39" xlink:href="#linear-gradient-8"/><linearGradient id="linear-gradient-20" x1="237.2" y1="258.09" x2="123.37" y2="182.59" gradientTransform="matrix(1, 0, 0, 1, 0, 0)" xlink:href="#linear-gradient-13"/><linearGradient id="linear-gradient-21" x1="45.68" y1="45.79" x2="65.43" y2="69.79" gradientUnits="userSpaceOnUse"><stop offset="0.01" stop-color="#2be9a3"/><stop offset="0.25" stop-color="#07cdbf"/><stop offset="0.3" stop-color="#00c7c5"/><stop offset="0.48" stop-color="#24a4db"/><stop offset="0.68" stop-color="#5277f7"/><stop offset="0.77" stop-color="#5b75f6"/><stop offset="0.92" stop-color="#7370f4"/><stop offset="1" stop-color="#836df3"/></linearGradient><linearGradient id="linear-gradient-22" x1="66.77" y1="86.41" x2="72.42" y2="102.61" xlink:href="#linear-gradient-18"/><linearGradient id="linear-gradient-23" x1="26.1" y1="144.33" x2="31.75" y2="160.53" gradientUnits="userSpaceOnUse"><stop offset="0.01" stop-color="#bb6df3"/><stop offset="0.23" stop-color="#976df3"/><stop offset="0.34" stop-color="#836df3"/><stop offset="0.48" stop-color="#7a6ff4"/><stop offset="0.7" stop-color="#6274f6"/><stop offset="0.82" stop-color="#5277f7"/></linearGradient><linearGradient id="linear-gradient-24" x1="210.09" y1="204.55" x2="133.76" y2="156.55" xlink:href="#linear-gradient-8"/><linearGradient id="linear-gradient-25" x1="3.18" y1="129.68" x2="13.48" y2="147.38" gradientUnits="userSpaceOnUse"><stop offset="0.06" stop-color="#f36dd4"/><stop offset="0.2" stop-color="#e96dda"/><stop offset="0.43" stop-color="#cd6de9"/><stop offset="0.55" stop-color="#bb6df3"/><stop offset="1" stop-color="#836df3"/></linearGradient><linearGradient id="linear-gradient-26" x1="176.1" y1="208.99" x2="189.56" y2="230.65" gradientUnits="userSpaceOnUse"><stop offset="0" stop-color="#836df3"/><stop offset="0.55" stop-color="#5277f7"/><stop offset="1" stop-color="#6cf"/></linearGradient></defs><g class="cls-1"><g id="Capa_2" data-name="Capa 2"><g id="Layer_1" data-name="Layer 1"><g class="cls-2"><path class="cls-3" d="M137.77,318.4,41.12,263.14c-6.81-3.93-6-10.8,1.91-15.34l33-18.88c7.86-4.54,19.76-5,26.56-1.1l96.66,55.26c6.8,3.93,5.95,10.8-1.91,15.34l-33,18.88C156.47,321.84,144.58,322.33,137.77,318.4Z"/><path class="cls-4" d="M137.76,318.11l-96.15-55c-6.75-3.9-5.9-10.71,1.89-15.2l32.57-18.62c7.79-4.5,19.58-5,26.33-1.09l96.15,55c6.75,3.9,5.9,10.7-1.89,15.2L164.09,317C156.29,321.52,144.5,322,137.76,318.11Z"/><path class="cls-5" d="M137.74,317.81,42.1,263.13c-6.69-3.86-5.85-10.6,1.87-15.06l32.11-18.35c7.72-4.46,19.41-4.94,26.1-1.08l95.64,54.68c6.69,3.86,5.85,10.61-1.87,15.07l-32.11,18.34C156.12,321.19,144.43,321.68,137.74,317.81Z"/><path class="cls-6" d="M137.73,317.52,42.59,263.13c-6.63-3.83-5.8-10.51,1.85-14.93l31.65-18.08c7.65-4.42,19.23-4.9,25.86-1.07l95.14,54.39c6.63,3.83,5.8,10.51-1.85,14.93l-31.65,18.08C155.94,320.87,144.36,321.35,137.73,317.52Z"/><path class="cls-7" d="M137.72,317.23l-94.64-54.1c-6.57-3.79-5.75-10.42,1.84-14.8L76.1,230.52c7.58-4.38,19.06-4.85,25.63-1.06l94.64,54.1c6.57,3.79,5.74,10.42-1.84,14.8l-31.18,17.81C155.76,320.55,144.29,321,137.72,317.23Z"/><path class="cls-8" d="M137.7,316.93l-94.13-53.8c-6.51-3.76-5.7-10.33,1.82-14.67L76.1,230.92c7.52-4.34,18.89-4.81,25.4-1l94.14,53.81c6.51,3.76,5.69,10.32-1.83,14.66L163.1,315.88C155.59,320.22,144.21,320.69,137.7,316.93Z"/><path class="cls-9" d="M137.69,316.64,44.06,263.12c-6.45-3.72-5.64-10.23,1.8-14.53l30.25-17.27c7.45-4.3,18.72-4.77,25.17-1l93.63,53.52c6.45,3.72,5.64,10.23-1.81,14.53L162.86,315.6C155.41,319.9,144.14,320.37,137.69,316.64Z"/><path class="cls-10" d="M137.68,316.35,44.55,263.12c-6.39-3.69-5.59-10.14,1.79-14.4l29.78-17c7.38-4.26,18.54-4.72,24.93-1l93.13,53.23c6.39,3.69,5.59,10.13-1.79,14.39l-29.78,17C155.23,319.58,144.07,320,137.68,316.35Z"/><path class="cls-11" d="M137.66,316.05,45,263.12c-6.33-3.66-5.54-10,1.77-14.26l29.32-16.74c7.31-4.22,18.37-4.68,24.7-1L193.46,284c6.33,3.65,5.53,10-1.78,14.26L162.37,315C155.05,319.25,144,319.71,137.66,316.05Z"/><path class="cls-12" d="M137.65,315.76,45.53,263.11c-6.28-3.62-5.49-9.94,1.75-14.12l28.85-16.47c7.25-4.18,18.2-4.63,24.48-1l92.12,52.64c6.27,3.63,5.48,10-1.76,14.13l-28.85,16.47C154.88,318.93,143.92,319.38,137.65,315.76Z"/><path class="cls-13" d="M137.64,315.47,46,263.11c-6.22-3.59-5.44-9.85,1.74-14l28.38-16.2c7.18-4.14,18-4.59,24.24-1L192,284.27c6.21,3.59,5.43,9.86-1.74,14l-28.39,16.19C154.7,318.61,143.85,319.06,137.64,315.47Z"/><path class="cls-14" d="M137.62,315.18,46.51,263.11c-6.16-3.55-5.38-9.76,1.72-13.86l27.92-15.93c7.11-4.1,17.85-4.55,24-1l91.11,52.06c6.16,3.56,5.38,9.76-1.72,13.86l-27.92,15.93C154.52,318.28,143.78,318.73,137.62,315.18Z"/><path class="cls-15" d="M137.61,314.88,47,263.11c-6.1-3.52-5.33-9.67,1.7-13.73l27.46-15.66c7-4.06,17.68-4.5,23.77-1l90.62,51.77c6.09,3.52,5.33,9.67-1.71,13.73L161.38,313.9C154.35,318,143.7,318.4,137.61,314.88Z"/><path class="cls-16" d="M137.6,314.59,47.49,263.1c-6-3.48-5.28-9.57,1.69-13.59l27-15.39c7-4,17.5-4.46,23.54-1l90.11,51.48c6,3.48,5.28,9.57-1.69,13.59l-27,15.39C154.17,317.64,143.63,318.07,137.6,314.59Z"/><path class="cls-17" d="M137.58,314.3,48,263.1c-6-3.45-5.23-9.47,1.67-13.46l26.52-15.12c6.9-4,17.34-4.41,23.31-1l89.61,51.19c6,3.45,5.23,9.47-1.67,13.46l-26.53,15.12C154,317.31,143.56,317.74,137.58,314.3Z"/><path class="cls-18" d="M137.57,314l-89.1-50.9c-5.92-3.42-5.18-9.38,1.65-13.33l26.06-14.85C83,231,93.34,230.55,99.26,234l89.1,50.9c5.92,3.41,5.18,9.38-1.65,13.32l-26.06,14.86C153.82,317,143.49,317.42,137.57,314Z"/><path class="cls-19" d="M137.56,313.71,49,263.1c-5.86-3.39-5.12-9.29,1.64-13.19l25.59-14.59c6.76-3.9,17-4.33,22.84-.95L187.64,285c5.85,3.38,5.12,9.28-1.64,13.19l-25.6,14.58C153.64,316.67,143.41,317.09,137.56,313.71Z"/><path class="cls-20" d="M137.54,313.42,49.45,263.09c-5.8-3.34-5.07-9.19,1.62-13L76.2,235.72c6.69-3.86,16.81-4.28,22.61-.94l88.1,50.33c5.79,3.34,5.07,9.19-1.63,13.05l-25.12,14.32C153.46,316.34,143.34,316.76,137.54,313.42Z"/><path class="cls-21" d="M137.53,313.12l-87.59-50c-5.74-3.31-5-9.1,1.6-12.92l24.67-14c6.62-3.82,16.64-4.24,22.38-.93l87.59,50c5.74,3.31,5,9.09-1.61,12.92l-24.66,14C153.29,316,143.27,316.43,137.53,313.12Z"/><path class="cls-22" d="M137.52,312.83,50.43,263.09c-5.68-3.28-5-9,1.59-12.79l24.19-13.78c6.56-3.78,16.47-4.19,22.15-.92l87.09,49.75c5.68,3.27,5,9-1.59,12.78l-24.2,13.78C153.11,315.7,143.19,316.11,137.52,312.83Z"/><path class="cls-23" d="M137.5,312.54,50.92,263.08c-5.62-3.24-4.92-8.9,1.57-12.65l23.73-13.51c6.49-3.74,16.3-4.15,21.92-.91l86.59,49.46c5.61,3.24,4.91,8.9-1.58,12.65l-23.73,13.51C152.93,315.37,143.12,315.78,137.5,312.54Z"/><path class="cls-24" d="M137.49,312.24,51.41,263.08c-5.56-3.21-4.87-8.81,1.55-12.52l23.27-13.24c6.42-3.7,16.12-4.11,21.68-.9L184,285.58c5.56,3.21,4.86,8.82-1.56,12.52l-23.27,13.24C152.76,315.05,143.05,315.45,137.49,312.24Z"/></g><path class="cls-25" d="M191.26,231.37H190a9.27,9.27,0,0,0-2.72-2.29l-89.33-51c-5.94-3.43-16.32-3-23.18,1L48.47,194a13.7,13.7,0,0,0-4.15,3.51H42.8v60h0c.19,2,1.49,3.87,4,5.31l89.33,51c5.94,3.43,16.32,3,23.18-1l26.26-15c3.26-1.88,5.12-4.22,5.56-6.53h.12Z"/><path class="cls-26" d="M136.14,254.78l-89.33-51c-5.94-3.43-5.2-9.42,1.66-13.38l26.27-15c6.86-4,17.24-4.4,23.18-1l89.33,51c5.94,3.43,5.2,9.42-1.67,13.38l-26.26,15C152.46,257.78,142.08,258.21,136.14,254.78Z"/><path class="cls-27" d="M185.58,237.81l-26.26,15c-6.86,4-17.24,4.39-23.18,1l-89.33-51c-2.39-1.38-3.68-3.17-3.94-5.08-.37,2.47.91,4.88,3.94,6.63l89.33,51c5.94,3.43,16.32,3,23.18-1l26.26-15c4.11-2.37,6-5.47,5.61-8.31C190.84,233.43,189,235.86,185.58,237.81Z"/><g class="cls-28"><path class="cls-3" d="M154.57,252.15a15,15,0,0,1-7.48-1.81L109,227.88,70.94,205.41a7.93,7.93,0,0,1-4.3-6.84c0-3,1.89-5.87,5.17-7.76l14.52-13.29a18.43,18.43,0,0,1,9.09-2.31,15,15,0,0,1,7.48,1.8l42,23.61,42,23.61a7.91,7.91,0,0,1,4.3,6.84c0,3-1.89,5.86-5.17,7.76l-22.45,11A18.43,18.43,0,0,1,154.57,252.15Z"/><path class="cls-29" d="M71.9,191.06l6.56-5.89c.1-.06,7.77-7,7.89-7a17.64,17.64,0,0,1,6.07-1.93,21.27,21.27,0,0,1,2.89-.16,15.23,15.23,0,0,1,7.35,1.84L142.1,200.1l2,1.14,41.47,23.3a8.78,8.78,0,0,1,3.82,4.19,6.91,6.91,0,0,1,.51,2.48c.07,3-1.77,5.78-5,7.66l-7.75,3.8c-.17.1-14.32,6.93-14.47,6.84a18.51,18.51,0,0,1-8.93,2,15.32,15.32,0,0,1-7.37-1.85l-32.79-19.33-4.79-2.82L71.2,205.39a8.8,8.8,0,0,1-3.87-4.31,7,7,0,0,1-.46-2.36C66.8,195.75,68.63,192.94,71.9,191.06Z"/><path class="cls-30" d="M72,191.31l6.52-5.74c.2-.11,7.62-6.72,7.86-6.71a18.21,18.21,0,0,1,6-1.78,24.18,24.18,0,0,1,2.83-.1,15.55,15.55,0,0,1,7.23,1.89l38.9,21.86,2,1.13,40.9,23a9.19,9.19,0,0,1,3.81,4.08,7.18,7.18,0,0,1,.56,2.42c.12,2.91-1.66,5.69-4.9,7.56L176,242.66c-.33.2-14,6.69-14.33,6.52-2.34,1.35-5.83,1.77-8.79,1.77a15.51,15.51,0,0,1-7.24-1.9L113.3,230l-4.72-2.78L71.47,205.38a9.23,9.23,0,0,1-3.87-4.21,7.17,7.17,0,0,1-.5-2.29C67,196,68.74,193.18,72,191.31Z"/><path class="cls-31" d="M72.07,191.56,78.55,186c.3-.18,7.48-6.47,7.84-6.45a18.42,18.42,0,0,1,5.91-1.62,25.71,25.71,0,0,1,2.78,0,15.73,15.73,0,0,1,7.11,1.94l38.35,21.56,2,1.11,40.34,22.68a9.56,9.56,0,0,1,3.8,4,7.2,7.2,0,0,1,.6,2.36c.18,2.85-1.54,5.6-4.75,7.46l-7.55,3.7c-.51.29-13.77,6.46-14.21,6.21-2.21,1.27-5.83,1.49-8.64,1.49a15.86,15.86,0,0,1-7.12-1.94L113,229.63l-4.66-2.74L71.74,205.36a9.52,9.52,0,0,1-3.86-4.1,7.1,7.1,0,0,1-.56-2.23C67.13,196.18,68.85,193.42,72.07,191.56Z"/><path class="cls-32" d="M72.16,191.81l6.44-5.43c.4-.23,7.33-6.2,7.82-6.18a19,19,0,0,1,5.82-1.47c.79-.08,1.93,0,2.73,0a16.13,16.13,0,0,1,7,2L139.75,202l1.94,1.09,39.77,22.38a10,10,0,0,1,3.79,3.87,7.14,7.14,0,0,1,.65,2.29c.24,2.79-1.42,5.52-4.62,7.36l-7.45,3.65c-.67.39-13.5,6.23-14.08,5.89-2.09,1.21-5.84,1.22-8.49,1.22a16.22,16.22,0,0,1-7-2l-31.52-18.5-4.6-2.7L72,205.35a10,10,0,0,1-3.86-4,7.32,7.32,0,0,1-.6-2.17C67.3,196.39,69,193.66,72.16,191.81Z"/><path class="cls-33" d="M72.25,192.06l6.39-5.27c.51-.29,7.19-5.95,7.8-5.92a19,19,0,0,1,5.74-1.31c.75-.07,1.92.08,2.68.08a16.59,16.59,0,0,1,6.85,2l37.26,21,1.91,1.07,39.19,22.07a10.5,10.5,0,0,1,3.79,3.76,7.21,7.21,0,0,1,.69,2.23c.31,2.73-1.3,5.43-4.48,7.26l-7.35,3.61c-.83.48-13.22,6-13.94,5.56-2,1.14-5.85,1-8.35,1a16.84,16.84,0,0,1-6.87-2l-31.1-18.23-4.54-2.66-35.64-20.9a10.47,10.47,0,0,1-3.86-3.88,7.24,7.24,0,0,1-.64-2.11C67.46,196.6,69.07,193.9,72.25,192.06Z"/><path class="cls-34" d="M72.33,192.31l6.36-5.12c.6-.34,7-5.68,7.77-5.65a19.58,19.58,0,0,1,5.67-1.15c.69-.06,1.91.13,2.62.13a16.94,16.94,0,0,1,6.72,2.08l36.72,20.67,1.87,1.06,38.63,21.76a11.07,11.07,0,0,1,3.78,3.66,7.19,7.19,0,0,1,.74,2.16c.36,2.67-1.19,5.34-4.34,7.16l-7.25,3.56c-1,.58-13,5.75-13.82,5.25-1.84,1.06-5.86.68-8.2.68a17.25,17.25,0,0,1-6.75-2.09l-30.67-17.95-4.47-2.62L72.54,205.32a11.25,11.25,0,0,1-3.85-3.78,8,8,0,0,1-.69-2C67.62,196.82,69.17,194.14,72.33,192.31Z"/><path class="cls-35" d="M72.42,192.56l6.31-5c.71-.41,6.91-5.43,7.75-5.38,1.76-.67,3.75-.58,5.59-1a16.16,16.16,0,0,1,2.57.2,17.57,17.57,0,0,1,6.59,2.12l36.17,20.38,1.85,1,38.06,21.45a11.83,11.83,0,0,1,3.77,3.55,7.22,7.22,0,0,1,.78,2.1c.43,2.61-1.07,5.26-4.2,7.06l-7.15,3.51c-1.17.67-12.67,5.52-13.69,4.93-1.72,1-5.86.41-8,.41a17.85,17.85,0,0,1-6.63-2.14L111.9,228.15l-4.41-2.58L72.81,205.3A12,12,0,0,1,69,201.64a7.63,7.63,0,0,1-.74-2C67.79,197,69.28,194.37,72.42,192.56Z"/><path class="cls-36" d="M72.51,192.81,78.78,188c.8-.46,6.76-5.16,7.72-5.11,1.76-.62,3.72-.41,5.51-.85a14.66,14.66,0,0,1,2.52.26c1.76,0,5.2,1.43,6.47,2.16l35.62,20.08,1.82,1,37.49,21.14a12.67,12.67,0,0,1,3.76,3.45,7.83,7.83,0,0,1,.83,2c.49,2.55-1,5.17-4.07,7l-7,3.46c-1.35.77-12.41,5.29-13.57,4.61-1.59.93-5.87.14-7.9.14-1.76,0-5.24-1.45-6.5-2.18l-29.82-17.4-4.35-2.54-34.19-20a12.81,12.81,0,0,1-3.84-3.56,7.74,7.74,0,0,1-.78-1.93C68,197.25,69.39,194.61,72.51,192.81Z"/><path class="cls-37" d="M72.59,193.06l6.24-4.65c.9-.52,6.61-4.91,7.69-4.85,1.75-.56,3.69-.24,5.43-.69a14,14,0,0,1,2.46.31c1.63,0,5.18,1.53,6.35,2.21l35.08,19.79,1.79,1L174.55,227a13.85,13.85,0,0,1,3.75,3.34,8.57,8.57,0,0,1,.88,2c.54,2.49-.85,5.08-3.93,6.86l-6.95,3.41c-1.51.87-12.13,5.05-13.43,4.3-1.48.85-5.88-.14-7.76-.14-1.63,0-5.21-1.55-6.38-2.23l-29.39-17.12-4.29-2.5-33.7-19.64a14,14,0,0,1-3.84-3.45,8.45,8.45,0,0,1-.82-1.86C68.11,197.46,69.5,194.85,72.59,193.06Z"/><path class="cls-38" d="M72.68,193.32l6.19-4.5c1-.59,6.47-4.65,7.67-4.59,1.75-.51,3.67-.07,5.36-.54.49-.14,1.88.38,2.4.38,1.5,0,5.15,1.63,6.22,2.25l34.53,19.49,1.76,1,36.36,20.52a15,15,0,0,1,3.74,3.24,8.29,8.29,0,0,1,.92,1.9c.61,2.43-.73,5-3.79,6.77l-6.85,3.35c-1.67,1-11.85,4.82-13.3,4-1.35.78-5.89-.41-7.61-.41-1.49,0-5.18-1.66-6.25-2.27l-29-16.85-4.21-2.46L73.62,205.26a15.33,15.33,0,0,1-3.84-3.34,9.07,9.07,0,0,1-.87-1.81C68.27,197.67,69.61,195.09,72.68,193.32Z"/><path class="cls-39" d="M72.77,193.57l6.15-4.35c1.1-.64,6.32-4.39,7.65-4.32,1.73-.45,3.63.1,5.27-.38.44-.13,1.88.43,2.35.43,1.36,0,5.12,1.74,6.09,2.3l34,19.2,1.73,1,35.78,20.21a16.58,16.58,0,0,1,3.74,3.13,8.82,8.82,0,0,1,1,1.84c.67,2.37-.62,4.91-3.66,6.67l-6.74,3.3c-1.85,1.06-11.58,4.59-13.18,3.66-1.23.71-5.9-.68-7.46-.68-1.36,0-5.16-1.76-6.13-2.32l-28.55-16.58-4.15-2.41-32.74-19A16.91,16.91,0,0,1,70.06,202a8.93,8.93,0,0,1-.92-1.75C68.43,197.89,69.71,195.33,72.77,193.57Z"/><path class="cls-40" d="M72.86,193.82l6.1-4.19c1.21-.7,6.18-4.13,7.63-4.06,1.73-.4,3.6.27,5.19-.23.4-.12,1.88.5,2.3.5,1.22,0,5.09,1.84,6,2.34l33.45,18.9,1.7,1L170.4,228c.8.46,3.45,2.29,3.73,3a4.86,4.86,0,0,1,1,1.77c.74,2.31-.5,4.83-3.51,6.57L165,242.57c-2,1.16-11.3,4.35-13,3.35-1.1.64-5.9-1-7.31-1-1.22,0-5.13-1.86-6-2.37l-28.12-16.3-4.09-2.37L74.15,205.23c-.81-.47-3.55-2.37-3.82-3.13a4.84,4.84,0,0,1-1-1.68C68.59,198.1,69.82,195.57,72.86,193.82Z"/><path class="cls-41" d="M72.94,194.07,79,190c1.31-.75,6-3.87,7.6-3.79,1.73-.34,3.56.44,5.11-.07.36-.12,1.87.56,2.25.56,1.09,0,5.06,1.93,5.83,2.38l32.9,18.61,1.67.94L169,228.26c.71.41,3.47,2.26,3.72,2.92a5.11,5.11,0,0,1,1.06,1.71c.8,2.25-.39,4.74-3.38,6.47l-6.54,3.2c-2.18,1.26-11,4.12-12.92,3-1,.57-5.92-1.22-7.17-1.22-1.08,0-5.11-2-5.88-2.42l-27.7-16-4-2.33L74.42,205.21c-.73-.42-3.58-2.34-3.82-3a5.09,5.09,0,0,1-1-1.62C68.75,198.31,69.93,195.81,72.94,194.07Z"/><path class="cls-42" d="M73,194.32l6-3.88c1.41-.82,5.89-3.61,7.58-3.53a13.09,13.09,0,0,1,5,.09c.32-.05,1.86.61,2.19.61,1,0,5,2,5.71,2.43l32.35,18.31,1.64.93,34.08,19.29c.62.36,3.49,2.24,3.71,2.82a4.74,4.74,0,0,1,1.1,1.64c.87,2.19-.27,4.65-3.24,6.37l-6.44,3.15c-2.35,1.36-10.76,3.89-12.79,2.72-.86.49-5.92-1.5-7-1.5s-5.09-2.07-5.77-2.47l-27.27-15.75-4-2.29L74.69,205.2c-.64-.37-3.6-2.32-3.81-2.91a4.79,4.79,0,0,1-1.06-1.57C68.91,198.53,70,196.05,73,194.32Z"/><path class="cls-43" d="M73.12,194.57l6-3.73c1.51-.87,5.74-3.35,7.55-3.26a12.77,12.77,0,0,1,5,.24c.27,0,1.85.68,2.14.68.81,0,5,2.14,5.58,2.47l31.81,18,1.61.91,33.51,19c.53.31,3.51,2.22,3.7,2.71a4.84,4.84,0,0,1,1.15,1.58c.93,2.13-.16,4.57-3.11,6.27l-6.34,3.1c-2.51,1.45-10.48,3.66-12.66,2.4-.73.42-5.93-1.77-6.86-1.77s-5.06-2.18-5.65-2.51l-26.84-15.48-3.9-2.25L75,205.18c-.55-.31-3.63-2.29-3.81-2.8a4.63,4.63,0,0,1-1.1-1.5C69.07,198.74,70.14,196.29,73.12,194.57Z"/><path class="cls-44" d="M73.2,194.82l6-3.57c1.6-.93,5.59-3.09,7.52-3a12.25,12.25,0,0,1,4.88.4c.23,0,1.85.73,2.08.73.68,0,5,2.24,5.46,2.52l31.26,17.72,1.58.9,32.94,18.67a22.94,22.94,0,0,1,3.7,2.6,4.75,4.75,0,0,1,1.19,1.52c1,2.07,0,4.48-3,6.17l-6.24,3.05c-2.68,1.55-10.21,3.42-12.53,2.08-.62.36-5.94-2-6.72-2s-5-2.28-5.52-2.56l-26.42-15.2-3.84-2.21L75.22,205.17c-.45-.26-3.65-2.27-3.8-2.7A4.65,4.65,0,0,1,70.27,201C69.22,199,70.25,196.52,73.2,194.82Z"/><path class="cls-45" d="M73.29,195.07l5.9-3.42c1.71-1,5.46-2.83,7.5-2.73a11.9,11.9,0,0,1,4.8.55c.19,0,1.84.8,2,.8a43.6,43.6,0,0,1,5.33,2.56l30.72,17.43,1.55.88,32.37,18.36a28,28,0,0,1,3.69,2.5,4.67,4.67,0,0,1,1.24,1.46c1.07,2,.07,4.38-2.83,6.06l-6.14,3c-2.85,1.65-9.93,3.19-12.4,1.77-.49.28-6-2.32-6.57-2.32a44.79,44.79,0,0,1-5.4-2.6l-26-14.93-3.78-2.17L75.49,205.15a29,29,0,0,1-3.8-2.58,4.9,4.9,0,0,1-1.19-1.38C69.38,199.17,70.36,196.76,73.29,195.07Z"/><path class="cls-46" d="M73.38,195.32l5.86-3.26c1.81-1.05,5.31-2.57,7.48-2.46a11.34,11.34,0,0,1,4.71.7c.14,0,1.84.86,2,.86a57.29,57.29,0,0,1,5.2,2.6l30.18,17.13,1.52.87,31.8,18.05a38.21,38.21,0,0,1,3.68,2.39,4.53,4.53,0,0,1,1.28,1.4c1.14,1.94.19,4.3-2.69,6l-6,2.95c-3,1.74-9.67,3-12.28,1.45-.37.21-5.95-2.59-6.42-2.59a56.58,56.58,0,0,1-5.28-2.65l-25.56-14.65L105.1,222,75.76,205.14A39.35,39.35,0,0,1,72,202.66a4.78,4.78,0,0,1-1.24-1.32C69.53,199.39,70.47,197,73.38,195.32Z"/><path class="cls-47" d="M73.46,195.57l5.82-3.11a16.13,16.13,0,0,1,7.46-2.19,10.77,10.77,0,0,1,4.64.86c.09,0,1.83.91,1.92.91.27,0,4.88,2.54,5.08,2.66L128,211.53l1.48.84,31.24,17.75c.18.1,3.61,2.12,3.67,2.29a4.8,4.8,0,0,1,1.33,1.33c1.2,1.88.3,4.21-2.55,5.86l-5.94,2.9c-3.18,1.84-9.39,2.72-12.15,1.13-.24.14-6-2.86-6.27-2.86s-5-2.58-5.15-2.7L108.52,223.7l-3.64-2.08L76,205.12c-.18-.1-3.73-2.2-3.79-2.37A4.4,4.4,0,0,1,71,201.49C69.69,199.61,70.58,197.24,73.46,195.57Z"/><path class="cls-48" d="M73.55,195.83l5.78-3a14.81,14.81,0,0,1,7.43-1.93,10.41,10.41,0,0,1,4.56,1s1.82,1,1.87,1,4.85,2.64,5,2.7l29.08,16.53,1.46.83,30.67,17.44c.09,0,3.63,2.1,3.66,2.18a4.83,4.83,0,0,1,1.37,1.27c1.28,1.81.42,4.12-2.41,5.76l-5.84,2.86c-3.35,1.93-9.11,2.48-12,.81-.13.07-6-3.14-6.13-3.14s-4.93-2.69-5-2.74l-24.72-14.1-3.58-2L76.3,205.11c-.09-.06-3.76-2.18-3.79-2.26a4.9,4.9,0,0,1-1.33-1.2C69.84,199.82,70.68,197.48,73.55,195.83Z"/><path class="cls-49" d="M143.14,243,108,223l-35.18-20c-3-1.76-2.66-4.83.86-6.86l5.73-2.81c3.52-2,8.84-2.25,11.89-.49l35.18,20,35.18,20c3,1.76,2.66,4.83-.86,6.86L155,242.49C151.51,244.52,146.19,244.74,143.14,243Z"/></g><path class="cls-50" d="M146.19,238.4,84,202.5c-7-4.05-12.7-14.91-12.7-24.26V12.67c0-4.76-3.91-5.81-1.54-7.52.09-.06,9.48-4.28,9.59-4.32a9.18,9.18,0,0,1,8.58.5l62.17,35.9c7,4.05,12.7,14.91,12.7,24.26V227.06c0,5-1.6,8.51-4.16,10.13-.15.1-10.67,5-10.83,5C145.56,243,149.25,240.17,146.19,238.4Z"/><path class="cls-51" d="M146.19,238.4,84,202.5c-7-4.05-12.7-14.91-12.7-24.26V12.67c0-4.76-3.91-5.81-1.54-7.52.09-.06,9.33-4.22,9.43-4.26a9.17,9.17,0,0,1,8.59.5L150,37.29c7,4,12.7,14.91,12.7,24.26V227.12c0,5-1.6,8.51-4.16,10.13-.15.1-10.52,4.9-10.68,5C145.56,243,149.25,240.17,146.19,238.4Z"/><path class="cls-52" d="M146.19,238.4,84,202.5c-7-4.05-12.7-14.91-12.7-24.26V12.67c0-4.76-3.91-5.81-1.54-7.52C69.87,5.09,79,1,79.06,1a9.17,9.17,0,0,1,8.59.5l62.17,35.89c7,4,12.7,14.91,12.7,24.26V227.18c0,5-1.61,8.51-4.16,10.13-.16.09-10.37,4.84-10.53,4.9C145.56,243,149.25,240.17,146.19,238.4Z"/><path class="cls-53" d="M146.19,238.4,84,202.5c-7-4.05-12.7-14.91-12.7-24.26V12.67c0-4.76-3.91-5.81-1.54-7.52.09-.06,9-4.11,9.13-4.15a9.18,9.18,0,0,1,8.58.5l62.18,35.9c7,4.05,12.69,14.91,12.69,24.26V227.23c0,5-1.6,8.51-4.16,10.14-.15.09-10.21,4.78-10.37,4.84C145.56,243,149.25,240.17,146.19,238.4Z"/><path class="cls-54" d="M146.19,238.4,84,202.5c-7-4.05-12.7-14.91-12.7-24.26V12.67c0-4.76-3.91-5.81-1.54-7.52.09-.06,8.87-4.05,9-4.09a9.17,9.17,0,0,1,8.59.5l62.17,35.9c7,4,12.7,14.91,12.7,24.26V227.29c0,5-1.6,8.51-4.16,10.13-.15.1-10.06,4.73-10.22,4.79C145.56,243,149.25,240.17,146.19,238.4Z"/><path class="cls-55" d="M146.19,238.4,84,202.5c-7-4.05-12.7-14.91-12.7-24.26V12.67c0-4.76-3.91-5.81-1.54-7.52.09-.06,8.72-4,8.82-4a9.17,9.17,0,0,1,8.59.5l62.17,35.89c7,4.05,12.7,14.91,12.7,24.26V227.35c0,5-1.61,8.51-4.16,10.13-.16.09-9.91,4.67-10.07,4.73C145.56,243,149.25,240.17,146.19,238.4Z"/><path class="cls-56" d="M146.19,238.4,84,202.5c-7-4.05-12.7-14.91-12.7-24.26V12.67c0-4.76-3.91-5.81-1.54-7.52.09-.06,8.56-3.94,8.67-4a9.18,9.18,0,0,1,8.58.5l62.18,35.9c7,4,12.69,14.91,12.69,24.26V227.4c0,5-1.6,8.51-4.16,10.14-.15.09-9.75,4.61-9.91,4.67C145.56,243,149.25,240.17,146.19,238.4Z"/><path class="cls-57" d="M146.19,238.4,84,202.5c-7-4.05-12.7-14.91-12.7-24.26V12.67c0-4.76-3.91-5.81-1.54-7.52.09-.06,8.41-3.88,8.51-3.92a9.17,9.17,0,0,1,8.59.5l62.17,35.9c7,4,12.7,14.91,12.7,24.26V227.46c0,5-1.6,8.51-4.16,10.13-.15.1-9.6,4.56-9.76,4.62C145.56,243,149.25,240.17,146.19,238.4Z"/><path class="cls-58" d="M146.19,238.4,84,202.5c-7-4.05-12.7-14.91-12.7-24.26V12.67c0-4.76-3.91-5.81-1.54-7.52.09-.06,8.26-3.82,8.36-3.86a9.17,9.17,0,0,1,8.59.5L148.9,37.68c7,4,12.7,14.91,12.7,24.27V227.52c0,5-1.61,8.51-4.16,10.13-.16.1-9.45,4.5-9.61,4.56C145.56,243,149.25,240.17,146.19,238.4Z"/><path class="cls-59" d="M146.19,238.4,84,202.5c-7-4.05-12.7-14.91-12.7-24.26V12.67c0-4.76-3.91-5.81-1.54-7.52.09-.06,8.1-3.77,8.21-3.81a9.18,9.18,0,0,1,8.58.5l62.18,35.9c7,4,12.69,14.91,12.69,24.26V227.57c0,5-1.6,8.51-4.16,10.14-.15.09-9.29,4.44-9.45,4.5C145.56,243,149.25,240.17,146.19,238.4Z"/><path class="cls-60" d="M146.19,238.4,84,202.5c-7-4.05-12.7-14.91-12.7-24.26V12.67c0-4.76-3.91-5.81-1.54-7.52.09-.06,8-3.71,8-3.75a9.17,9.17,0,0,1,8.59.5l62.17,35.9c7,4.05,12.7,14.91,12.7,24.26V227.63c0,5-1.6,8.51-4.16,10.13-.15.1-9.14,4.39-9.3,4.45C145.56,243,149.25,240.17,146.19,238.4Z"/><path class="cls-61" d="M146.19,238.4,84,202.5c-7-4.05-12.7-14.91-12.7-24.26V12.67c0-4.76-3.91-5.81-1.54-7.52.09-.06,7.8-3.65,7.9-3.69a9.17,9.17,0,0,1,8.59.5l62.17,35.89c7,4,12.7,14.91,12.7,24.27V227.69c0,5-1.61,8.51-4.16,10.13-.16.1-9,4.33-9.15,4.39C145.56,243,149.25,240.17,146.19,238.4Z"/><path class="cls-62" d="M146.19,238.4,84,202.5c-7-4.05-12.7-14.91-12.7-24.26V12.67c0-4.76-3.91-5.81-1.54-7.52.09-.06,7.64-3.6,7.75-3.64a9.18,9.18,0,0,1,8.58.5l62.18,35.9C155.3,42,161,52.82,161,62.17V227.75c0,5-1.6,8.51-4.16,10.13-.15.09-8.83,4.27-9,4.33C145.56,243,149.25,240.17,146.19,238.4Z"/><path class="cls-63" d="M146.19,238.4,84,202.5c-7-4.05-12.7-14.91-12.7-24.26V12.67c0-4.76-3.91-5.81-1.54-7.52.09-.06,7.49-3.54,7.59-3.58a9.2,9.2,0,0,1,8.59.5L148.13,38c7,4.05,12.7,14.91,12.7,24.26V227.8c0,5-1.6,8.51-4.16,10.13-.15.1-8.68,4.22-8.84,4.28C145.56,243,149.25,240.17,146.19,238.4Z"/><path class="cls-64" d="M146.19,238.4,84,202.5c-7-4.05-12.7-14.91-12.7-24.26V12.67c0-4.76-3.91-5.81-1.54-7.52.09-.06,7.34-3.48,7.44-3.52a9.17,9.17,0,0,1,8.59.5L148,38c7,4,12.7,14.92,12.7,24.27V227.86c0,5-1.61,8.51-4.16,10.13-.16.1-8.53,4.16-8.69,4.22C145.56,243,149.25,240.17,146.19,238.4Z"/><path class="cls-65" d="M146.19,238.4,84,202.5c-7-4.05-12.7-14.91-12.7-24.26V12.67c0-4.76-3.91-5.81-1.54-7.52.09-.06,7.18-3.43,7.29-3.46a9.12,9.12,0,0,1,8.58.5l62.18,35.89c7,4.05,12.69,14.91,12.69,24.26V227.92c0,5-1.6,8.51-4.16,10.13-.15.09-8.37,4.1-8.53,4.16C145.56,243,149.25,240.17,146.19,238.4Z"/><path class="cls-66" d="M146.19,238.4,84,202.5c-7-4.05-12.7-14.91-12.7-24.26V12.67c0-4.76-3.91-5.81-1.54-7.52.09-.06,7-3.37,7.13-3.41a9.2,9.2,0,0,1,8.59.5l62.17,35.9c7,4,12.7,14.91,12.7,24.26V228c0,5-1.6,8.51-4.16,10.13-.15.1-8.22,4.05-8.38,4.11C145.56,243,149.25,240.17,146.19,238.4Z"/><path class="cls-67" d="M146.19,238.4,84,202.5c-7-4.05-12.7-14.91-12.7-24.26V12.67c0-4.76-3.91-5.81-1.54-7.52.09-.06,6.88-3.31,7-3.35a9.17,9.17,0,0,1,8.59.5l62.17,35.89c7,4.05,12.7,14.92,12.7,24.27V228c0,5-1.61,8.51-4.16,10.13-.15.1-8.07,4-8.23,4.05C145.56,243,149.25,240.17,146.19,238.4Z"/><path class="cls-68" d="M146.19,238.4,84,202.5c-7-4.05-12.7-14.91-12.7-24.26V12.67c0-4.76-3.91-5.81-1.54-7.52.09-.06,6.73-3.25,6.83-3.29a9.12,9.12,0,0,1,8.58.5l62.18,35.89c7,4,12.69,14.91,12.69,24.26V228.09c0,5-1.6,8.51-4.16,10.13-.15.09-7.91,3.93-8.07,4C145.56,243,149.25,240.17,146.19,238.4Z"/><path class="cls-69" d="M146.19,238.4,84,202.5c-7-4.05-12.7-14.91-12.7-24.26V12.67c0-4.76-3.91-5.81-1.54-7.52.09-.06,6.57-3.2,6.67-3.24a9.2,9.2,0,0,1,8.59.5l62.17,35.9c7,4,12.7,14.91,12.7,24.26V228.14c0,5-1.6,8.51-4.16,10.13-.15.1-7.76,3.88-7.92,3.94C145.56,243,149.25,240.17,146.19,238.4Z"/><path class="cls-70" d="M146.19,238.4,84,202.5c-7-4.05-12.7-14.91-12.7-24.26V12.67c0-4.76-3.91-5.81-1.54-7.52C69.87,5.09,76.2,2,76.3,2a9.17,9.17,0,0,1,8.59.5l62.17,35.89c7,4,12.7,14.92,12.7,24.27V228.2c0,5-1.61,8.51-4.16,10.13-.15.1-7.61,3.82-7.77,3.88C145.56,243,149.25,240.17,146.19,238.4Z"/><path class="cls-71" d="M146.19,238.4,84,202.5c-7-4.05-12.7-14.91-12.7-24.26V12.67c0-4.76-3.91-5.81-1.54-7.52.09-.06,6.27-3.08,6.37-3.12a9.12,9.12,0,0,1,8.58.5l62.18,35.89c7,4,12.7,14.91,12.7,24.26V228.26c0,5-1.61,8.51-4.17,10.13-.15.09-7.45,3.76-7.61,3.82C145.56,243,149.25,240.17,146.19,238.4Z"/><path class="cls-72" d="M140.25,241.2,78.08,205.31c-7-4.05-12.7-14.91-12.7-24.27V15.47c0-9.35,5.69-13.65,12.7-9.6l62.17,35.9c7,4,12.7,14.91,12.7,24.26V231.6C153,241,147.27,245.25,140.25,241.2Z"/><path class="cls-73" d="M145.29,241.47a8.94,8.94,0,0,1-4.41-1.36L78.71,204.22c-6.66-3.84-12.07-14.24-12.07-23.17V15.47c0-6,2.51-9.86,6.4-9.86A8.91,8.91,0,0,1,77.45,7l62.17,35.9c6.66,3.84,12.07,14.23,12.07,23.17V231.6C151.69,237.6,149.18,241.47,145.29,241.47Z"/><path class="cls-50" d="M69.59,183.15V18.22c0-6.86,4.17-10,9.31-7l60.53,34.95c5.14,3,9.31,10.94,9.31,17.8V228.86c0,6.86-4.17,10-9.31,7L78.9,201C73.76,198,69.59,190,69.59,183.15Z"/><path class="cls-74" d="M79.61,13c-4.85-2.8-8.79-.56-8.79,5V184.8c0,5.56,3.94,12.34,8.79,15.14l59.12,34.14c4.85,2.8,8.78.55,8.78-5V62.28c0-5.57-3.93-12.35-8.78-15.15Z"/><path class="cls-75" d="M157.72,120.44h0c-1.78,1-3.23-.06-3.23-2.44V104.53a7.74,7.74,0,0,1,3.23-6.17h0c1.78-1,3.23.06,3.23,2.44v13.47A7.74,7.74,0,0,1,157.72,120.44Z"/><path class="cls-76" d="M75,25.14c0,1.21-.06,98-.07,113.92v23.36c0,5.8-3.72,12.74-8.57,16.39l41.66,24h12.45V213a7,7,0,0,0,5.43,7h0c.22,0,.45.06.68.08h.79a9.57,9.57,0,0,0,4-1.36,18,18,0,0,0,4.28-3.57,14.33,14.33,0,0,0,3.62-5.38,19.58,19.58,0,0,0,2.2-8.46c0-.05.05-1,.05-3.8,0-.67,0-133.5,0-134.17Z"/><path class="cls-77" d="M75,45l66.65,38.18V62.5L75,24.31c0-2-.06,94.87-.07,110.75v14.25C75,124.05,75,41.59,75,45Z"/><path class="cls-78" d="M98.69,204.87A11.06,11.06,0,0,0,101,206.6v-.42Z"/><path class="cls-72" d="M132.65,105.1,82.05,75.42c0,4.79,0,8.58,0,11.58l50.61,29.2Z"/><path class="cls-50" d="M132.65,114.65,82.71,85.83v-10l-.66-.4c0,4.79,0,8.58,0,11.58l50.61,29.2Z"/><path class="cls-72" d="M132.65,135.85l-50.6-29.68c0,4.79,0,8.58,0,11.58L132.65,147Z"/><path class="cls-50" d="M132.65,145.4,82.71,116.58v-10l-.66-.4c0,4.79,0,8.58,0,11.58L132.65,147Z"/><path class="cls-72" d="M132.65,194.48,82.05,164.8c0,4.79,0,8.58,0,11.57l50.61,29.21Z"/><path class="cls-50" d="M132.65,204,82.71,175.2v-10l-.66-.39c0,4.79,0,8.58,0,11.57l50.61,29.21Z"/><path class="cls-72" d="M97,145.73l-15-9.06c0,4.79,0,8.58,0,11.58l15,8.58Z"/><path class="cls-50" d="M97,155.28l-14.31-8.2v-10l-.66-.4c0,4.79,0,8.58,0,11.58l15,8.58Z"/><path class="cls-72" d="M114.77,156.1l-14.72-9c0,4.79,0,8.58,0,11.57l14.73,8.49Z"/><path class="cls-50" d="M114.77,165.65l-14.06-8.1v-10l-.66-.39c0,4.79,0,8.58,0,11.57l14.73,8.49Z"/><path class="cls-79" d="M82,71.08h0C82,71.57,82,71.51,82,71.08ZM109,84,82,68.49v2.59L109,86.6Zm9.32,36.23L82,99.24v2.59l36.32,21ZM82,101.83h0C82,102.32,82,102.26,82,101.83Zm0,30.5h0C82,132.82,82,132.76,82,132.33Zm0,0,15.62,8.86c0,.57,0-1,0-2.58L82,129.74Zm18,10.46Zm0,0,15.38,8.78c0,.56,0-1,0-2.59L100,140.21C100,141.36,100,142.31,100,142.79Zm17.76,7.92c0,1.15,0,2.1,0,2.58L133,161.82v-2.59Zm0,2.58Z"/><path class="cls-72" d="M132.4,166.35l-14.6-8.71c0,4.79,0,8.58,0,11.57l14.61,8.24Z"/><path class="cls-50" d="M132.4,175.9l-13.94-7.85V158l-.66-.39c0,4.79,0,8.58,0,11.57l14.61,8.24Z"/><polygon class="cls-50" points="93.45 144.57 91.22 146.61 95.68 149.18 93.45 144.57"/><polygon class="cls-50" points="93.45 152.44 95.68 150.4 91.22 147.82 93.45 152.44"/><polygon class="cls-50" points="111.32 154.94 109.09 156.98 113.56 159.56 111.32 154.94"/><polygon class="cls-50" points="111.32 162.82 113.56 160.78 109.09 158.2 111.32 162.82"/><polygon class="cls-50" points="128.57 164.82 126.34 166.86 130.81 169.43 128.57 164.82"/><polygon class="cls-50" points="128.57 172.69 130.81 170.65 126.34 168.07 128.57 172.69"/><g class="cls-80"><path class="cls-3" d="M75,153.61c-7.89-4.56-14.29-.91-14.29,8.14v6.17c0,9.06,6.4,20.09,14.29,24.65l49.1,26.93c7.89,4.55,3.75-5.26,3.75-14.32V199c0-9-9.56-19.59-17.46-24.15Z"/><path class="cls-81" d="M74.84,153.86C67,149.31,60.56,153,60.56,162v5.56c0,9.05,6.39,20.07,14.28,24.62l47.61,26.28c7.89,4.55,4.7-4.7,4.7-13.75v-5.56c0-9.05-9.27-19.61-17.15-24.16Z"/><path class="cls-82" d="M74.66,154.12c-7.87-4.55-14.25-.91-14.25,8.13v5c0,9,6.38,20,14.25,24.58l46.14,25.63c7.87,4.54,5.63-4.14,5.63-13.17v-5c0-9-9-19.63-16.84-24.17Z"/><path class="cls-83" d="M74.49,154.37c-7.86-4.54-14.24-.9-14.24,8.12v4.36c0,9,6.38,20,14.24,24.56l44.66,25c7.86,4.54,6.57-3.58,6.57-12.6v-4.36c0-9-8.67-19.65-16.54-24.19Z"/><path class="cls-84" d="M74.32,154.63c-7.86-4.53-14.22-.9-14.22,8.11v3.75c0,9,6.36,20,14.22,24.53l43.18,24.32c7.85,4.53,7.51-3,7.51-12v-3.76c0-9-8.38-19.67-16.23-24.2Z"/><path class="cls-85" d="M74.14,154.89c-7.84-4.53-14.2-.91-14.2,8.09v3.16c0,9,6.36,20,14.2,24.49l41.7,23.67c7.85,4.53,8.46-2.46,8.46-11.46v-3.15c0-9-8.09-19.69-15.93-24.22Z"/><path class="cls-86" d="M74,155.14c-7.83-4.52-14.18-.9-14.18,8.09v2.55c0,9,6.35,19.94,14.18,24.46l40.22,23c7.83,4.53,9.39-1.9,9.39-10.89v-2.55c0-9-7.78-19.71-15.62-24.23Z"/><path class="cls-87" d="M73.8,155.4c-7.82-4.52-14.17-.9-14.17,8.08v1.94c0,9,6.35,19.92,14.17,24.43l38.74,22.37c7.82,4.52,10.33-1.34,10.33-10.31V200c0-9-7.49-19.74-15.32-24.25Z"/><path class="cls-88" d="M73.63,155.66c-7.82-4.52-14.15-.9-14.15,8.06v1.34c0,9,6.33,19.9,14.15,24.41l37.26,21.72c7.81,4.51,11.27-.79,11.27-9.75v-1.35c0-9-7.2-19.75-15-24.26Z"/><path class="cls-89" d="M73.45,155.91c-7.8-4.5-14.13-.9-14.13,8.06v.74c0,8.95,6.33,19.86,14.13,24.37l35.78,21.07c7.81,4.5,12.21-.23,12.21-9.18v-.74c0-9-6.9-19.78-14.7-24.28Z"/><path class="cls-90" d="M73.28,156.17c-7.79-4.5-14.11-.9-14.11,8v.14c0,8.94,6.32,19.84,14.11,24.34l34.3,20.42c7.79,4.5,13.15.33,13.15-8.61v-.14c0-8.94-6.6-19.79-14.4-24.29Z"/><path class="cls-49" d="M73.11,156.42c-7.79-4.49-14.1-.89-14.1,8V164c0,8.94,6.31,19.82,14.1,24.31l32.82,19.77c7.78,4.49,14.09.89,14.09-8v.47c0-8.93-6.31-19.82-14.09-24.31Z"/></g><path class="cls-50" d="M121.47,213V187.68c-.17-1.35-.28-2.17-.28-2.2-.22-6-4.65-8.41-10.08-5.28s-9.86,10.62-10.09,16.91v9.07c5.74,3.28,23.84,13.61,23.84,13.57v-.12C122.78,218.71,121.47,216.39,121.47,213Z"/><g class="cls-80"><path class="cls-3" d="M84.94,161.5c-7.89-4.56-35.72.7-35.72,9.75V253c0,9.06-4.73,40.06,3.16,44.62l35.39,21.26c7.9,4.56,28.59-11.78,28.59-20.83V208.51c0-9,10-24,2.08-28.51Z"/><path class="cls-29" d="M83.42,161.33c-7.88-4.56-34.69.62-34.69,9.67v81.38c0,9.05-4.2,39.1,3.68,43.66l35.28,21.18c7.88,4.56,27.89-11.17,27.89-20.22V208.2c0-9,9.2-23.76,1.31-28.31Z"/><path class="cls-30" d="M81.91,161.16c-7.88-4.55-33.66.54-33.66,9.59v81.06c0,9.05-3.68,38.14,4.2,42.69L87.6,315.62c7.88,4.55,27.2-10.57,27.2-19.62V207.89c0-9,8.43-23.56.54-28.11Z"/><path class="cls-31" d="M80.39,161c-7.87-4.55-32.63.47-32.63,9.51v80.75c0,9-3.15,37.17,4.72,41.72l35,21c7.88,4.55,26.51-10,26.51-19V207.58c0-9,7.65-23.37-.22-27.91Z"/><path class="cls-32" d="M78.88,160.82c-7.87-4.55-31.61.39-31.61,9.43v80.43c0,9-2.62,36.21,5.25,40.75l34.9,21C95.29,317,113.25,303,113.25,294V207.27c0-9,6.87-23.17-1-27.71Z"/><path class="cls-33" d="M77.36,160.65c-7.87-4.55-30.57.32-30.57,9.34v80.12c0,9-2.1,35.24,5.76,39.78L87.33,310.8c7.87,4.54,25.14-8.76,25.14-17.79V207c0-9,6.1-23-1.77-27.51Z"/><path class="cls-34" d="M75.85,160.48c-7.87-4.54-29.55.24-29.55,9.26v79.8c0,9-1.57,34.28,6.29,38.82l34.66,20.83c7.86,4.54,24.44-8.15,24.44-17.18V206.65c0-9,5.32-22.77-2.54-27.31Z"/><path class="cls-35" d="M74.33,160.31c-7.86-4.54-28.51.16-28.51,9.18V249c0,9-1,33.32,6.8,37.85l34.54,20.77C95,312.12,110.91,300,110.91,291V206.34c0-9,4.55-22.58-3.31-27.11Z"/><path class="cls-36" d="M72.81,160.14c-7.85-4.54-27.48.09-27.48,9.1v79.17c0,9-.52,32.35,7.33,36.88L87.07,306c7.85,4.53,23.06-7,23.06-16V206c0-9,3.78-22.38-4.08-26.91Z"/><path class="cls-37" d="M71.3,160c-7.85-4.53-26.46,0-26.46,9v78.86c0,9,0,31.38,7.85,35.91L87,304.37c7.85,4.53,22.38-6.34,22.38-15.35v-83.3c0-9,3-22.18-4.85-26.71Z"/><path class="cls-38" d="M69.78,159.79c-7.84-4.52-25.42,0-25.42,8.94v78.54c0,9,.52,30.42,8.37,35l34.16,20.55c7.84,4.52,21.69-5.75,21.69-14.74V205.41c0-9,2.22-22-5.62-26.51Z"/><path class="cls-39" d="M68.27,159.62c-7.84-4.52-24.4-.13-24.4,8.86V246.7c0,9,1.05,29.46,8.89,34l34.05,20.48c7.83,4.52,21-5.14,21-14.13V205.1c0-9,1.44-21.79-6.39-26.31Z"/><path class="cls-40" d="M66.75,159.45c-7.83-4.52-23.36-.21-23.36,8.78v77.9c0,9,1.57,28.5,9.4,33l33.93,20.4C94.55,304.07,107,295,107,286V204.79c0-9,.67-21.59-7.16-26.11Z"/><path class="cls-41" d="M65.23,159.28C57.41,154.77,42.9,159,42.9,168v77.59c0,9,2.1,27.52,9.93,32L86.63,298c7.83,4.51,19.61-3.93,19.61-12.91V204.48c0-9-.1-21.39-7.93-25.91Z"/><path class="cls-42" d="M63.72,159.11c-7.82-4.51-21.3-.36-21.3,8.61V245c0,9,2.62,26.56,10.44,31.08l33.68,20.26c7.82,4.52,18.93-3.33,18.93-12.3V204.17c0-9-.89-21.2-8.71-25.71Z"/><path class="cls-43" d="M62.2,158.94c-7.81-4.51-20.27-.44-20.27,8.53v77c0,9,3.15,25.6,11,30.11l33.55,20.19c7.82,4.52,18.24-2.72,18.24-11.69V203.86c0-9-1.66-21-9.47-25.51Z"/><path class="cls-44" d="M60.69,158.77c-7.81-4.5-19.25-.51-19.25,8.45v76.64c0,9,3.68,24.64,11.49,29.15l33.44,20.12c7.81,4.51,17.54-2.12,17.54-11.08v-78.5c0-9-2.43-20.8-10.24-25.31Z"/><path class="cls-45" d="M59.17,158.6C51.37,154.1,41,158,41,167v76.32c0,9,4.2,23.68,12,28.18l33.31,20c7.8,4.51,16.85-1.52,16.85-10.47V203.24c0-9-3.21-20.61-11-25.11Z"/><path class="cls-46" d="M57.66,158.43c-7.8-4.5-17.19-.66-17.19,8.28v76c0,8.94,4.73,22.7,12.53,27.21l33.19,20c7.8,4.5,16.16-.92,16.16-9.87V202.93c0-9-4-20.41-11.78-24.91Z"/><path class="cls-47" d="M56.14,158.26c-7.79-4.5-16.15-.74-16.15,8.2v75.7c0,8.94,5.25,21.74,13,26.24L86.1,288.31c7.8,4.5,15.48-.31,15.48-9.26V202.62c0-8.94-4.76-20.21-12.56-24.71Z"/><path class="cls-48" d="M54.62,158.09c-7.79-4.49-15.12-.82-15.12,8.12v75.38c0,8.94,5.78,20.78,13.57,25.28L86,286.7c7.79,4.5,14.79.3,14.79-8.64V202.31c0-8.94-5.54-20-13.33-24.51Z"/><path class="cls-49" d="M53.11,157.92C45.32,153.43,39,157,39,166V241c0,8.93,6.31,19.82,14.1,24.31L85.93,285.1c7.78,4.49,14.09.89,14.09-8V202c0-8.93-6.31-19.82-14.09-24.31Z"/></g><path class="cls-91" d="M52.56,142.06c-1.84-1.79-4.79-1.95-8.12,0C39,145.17,34.58,152.65,34.36,159c0,0,0,2.93,0,3.7h0c0,1.21-.06,104.79-.06,104.9,0,5.81-3.73,12.75-8.58,16.39l41.66,24s2.25,2.15,3.36,2.41c.06,0,6.4,3.11,10.09,4.9v2.81c0,4,1.76,6.5,4.44,7h0a5,5,0,0,0,.69.08h.78a9.61,9.61,0,0,0,4-1.36,17.75,17.75,0,0,0,4.27-3.57,14.36,14.36,0,0,0,3.63-5.38,19.57,19.57,0,0,0,2.19-8.46c0-.05.07-1.07.07-2.3,0-.59,0-79.55.05-105.29,0,0,0-.07,0-.1v-1.62c.23-6.29,4.66-13.77,10.09-16.91a8,8,0,0,1,5.94-1.19Z"/><path class="cls-92" d="M81.62,318.81a17.65,17.65,0,0,1,1.25-6.19L14.43,273.38,13,272.56a17.78,17.78,0,0,0-1.22,6.13,7.43,7.43,0,0,0,3.59,6.6l69,39.7-.19-.16C82.57,323.74,81.62,321.68,81.62,318.81Z"/><path class="cls-72" d="M92.65,194.1l-50.6-29.68c0,4.79,0,8.58,0,11.58l50.61,29.2Z"/><path class="cls-50" d="M92.65,203.65,42.71,174.83v-10l-.66-.4c0,4.79,0,8.58,0,11.58l50.61,29.2Z"/><path class="cls-93" d="M42,157.49v2.59L76.23,179.7c0,.57,0-.95,0-2.58Zm0,2.59h0C42,160.57,42,160.51,42,160.08Zm0,30.75h0C42,191.32,42,191.26,42,190.83Zm0,0,27,15.52v-2.58L42,188.24Z"/><path class="cls-72" d="M66.61,209.81,42.05,195.17c0,4.79,0,8.58,0,11.58l24.57,14.16Z"/><path class="cls-50" d="M66.61,219.36l-23.9-13.78v-10l-.66-.4c0,4.79,0,8.58,0,11.58l24.57,14.16Z"/><path class="cls-72" d="M92.65,254.85l-50.6-29.68c0,4.79,0,8.58,0,11.58L92.65,266Z"/><path class="cls-50" d="M92.65,264.4,42.71,235.58v-10l-.66-.4c0,4.79,0,8.58,0,11.58L92.65,266Z"/><path class="cls-72" d="M92.65,285.35l-50.6-29.68c0,4.79,0,8.58,0,11.58l50.61,29.2Z"/><path class="cls-50" d="M92.65,294.9,42.71,266.08v-10l-.66-.4c0,4.79,0,8.58,0,11.58l50.61,29.2Z"/><polygon class="cls-94" points="62.07 215.41 64.92 212.81 59.23 209.53 62.07 215.41"/><path class="cls-72" d="M92.61,224.65,69.47,210.84c0,4.79,0,8.58,0,11.57l23.15,13.34Z"/><path class="cls-50" d="M92.61,234.2,70.13,221.25v-10l-.66-.39c0,4.79,0,8.58,0,11.57l23.15,13.34Z"/><polygon class="cls-50" points="88.41 230.5 91.25 227.9 85.56 224.62 88.41 230.5"/><ellipse class="cls-95" cx="106.31" cy="51.29" rx="17.81" ry="34.56" transform="translate(16.22 127.55) rotate(-66)"/><ellipse class="cls-96" cx="108.09" cy="54" rx="12.67" ry="21.95" transform="translate(-12.48 61.93) rotate(-30.31)"/><path class="cls-97" d="M108.09,36.14c8.6,5,15.57,17,15.57,26.85s-7,13.84-15.57,8.87Z"/><path class="cls-72" d="M113.28,59.73a12.56,12.56,0,0,1-2.6-3.12c-.43-.72-.42-1.5,0-1.74A3.36,3.36,0,0,0,112,53.38c.46.13,1,0,1-.66a2.47,2.47,0,0,0-.66-1.69,8.26,8.26,0,0,0-4.19-7.35c-3.14-1.82-4.07-.09-4.18,2.52-.38-.09-.66.28-.66.92a3,3,0,0,0,1,1.85,15,15,0,0,0,1.33,3c.42.72.43,1.52,0,1.75a3.43,3.43,0,0,1-2.6.11c-1.32-.4-2.3.39-2.3,2v2.82a1.9,1.9,0,0,0,.86,1.48l13.07,7.55c.47.27.86,0,.86-.49V64.41A6.71,6.71,0,0,0,113.28,59.73Z"/><g class="cls-80"><path class="cls-3" d="M33.38,201.83c-3.46-2-6.26,3.84-6.26,7.81v35.83a13.81,13.81,0,0,0,6.26,10.81l29.23,16.83c3.46,2,7.66.18,7.66-3.79V229.25c0-4-4.2-8.6-7.66-10.59Z"/><path class="cls-81" d="M33.31,202.1c-3.46-2-6.26,3.45-6.26,7.42v35.57a13.81,13.81,0,0,0,6.26,10.8l29.12,16.76c3.46,2,7.52.2,7.52-3.77V229.46c0-4-4.06-8.6-7.52-10.59Z"/><path class="cls-82" d="M33.23,202.37c-3.45-2-6.25,3.07-6.25,7v35.3a13.79,13.79,0,0,0,6.25,10.79l29,16.7c3.46,2,7.39.22,7.39-3.74V229.68c0-4-3.93-8.61-7.39-10.6Z"/><path class="cls-83" d="M33.16,202.64c-3.45-2-6.25,2.69-6.25,6.64v35a13.75,13.75,0,0,0,6.25,10.77l28.92,16.65c3.44,2,7.25.24,7.25-3.72V229.9c0-4-3.81-8.62-7.25-10.61Z"/><path class="cls-84" d="M33.08,202.91c-3.44-2-6.24,2.3-6.24,6.25v34.78a13.75,13.75,0,0,0,6.24,10.75L61.9,271.28c3.44,2,7.12.26,7.12-3.69V230.12c0-4-3.68-8.63-7.12-10.62Z"/><path class="cls-85" d="M33,203.18c-3.44-2-6.22,1.92-6.22,5.86v34.51A13.73,13.73,0,0,0,33,254.3l28.72,16.52c3.44,2,7,.28,7-3.67V230.33c0-3.94-3.54-8.63-7-10.62Z"/><path class="cls-86" d="M32.93,203.45c-3.44-2-6.22,1.53-6.22,5.47v34.25a13.71,13.71,0,0,0,6.22,10.73l28.61,16.47c3.44,2,6.85.29,6.85-3.65V230.55c0-3.94-3.41-8.65-6.85-10.63Z"/><path class="cls-87" d="M32.85,203.72c-3.43-2-6.21,1.15-6.21,5.08v34a13.69,13.69,0,0,0,6.21,10.72l28.51,16.41c3.43,2,6.72.32,6.72-3.62V230.77c0-3.94-3.29-8.66-6.72-10.64Z"/><path class="cls-88" d="M32.78,204c-3.43-2-6.21.76-6.21,4.7V242.4a13.67,13.67,0,0,0,6.21,10.7l28.4,16.35c3.43,2,6.59.34,6.59-3.59V231c0-3.93-3.16-8.66-6.59-10.64Z"/><path class="cls-89" d="M32.7,204.26c-3.42-2-6.2.38-6.2,4.31V242a13.68,13.68,0,0,0,6.2,10.69L61,269c3.43,2,6.45.35,6.45-3.58V231.2c0-3.93-3-8.67-6.45-10.65Z"/><path class="cls-90" d="M32.63,204.53c-3.42-2-6.19,0-6.19,3.92v33.18a13.66,13.66,0,0,0,6.19,10.68l28.2,16.23c3.41,2,6.31.37,6.31-3.55V231.42c0-3.92-2.9-8.68-6.31-10.66Z"/><path class="cls-49" d="M32.55,204.8c-3.41-2-6.18-.39-6.18,3.53v32.92a13.62,13.62,0,0,0,6.18,10.66l28.1,16.17c3.41,2,6.18.4,6.18-3.52V231.64A13.65,13.65,0,0,0,60.65,221Z"/></g><path class="cls-98" d="M0,234.3l66.65,38.18V220.81L0,182.63Z"/><path class="cls-99" d="M0,234.3l66.65,38.18V220.81L0,182.63Z"/><path class="cls-72" d="M11.4,197.89v.71l25.2,14.54,25.19,14.54c0,.83,0-1.06,0-1.16L36.6,212,11.4,197.44Z"/><path class="cls-72" d="M61.8,226.52v0Z"/><path class="cls-72" d="M11.4,204.27v1.16L36.6,220l25.19,14.54c0,.83,0-1.06,0-1.16L36.6,218.81Z"/><path class="cls-72" d="M61.8,233v0Z"/><path class="cls-72" d="M11.4,211.1v1.16L36.6,226.8l25.19,14.54c0,.83,0-1.06,0-1.16L36.6,225.64Z"/><path class="cls-72" d="M61.8,239.48v0Z"/><path class="cls-72" d="M11.4,217.93v1.16l25.2,14.54,25.19,14.54c0,.83,0-1.06,0-1.16L36.6,232.47Z"/><path class="cls-72" d="M61.8,246v0Z"/><path class="cls-72" d="M11.4,224.76v1.16l25.2,14.54L61.79,255c0,.83,0-1.06,0-1.16L36.6,239.3Z"/><path class="cls-72" d="M61.8,252.45v0Z"/><path class="cls-72" d="M11.4,232.75l25.2,14.54,25.19,14.54c0,.83,0-1.06,0-1.16L36.6,246.13,11.4,231.59Z"/><path class="cls-72" d="M61.8,258.93v0Z"/><path class="cls-72" d="M7.69,196.35c0,1-.68,1.35-1.52.87a3.33,3.33,0,0,1-1.52-2.62c0-1,.68-1.34,1.52-.86A3.32,3.32,0,0,1,7.69,196.35Z"/><path class="cls-72" d="M7.69,203.28c0,1-.68,1.35-1.52.86a3.32,3.32,0,0,1-1.52-2.61c0-1,.68-1.35,1.52-.86A3.32,3.32,0,0,1,7.69,203.28Z"/><path class="cls-72" d="M7.69,210.2c0,1-.68,1.35-1.52.87a3.33,3.33,0,0,1-1.52-2.62c0-1,.68-1.34,1.52-.86A3.32,3.32,0,0,1,7.69,210.2Z"/><path class="cls-72" d="M7.69,217.13c0,1-.68,1.35-1.52.86a3.32,3.32,0,0,1-1.52-2.61c0-1,.68-1.35,1.52-.86A3.32,3.32,0,0,1,7.69,217.13Z"/><path class="cls-72" d="M7.69,224.05c0,1-.68,1.35-1.52.87a3.33,3.33,0,0,1-1.52-2.62c0-1,.68-1.34,1.52-.86A3.32,3.32,0,0,1,7.69,224.05Z"/><path class="cls-72" d="M7.69,231c0,1-.68,1.35-1.52.86a3.32,3.32,0,0,1-1.52-2.61c0-1,.68-1.35,1.52-.86A3.32,3.32,0,0,1,7.69,231Z"/><path class="cls-100" d="M173.33,184.12a.47.47,0,0,1-.25-.07l-2.59-1.49a.51.51,0,0,1-.19-.68.52.52,0,0,1,.69-.19l2.59,1.5a.5.5,0,0,1-.25.93Zm-5.19-3a.57.57,0,0,1-.25-.06l-2.59-1.5a.5.5,0,1,1,.5-.86l2.59,1.49a.51.51,0,0,1,.19.68A.52.52,0,0,1,168.14,181.13Zm-5.19-3a.47.47,0,0,1-.25-.07l-2.59-1.49a.52.52,0,0,1-.19-.69.51.51,0,0,1,.69-.18l2.59,1.49a.52.52,0,0,1,.19.69A.51.51,0,0,1,163,178.15Zm-5.19-3a.47.47,0,0,1-.25-.07l-2.59-1.49a.49.49,0,0,1-.18-.68.5.5,0,0,1,.68-.19l2.59,1.5a.49.49,0,0,1,.19.68A.51.51,0,0,1,157.76,175.16Zm-5.19-3a.5.5,0,0,1-.24-.06l-2.6-1.5a.5.5,0,0,1,.5-.86l2.59,1.49a.5.5,0,0,1-.25.93Zm-5.18-3a.43.43,0,0,1-.25-.07l-2.6-1.49a.51.51,0,0,1-.18-.69.49.49,0,0,1,.68-.18l2.59,1.49a.51.51,0,0,1,.19.69A.5.5,0,0,1,147.39,169.19Zm-5.19-3a.43.43,0,0,1-.25-.07l-2.6-1.49a.49.49,0,0,1-.18-.68.51.51,0,0,1,.68-.19l2.6,1.5a.5.5,0,0,1-.25.93Zm-5.19-3a.54.54,0,0,1-.25-.06l-2.6-1.5a.5.5,0,1,1,.5-.86l2.6,1.49a.5.5,0,0,1-.25.93Z"/><path class="cls-101" d="M80.82,69.69a.45.45,0,0,1-.25-.07L78,68.13a.5.5,0,0,1-.18-.68.5.5,0,0,1,.68-.19l2.6,1.49a.51.51,0,0,1,.18.69A.5.5,0,0,1,80.82,69.69Zm-5.19-3a.45.45,0,0,1-.25-.07l-2.59-1.49a.5.5,0,0,1-.19-.68.51.51,0,0,1,.69-.19l2.59,1.5a.5.5,0,0,1-.25.93Zm-5.19-3a.57.57,0,0,1-.25-.06L67.6,62.16a.51.51,0,0,1-.19-.69.5.5,0,0,1,.68-.18l2.6,1.49a.5.5,0,0,1-.25.93Zm-5.19-3a.47.47,0,0,1-.25-.07l-2.59-1.49a.5.5,0,0,1-.19-.68.51.51,0,0,1,.69-.19l2.59,1.49a.51.51,0,0,1,.18.69A.5.5,0,0,1,65.25,60.73Zm-5.19-3a.47.47,0,0,1-.25-.07l-2.59-1.49a.5.5,0,1,1,.5-.86l2.59,1.49a.51.51,0,0,1,.19.68A.52.52,0,0,1,60.06,57.74Z"/><path class="cls-102" d="M43.35,85.33a13.23,13.23,0,0,1-2-5.92c0-.55,0-.38,0-1.07s0-1.28,0-1.74a5.51,5.51,0,0,1,1-2.83,2.73,2.73,0,0,1,2.21-1.07A6.64,6.64,0,0,1,48,73.79a13.11,13.11,0,0,1,6.83,10.54c0,.57,0,.77,0,1.12,0,.52,0,1,0,1.3-.05,1-.32,1.6-.8,1.87a1.86,1.86,0,0,1-1.83-.24,4.84,4.84,0,0,1-1.35-1.13A6.39,6.39,0,0,1,50,86a1.19,1.19,0,0,1-.81.49,2.66,2.66,0,0,1-1.53-.5,5.54,5.54,0,0,1-2.17-2.38A8,8,0,0,1,44.7,80a3.58,3.58,0,0,1,.78-2.71c.53-.46,1.24-.43,2.15.09a4.07,4.07,0,0,1,1.09.9,4.81,4.81,0,0,1,.75,1.16v-.32a.3.3,0,0,1,.13-.29.33.33,0,0,1,.31,0l.74.42a1,1,0,0,1,.32.32,1,1,0,0,1,.12.44v4.37a2.94,2.94,0,0,0,.28,1.34,2,2,0,0,0,.78.85c.37.22.64.21.8,0a1.66,1.66,0,0,0,.24-1c0-.4,0-.83,0-1.3,0-.21,0-.31,0-.83a8.41,8.41,0,0,0-1.35-4.28A11.33,11.33,0,0,0,48,75.57c-1.48-.85-2.64-1.09-3.46-.71S43.18,76.18,43,77.65A15.93,15.93,0,0,0,43,79.27a5.18,5.18,0,0,0,.05,1A9.75,9.75,0,0,0,44.5,84.7,10.25,10.25,0,0,0,48.1,88a10.46,10.46,0,0,0,1.87.9,3.21,3.21,0,0,0,1.11.22,4.79,4.79,0,0,0,.83-.14l.25-.07a.42.42,0,0,1,.26.07l1,.6a1,1,0,0,1,.31.32.92.92,0,0,1,.13.43.5.5,0,0,1-.11.26c-1.3.9-3.19.64-5.68-.8A13.24,13.24,0,0,1,43.35,85.33Zm5.75-.89a2.66,2.66,0,0,0,.37-1.68,5.25,5.25,0,0,0-.37-2.11,2.9,2.9,0,0,0-1.22-1.35c-1.05-.6-1.57-.06-1.57,1.64A5.18,5.18,0,0,0,46.7,83a2.85,2.85,0,0,0,1.18,1.37C48.44,84.69,48.85,84.71,49.1,84.44Z"/><path class="cls-103" d="M173.33,214.07a.47.47,0,0,1-.25-.07l-2.59-1.49a.51.51,0,0,1-.19-.68.52.52,0,0,1,.69-.19l2.59,1.5a.5.5,0,0,1-.25.93Zm-5.19-3a.57.57,0,0,1-.25-.06l-2.59-1.5a.5.5,0,1,1,.5-.86l2.59,1.49a.51.51,0,0,1,.19.68A.52.52,0,0,1,168.14,211.08Zm-5.19-3a.47.47,0,0,1-.25-.07l-2.59-1.49a.52.52,0,0,1-.19-.69.51.51,0,0,1,.69-.18l2.59,1.49a.52.52,0,0,1,.19.69A.51.51,0,0,1,163,208.1Zm-5.19-3a.47.47,0,0,1-.25-.07l-2.59-1.49a.49.49,0,0,1-.18-.68.5.5,0,0,1,.68-.19l2.59,1.5a.49.49,0,0,1,.19.68A.51.51,0,0,1,157.76,205.11Zm-5.19-3a.5.5,0,0,1-.24-.06l-2.6-1.5a.5.5,0,0,1,.5-.86l2.59,1.49a.5.5,0,0,1-.25.93Zm-5.18-3a.43.43,0,0,1-.25-.07l-2.6-1.49a.51.51,0,0,1-.18-.69.49.49,0,0,1,.68-.18l2.59,1.49a.51.51,0,0,1,.19.69A.5.5,0,0,1,147.39,199.14Zm-5.19-3a.43.43,0,0,1-.25-.07l-2.6-1.49a.49.49,0,0,1-.18-.68.51.51,0,0,1,.68-.19l2.6,1.5a.5.5,0,0,1-.25.93Zm-5.19-3a.54.54,0,0,1-.25-.06l-2.6-1.5a.5.5,0,1,1,.5-.86l2.6,1.49a.5.5,0,0,1-.25.93Zm-5.19-3a.45.45,0,0,1-.25-.07l-2.6-1.49a.51.51,0,0,1-.18-.69.49.49,0,0,1,.68-.18l2.6,1.49a.51.51,0,0,1,.18.69A.5.5,0,0,1,131.82,190.18Zm-5.19-3a.45.45,0,0,1-.25-.07l-2.59-1.49a.5.5,0,0,1-.19-.68.51.51,0,0,1,.68-.19l2.6,1.5a.5.5,0,0,1-.25.93Z"/><path class="cls-104" d="M54.17,54.67a9,9,0,0,1-1.88-2.25c-.31-.52-.3-1.08,0-1.26a2.4,2.4,0,0,0,1-1.07c.33.09.74,0,.74-.48a1.74,1.74,0,0,0-.48-1.22,6,6,0,0,0-3-5.32c-2.27-1.31-3-.06-3,1.82-.27-.06-.48.21-.48.67a2.2,2.2,0,0,0,.74,1.34,11.12,11.12,0,0,0,1,2.18c.31.52.32,1.1,0,1.26a2.48,2.48,0,0,1-1.89.08c-.95-.29-1.66.29-1.66,1.46v2A1.35,1.35,0,0,0,45.77,55l9.44,5.46c.34.19.62,0,.62-.36v-2A4.88,4.88,0,0,0,54.17,54.67Z"/><path class="cls-105" d="M80.82,100.44a.45.45,0,0,1-.25-.07L78,98.88a.5.5,0,0,1-.18-.68.5.5,0,0,1,.68-.19l2.6,1.49a.51.51,0,0,1,.18.69A.5.5,0,0,1,80.82,100.44Zm-5.19-3a.45.45,0,0,1-.25-.07l-2.59-1.49a.5.5,0,0,1-.19-.68.51.51,0,0,1,.69-.19l2.59,1.5a.5.5,0,0,1-.25.93Zm-5.19-3a.57.57,0,0,1-.25-.06L67.6,92.91a.51.51,0,0,1-.19-.69.5.5,0,0,1,.68-.18l2.6,1.49a.5.5,0,0,1-.25.93Zm-5.19-3a.47.47,0,0,1-.25-.07l-2.59-1.49a.5.5,0,0,1-.19-.68.51.51,0,0,1,.69-.19l2.59,1.49a.51.51,0,0,1,.18.69A.5.5,0,0,1,65.25,91.48Zm-5.19-3a.47.47,0,0,1-.25-.07l-2.59-1.49a.5.5,0,1,1,.5-.86l2.59,1.49a.51.51,0,0,1,.19.68A.52.52,0,0,1,60.06,88.49Z"/><path class="cls-106" d="M40.15,158.35a.57.57,0,0,1-.25-.06l-2.59-1.49a.52.52,0,0,1-.19-.69.51.51,0,0,1,.69-.18l2.59,1.49a.51.51,0,0,1,.19.68A.52.52,0,0,1,40.15,158.35Zm-5.19-3a.47.47,0,0,1-.25-.07l-2.59-1.49a.5.5,0,1,1,.5-.87l2.59,1.5a.5.5,0,0,1,.19.68A.51.51,0,0,1,35,155.37Zm-5.19-3a.57.57,0,0,1-.25-.06l-2.59-1.5a.49.49,0,0,1-.18-.68.5.5,0,0,1,.68-.19l2.59,1.5a.51.51,0,0,1,.19.68A.51.51,0,0,1,29.77,152.38Zm-5.19-3a.5.5,0,0,1-.24-.06l-2.6-1.49a.51.51,0,0,1-.18-.69.49.49,0,0,1,.68-.18l2.59,1.49a.5.5,0,0,1-.25.93Zm-5.19-3a.42.42,0,0,1-.24-.07l-2.6-1.49a.5.5,0,0,1,.5-.87l2.59,1.5a.49.49,0,0,1,.19.68A.5.5,0,0,1,19.39,146.41Z"/><path class="cls-107" d="M189.35,186l-.58-.33v1c0,.81-.58,1.13-1.29.73a2.85,2.85,0,0,1-1.28-2.21v-1l-5.12-3v1c0,.81-.58,1.14-1.28.73a2.83,2.83,0,0,1-1.29-2.21v-1l-.58-.34c-.62-.36-1.12-.07-1.12.64v9.68a2.48,2.48,0,0,0,1.12,1.93l11.42,6.6c.62.35,1.12.06,1.12-.64V188A2.48,2.48,0,0,0,189.35,186Zm.27,11.43-12-6.9v-8.34l12,6.91Zm-6.41-11.54-2.13-1.23v1.47l2.13,1.23Zm3,1.73-2.13-1.24v1.47l2.13,1.24Zm3,1.72-2.13-1.23v1.47l2.13,1.23Zm-9-3.22-2.13-1.23v1.47l2.13,1.23Zm3,1.73-2.13-1.23v1.47l2.13,1.23Zm3,1.73-2.13-1.24v1.47l2.13,1.24Zm3,1.72-2.13-1.23v1.47l2.13,1.23Zm-9-3.22-2.13-1.23v1.47l2.13,1.24Zm3,1.73-2.13-1.23v1.47l2.13,1.23Zm3,1.73-2.13-1.24v1.47L186.2,193Zm3,1.72-2.13-1.23v1.47l2.13,1.23Zm-9-3.21-2.13-1.24v1.47l2.13,1.24Zm3,1.72-2.13-1.23V192l2.13,1.23Zm-3.41-9.32c.47.27.85.05.85-.49v-2a1.87,1.87,0,0,0-.85-1.47c-.48-.28-.86-.06-.86.48v2A1.88,1.88,0,0,0,179.8,182.47Zm7.68,4.44c.48.27.86.05.86-.49v-2a1.86,1.86,0,0,0-.86-1.47c-.47-.28-.85-.06-.85.48v2A1.91,1.91,0,0,0,187.48,186.91Z"/><path class="cls-108" d="M10.78,134.54c-1.41-.81-2.62-.6-3.23.38a8,8,0,0,0-3.23-4.11c-2-1.17-3.65-.24-3.65,2.08,0,4.22,6.88,13.42,6.88,13.42s6.88-1.26,6.88-5.48A8,8,0,0,0,10.78,134.54Z"/><path class="cls-109" d="M181.41,209.48c-3.51-2-6.35-.4-6.35,3.63A14.07,14.07,0,0,0,181,223.77v3.59l2.75-2.47c2.38.32,4.07-1.35,4.07-4.45A14,14,0,0,0,181.41,209.48Zm-2.51,6.6c-.39.22-1-.14-1.4-.81s-.38-1.38,0-1.6,1,.14,1.4.81S179.28,215.86,178.9,216.08Zm3.21,1.85c-.39.22-1-.14-1.4-.8s-.38-1.39,0-1.61,1,.14,1.4.81S182.5,217.71,182.11,217.93Zm3.21,1.86c-.38.22-1-.14-1.4-.81s-.38-1.38,0-1.6,1,.14,1.4.8S185.71,219.57,185.32,219.79Z"/></g></g></g></svg>