<svg xmlns="http://www.w3.org/2000/svg" xmlns:xlink="http://www.w3.org/1999/xlink" viewBox="0 0 155.86 100"><defs><style>.cls-1{isolation:isolate;}.cls-2{fill:url(#linear-gradient);}.cls-3{fill:url(#linear-gradient-2);}.cls-4{fill:url(#linear-gradient-3);}.cls-5{fill:url(#linear-gradient-4);}.cls-6{opacity:0.2;mix-blend-mode:multiply;fill:url(#linear-gradient-5);}.cls-7{fill:#fff;}</style><linearGradient id="linear-gradient" y1="41.55" x2="153.15" y2="41.55" gradientUnits="userSpaceOnUse"><stop offset="0" stop-color="#311944"/><stop offset="1" stop-color="#893976"/></linearGradient><linearGradient id="linear-gradient-2" x1="107.92" y1="87.2" x2="128.19" y2="87.2" xlink:href="#linear-gradient"/><linearGradient id="linear-gradient-3" x1="67.34" y1="-32.73" x2="97.53" y2="164.81" gradientUnits="userSpaceOnUse"><stop offset="0" stop-color="#ff9085"/><stop offset="1" stop-color="#fb6fbb"/></linearGradient><linearGradient id="linear-gradient-4" x1="101.68" y1="-36.5" x2="131.52" y2="158.77" xlink:href="#linear-gradient-3"/><linearGradient id="linear-gradient-5" x1="0" y1="50" x2="155.79" y2="50" xlink:href="#linear-gradient-3"/></defs><g class="cls-1"><g id="Capa_2" data-name="Capa 2"><g id="Layer_1" data-name="Layer 1"><path class="cls-2" d="M153.15,14.14l-.06,51.51v8.27c0,4.85-3.39,3.76-8,3.79l-17,.64-2.22.09-15.4.58-2.54.1L10.17,82.81l-.65,0A9.46,9.46,0,0,1,0,73.44v-64A9.17,9.17,0,0,1,9.21.26h.3L13.28.4,144.8,5.08A8.89,8.89,0,0,1,153.15,14.14Z"/><polygon class="cls-3" points="128.19 75.19 125.87 78.44 122.69 82.88 110.45 100 107.98 98.93 107.94 82.89 107.93 79.12 107.92 74.41 110.48 74.51 128.19 75.19"/><path class="cls-4" d="M155.86,13.91l-.07,51.61V74a8.71,8.71,0,0,1-8.4,8.89H107.94l-96.23,0a7.81,7.81,0,0,1-1.54-.12,9.47,9.47,0,0,1-8-9.31l0-64.26a9.23,9.23,0,0,1,7.05-9A9.33,9.33,0,0,1,11.7,0l1.59.06L147.48,4.82A8.93,8.93,0,0,1,155.86,13.91Z"/><polygon class="cls-5" points="130.81 75.02 128.09 78.36 124.4 82.88 110.45 100 110.46 82.89 110.46 79.03 110.46 74.51 110.46 74.25 130.81 75.02"/><path class="cls-6" d="M155.79,65.52V74a8.71,8.71,0,0,1-8.4,8.89h-23l-14,17.12L108,98.93l0-16-96.23,0a7.81,7.81,0,0,1-1.54-.12l-.65,0A9.46,9.46,0,0,1,0,73.44v-64A9.2,9.2,0,0,1,9.21.27,9.33,9.33,0,0,1,11.7,0l1.59.06c0,.11,0,.23,0,.34,0,12.53,4.85,30.24,32.31,31.78C88.09,34.57,99,43.43,114.8,61.07c10.3,11.49,26.06,5.55,38.29,4.58C154,65.58,154.92,65.53,155.79,65.52Z"/><path class="cls-7" d="M35.26,29.59l7.45.21,0,9.09,8.56.2,0-9.05,7.33.21L58.55,54.9l-7.33-.12,0-9.33-8.56-.17,0,9.37-7.45-.12Z"/><path class="cls-7" d="M61.71,30.34,82,30.92V37l-6.51-.16,0,18.29-7.12-.12,0-18.35-6.61-.17Z"/><path class="cls-7" d="M115.52,31.88l0,23.92-6.65-.11,0-13.48-6.32,13.38-4.45-.07-6.3-13.63,0,13.53-6.81-.1L85,31l8.6.24,6.91,15.11,6.89-14.72Z"/><path class="cls-7" d="M126.89,32.2l0,17.76,8.55.17,0,6-15.29-.24L120.15,32Z"/></g></g></g></svg>