<svg xmlns="http://www.w3.org/2000/svg" xmlns:xlink="http://www.w3.org/1999/xlink" viewBox="0 0 110 110"><defs><style>.cls-1{isolation:isolate;}.cls-2{fill:url(#Degradado_sin_nombre_982);}.cls-3{stroke-miterlimit:10;opacity:0.6;fill:url(#Degradado_sin_nombre_979);stroke:url(#New_Gradient_Swatch);}.cls-4{fill:#f1f1f2;}.cls-5{opacity:0.2;mix-blend-mode:multiply;fill:url(#linear-gradient);}</style><linearGradient id="Degradado_sin_nombre_982" x1="106.46" y1="100.58" x2="1.98" y2="8.04" gradientUnits="userSpaceOnUse"><stop offset="0.04" stop-color="#fee140"/><stop offset="0.22" stop-color="#fdd24c"/><stop offset="0.57" stop-color="#fca96c"/><stop offset="1" stop-color="#fa709a"/></linearGradient><linearGradient id="Degradado_sin_nombre_979" x1="96.95" y1="92.16" x2="11.77" y2="16.71" gradientUnits="userSpaceOnUse"><stop offset="0.04" stop-color="#fbab7e"/><stop offset="1" stop-color="#f7ce68"/></linearGradient><linearGradient id="New_Gradient_Swatch" x1="9.66" y1="55" x2="100.34" y2="55" gradientUnits="userSpaceOnUse"><stop offset="0.06" stop-color="#f7aa90"/><stop offset="0.11" stop-color="#f9b996"/><stop offset="0.22" stop-color="#fcd09f"/><stop offset="0.32" stop-color="#fddda4"/><stop offset="0.41" stop-color="#fee2a6"/><stop offset="0.52" stop-color="#fac199"/><stop offset="0.63" stop-color="#f7a98f"/><stop offset="0.73" stop-color="#f59a89"/><stop offset="0.81" stop-color="#f49587"/></linearGradient><linearGradient id="linear-gradient" x1="200.11" y1="1833.78" x2="133.49" y2="1774.77" gradientTransform="matrix(1, 0, 0, -1, -124.4, 1876.31)" gradientUnits="userSpaceOnUse"><stop offset="0" stop-color="#ff9085"/><stop offset="1" stop-color="#fb6fbb"/></linearGradient></defs><g class="cls-1"><g id="Capa_2" data-name="Capa 2"><g id="Layer_1" data-name="Layer 1"><circle class="cls-2" cx="55" cy="55" r="55"/><circle class="cls-3" cx="55" cy="55" r="44.84"/><path class="cls-4" d="M46.55,68.11a13.68,13.68,0,0,1-3.25,4.94,14.26,14.26,0,0,1-5.1,3.15,19.4,19.4,0,0,1-6.71,1.09,16.89,16.89,0,0,1-9.44-2.6,14.87,14.87,0,0,1-5.78-7L26.8,61.88a7.14,7.14,0,0,0,1.8,2.79,4,4,0,0,0,2.89,1.19q4,0,4-4.69V31.44h12.2V61.56A18,18,0,0,1,46.55,68.11Z"/><path class="cls-4" d="M62.89,60.59a9,9,0,0,0,3.21,4A7.8,7.8,0,0,0,70.6,66a6,6,0,0,0,2.89-.67,2.24,2.24,0,0,0,1.22-2.09,2.3,2.3,0,0,0-.77-1.7,7.23,7.23,0,0,0-2.64-1.38l-5.46-1.93a23.09,23.09,0,0,1-4.46-2.06,15.36,15.36,0,0,1-3.5-2.85,12.1,12.1,0,0,1-2.28-3.7,12.9,12.9,0,0,1-.8-4.68A14.44,14.44,0,0,1,56,39.08a13.37,13.37,0,0,1,3.25-4.53,15.11,15.11,0,0,1,5-2.95,18.11,18.11,0,0,1,6.3-1.06,20,20,0,0,1,5,.64A18,18,0,0,1,80,33.08a19.38,19.38,0,0,1,3.88,3,16.11,16.11,0,0,1,2.92,3.95L77,46.15a9.46,9.46,0,0,0-2.57-3.21,5.68,5.68,0,0,0-3.66-1.29,4.37,4.37,0,0,0-2.63.71,2.24,2.24,0,0,0-1,1.92A1.89,1.89,0,0,0,68,46,10.14,10.14,0,0,0,70.15,47l6.16,2.32q5.59,2.05,8.25,5.29a12,12,0,0,1,2.67,7.87,13.61,13.61,0,0,1-1.41,6.29,14,14,0,0,1-3.76,4.63A17.34,17.34,0,0,1,76.7,76.3a19.9,19.9,0,0,1-6.23,1,20.84,20.84,0,0,1-5.4-.7,20.47,20.47,0,0,1-4.94-2.06,18.94,18.94,0,0,1-4.21-3.34,17.12,17.12,0,0,1-3.11-4.62Z"/><path class="cls-5" d="M42.86,53.75s-12.75-3.6-31.25-15.09C4.18,34,0,41.84,0,55.31A54.7,54.7,0,0,0,54.69,110,55.64,55.64,0,0,0,99.17,87.14c3.15-4.37-5.35-10.36-13.86-18.2C80,64,75.85,60.22,69.34,57.65c-11.09-4.39-15.66.07-26.48-3.9"/></g></g></g></svg>