<svg xmlns="http://www.w3.org/2000/svg" xmlns:xlink="http://www.w3.org/1999/xlink" viewBox="0 0 107.89 107.89"><defs><style>.cls-1{isolation:isolate;}.cls-2{fill:url(#New_Gradient_Swatch_copy_7);}.cls-3{stroke-miterlimit:10;opacity:0.6;fill:url(#New_Gradient_Swatch_copy_26);stroke:url(#New_Gradient_Swatch_copy_26-2);}.cls-4{fill:#f1f1f2;fill-rule:evenodd;}.cls-5{opacity:0.2;mix-blend-mode:multiply;fill:url(#linear-gradient);}</style><linearGradient id="New_Gradient_Swatch_copy_7" x1="104.42" y1="98.65" x2="1.94" y2="7.89" gradientUnits="userSpaceOnUse"><stop offset="0.04" stop-color="#138bbd"/><stop offset="0.23" stop-color="#169ac7"/><stop offset="0.59" stop-color="#1fc3df"/><stop offset="1" stop-color="#2af6ff"/></linearGradient><linearGradient id="New_Gradient_Swatch_copy_26" x1="95.1" y1="90.4" x2="11.55" y2="16.39" gradientUnits="userSpaceOnUse"><stop offset="0.03" stop-color="#7c1dc9"/><stop offset="0.21" stop-color="#6e41d2"/><stop offset="0.62" stop-color="#4c9be8"/><stop offset="1" stop-color="#2af6ff"/></linearGradient><linearGradient id="New_Gradient_Swatch_copy_26-2" x1="9.46" y1="53.95" x2="98.43" y2="53.95" xlink:href="#New_Gradient_Swatch_copy_26"/><linearGradient id="linear-gradient" x1="94.77" y1="1834.97" x2="29.06" y2="1776.76" gradientTransform="translate(127.98 1876.31) rotate(180)" gradientUnits="userSpaceOnUse"><stop offset="0" stop-color="#ff9085"/><stop offset="1" stop-color="#fb6fbb"/></linearGradient></defs><g class="cls-1"><g id="Capa_2" data-name="Capa 2"><g id="Layer_1" data-name="Layer 1"><circle class="cls-2" cx="53.95" cy="53.95" r="53.95"/><circle class="cls-3" cx="53.95" cy="53.95" r="43.98"/><path class="cls-4" d="M76.3,41.49c1.46-5.72,3.28-16.34-3.16-20S58.39,24.83,54,29C49.59,24.87,41,18,34.58,21.64s-4.44,14-2.95,19.81c-6,1.64-16.23,5.19-16.23,12.44S25.64,65,31.58,66.61c-1.49,5.8-3.37,16.09,3.05,19.68s15-3.06,19.46-7.23c4.43,4.15,12.7,10.87,19.11,7.27S78,72.24,76.47,66.44c5.76-1.65,16-5.42,16-12.55S82.19,43.13,76.3,41.49Zm-.73,21.88a73.2,73.2,0,0,0-3.9-9.47,73,73,0,0,0,3.75-9.33c4.32,1.21,13.78,4,13.78,9.32S80.12,62.06,75.57,63.37Zm-4,20.19c-4.79,2.69-11.89-3.74-15.17-6.79a74.72,74.72,0,0,0,6.46-8,78.53,78.53,0,0,0,10.45-1.56C74.33,71.35,76.35,80.87,71.55,83.56Zm-35.27,0c-4.79-2.68-2.6-11.87-1.5-16.14a78.33,78.33,0,0,0,10.39,1.46,77.75,77.75,0,0,0,6.61,7.93C49,79.39,41.08,86.21,36.28,83.53ZM18.7,53.89c0-5.41,9.4-8.16,13.81-9.37A74.69,74.69,0,0,0,36.27,54a75.51,75.51,0,0,0-3.8,9.58C28.26,62.37,18.7,59.29,18.7,53.89ZM36.23,24.41c4.8-2.7,12.26,3.87,15.45,6.82a76.57,76.57,0,0,0-6.57,7.88,83.69,83.69,0,0,0-10.29,1.55C33.62,36,31.43,27.1,36.23,24.41Zm29,18.17c2.46.3,4.82.7,7,1.19a66.27,66.27,0,0,1-2.47,6.44Q67.64,46.31,65.2,42.58ZM54,33.51c1.52,1.6,3,3.38,4.54,5.31q-4.56-.21-9.11,0C50.91,36.91,52.44,35.13,54,33.51ZM38.16,50.21c-1-2.21-1.78-4.38-2.45-6.47,2.2-.48,4.55-.87,7-1.16Q40.24,46.29,38.16,50.21Zm4.61,15.21a69.23,69.23,0,0,1-7.1-1.11,69.45,69.45,0,0,1,2.49-6.59C39.57,60.35,41.11,62.93,42.77,65.42Zm11.3,9.06C52.51,72.85,51,71,49.44,69.1c3.05.12,6.11.12,9.16,0A67.45,67.45,0,0,1,54.07,74.48ZM69.79,57.6a66.54,66.54,0,0,1,2.59,6.58c-2.23.49-4.65.89-7.19,1.19C66.83,62.84,68.38,60.25,69.79,57.6ZM61,65.75a106.1,106.1,0,0,1-14,0A88.91,88.91,0,0,1,39.91,54a90,90,0,0,1,7-11.79,94.13,94.13,0,0,1,14,0,100.58,100.58,0,0,1,7,11.75A100.79,100.79,0,0,1,61,65.75ZM71.5,24.31c4.8,2.69,2.67,12.23,1.62,16.38a82.34,82.34,0,0,0-10.31-1.57,75.44,75.44,0,0,0-6.52-7.89C59.52,28.21,66.74,21.65,71.5,24.31Z"/><path class="cls-5" d="M65.62,52.41s12.57-3.56,30.82-14.89C103.77,33,107.89,40.66,107.89,54A53.94,53.94,0,0,1,54,107.89,54.88,54.88,0,0,1,10.07,85.34C7,81,15.35,75.13,23.74,67.4c5.29-4.87,9.34-8.6,15.75-11.14,10.95-4.34,15.46.06,26.13-3.85"/></g></g></g></svg>