<svg xmlns="http://www.w3.org/2000/svg" xmlns:xlink="http://www.w3.org/1999/xlink" viewBox="0 0 156.51 100"><defs><style>.cls-1{isolation:isolate;}.cls-2{fill:url(#linear-gradient);}.cls-3{fill:url(#linear-gradient-2);}.cls-4,.cls-5{opacity:0.8;}.cls-4{fill:url(#New_Gradient_Swatch_copy_7);}.cls-5{fill:url(#New_Gradient_Swatch_copy_7-2);}.cls-6{font-size:36.19px;fill:#fff;font-family:CentraNo2-Extrabold, Centra No2;font-weight:800;}.cls-7{opacity:0.2;mix-blend-mode:multiply;fill:url(#linear-gradient-3);}</style><linearGradient id="linear-gradient" x1="1263.04" y1="41.44" x2="1415.8" y2="41.44" gradientTransform="matrix(-1, 0, 0, 1, 1419.55, 0)" gradientUnits="userSpaceOnUse"><stop offset="0" stop-color="#311944"/><stop offset="1" stop-color="#893976"/></linearGradient><linearGradient id="linear-gradient-2" x1="1370.68" y1="86.98" x2="1390.9" y2="86.98" xlink:href="#linear-gradient"/><linearGradient id="New_Gradient_Swatch_copy_7" x1="1330.2" y1="-32.64" x2="1360.32" y2="164.4" gradientTransform="matrix(-1, 0, 0, 1, 1419.55, 0)" gradientUnits="userSpaceOnUse"><stop offset="0.04" stop-color="#138bbd"/><stop offset="0.23" stop-color="#169ac7"/><stop offset="0.59" stop-color="#1fc3df"/><stop offset="1" stop-color="#2af6ff"/></linearGradient><linearGradient id="New_Gradient_Swatch_copy_7-2" x1="1364.45" y1="-36.41" x2="1394.22" y2="158.37" xlink:href="#New_Gradient_Swatch_copy_7"/><linearGradient id="linear-gradient-3" x1="1456.69" y1="50.13" x2="1612.09" y2="50.13" gradientTransform="matrix(-1, 0, 0, 1, 1612.09, 0)" gradientUnits="userSpaceOnUse"><stop offset="0" stop-color="#ff9085"/><stop offset="1" stop-color="#fb6fbb"/></linearGradient></defs><g class="cls-1"><g id="Capa_2" data-name="Capa 2"><g id="Layer_1" data-name="Layer 1"><path class="cls-2" d="M3.74,14.1l.07,51.39v8.25c0,4.83,3.38,3.74,8,3.78l17,.64,2.22.08,15.36.58,2.53.1,97.52,3.68.65,0a9.43,9.43,0,0,0,9.48-9.37V9.43A9.16,9.16,0,0,0,147.32.25H147l-3.76.13L12.07,5.07A8.88,8.88,0,0,0,3.74,14.1Z"/><polygon class="cls-3" points="28.65 75 30.96 78.24 34.13 82.67 46.34 99.75 48.8 98.68 48.84 82.68 48.85 78.92 48.86 74.22 46.31 74.32 28.65 75"/><path class="cls-4" d="M1.05,13.88l.06,51.48v8.43A8.69,8.69,0,0,0,9.5,82.66H48.84l96,0a7.81,7.81,0,0,0,1.54-.12,9.44,9.44,0,0,0,8-9.28V9.21A9.26,9.26,0,0,0,144.84,0l-1.58.06L9.4,4.81A8.9,8.9,0,0,0,1.05,13.88Z"/><polygon class="cls-5" points="26.04 74.83 28.75 78.16 32.42 82.67 46.34 99.75 46.33 82.69 46.33 78.83 46.33 74.32 46.33 74.06 26.04 74.83"/><text class="cls-6" transform="translate(48.86 55.96)">CSS</text><path class="cls-7" d="M0,65.61v8.44a8.69,8.69,0,0,0,8.38,8.87H31.31L45.22,100l2.47-1.07,0-16,96,0a9.8,9.8,0,0,0,1.54-.12l.64,0a9.43,9.43,0,0,0,9.49-9.37V9.69A9.19,9.19,0,0,0,146.21.52a9.72,9.72,0,0,0-2.48-.26l-1.59.06c0,.11,0,.22,0,.34,0,12.49-4.84,30.16-32.22,31.7-42.4,2.38-53.27,11.22-69,28.81-10.27,11.46-26,5.54-38.2,4.57C1.77,65.67.87,65.62,0,65.61Z"/></g></g></g></svg>