<svg xmlns="http://www.w3.org/2000/svg" xmlns:xlink="http://www.w3.org/1999/xlink" viewBox="0 0 95.26 110"><defs><style>.cls-1{isolation:isolate;}.cls-2,.cls-3,.cls-5{fill-rule:evenodd;}.cls-2{fill:url(#Degradado_sin_nombre_1007);}.cls-3{fill:url(#Degradado_sin_nombre_995);}.cls-4{fill:#f1f1f2;}.cls-5{opacity:0.2;mix-blend-mode:multiply;fill:url(#Degradado_sin_nombre_1010);}</style><radialGradient id="Degradado_sin_nombre_1007" cx="844.37" cy="683.16" r="51.45" gradientTransform="translate(-635.53 899.37) rotate(-90)" gradientUnits="userSpaceOnUse"><stop offset="0.07" stop-color="#0c7773"/><stop offset="0.11" stop-color="#0c806f"/><stop offset="0.26" stop-color="#0d9962"/><stop offset="0.39" stop-color="#0ea95a"/><stop offset="0.5" stop-color="#0eae57"/><stop offset="0.63" stop-color="#0ea55c"/><stop offset="0.83" stop-color="#0d8d68"/><stop offset="1" stop-color="#0c7475"/></radialGradient><linearGradient id="Degradado_sin_nombre_995" x1="810.73" y1="716.8" x2="878" y2="649.52" gradientTransform="translate(-635.53 899.37) rotate(-90)" gradientUnits="userSpaceOnUse"><stop offset="0.03" stop-color="#0eae57"/><stop offset="0.35" stop-color="#0d9f5f"/><stop offset="0.97" stop-color="#0c7674"/><stop offset="1" stop-color="#0c7475"/></linearGradient><linearGradient id="Degradado_sin_nombre_1010" x1="789.37" y1="683.16" x2="873.26" y2="683.16" gradientTransform="translate(-635.53 899.37) rotate(-90)" gradientUnits="userSpaceOnUse"><stop offset="0" stop-color="#ff9085" stop-opacity="0.7"/><stop offset="1" stop-color="#fb6fbb"/></linearGradient></defs><g class="cls-1"><g id="Capa_2" data-name="Capa 2"><g id="Layer_1" data-name="Layer 1"><polygon class="cls-2" points="0 27.5 0 82.5 47.63 110 95.26 82.5 95.26 27.5 47.63 0 0 27.5"/><polygon class="cls-3" points="4.98 30.38 4.98 79.62 47.63 104.25 90.28 79.62 90.28 30.38 47.63 5.75 4.98 30.38"/><path class="cls-4" d="M47.63,11.93a6.85,6.85,0,0,0-3.31.85L12.77,31a6.7,6.7,0,0,0-3.31,5.77V73.17a6.68,6.68,0,0,0,3.31,5.77l8.48,4.75a13.66,13.66,0,0,0,7.25,2,8.77,8.77,0,0,0,9.42-8.08,9,9,0,0,0,0-1.8V39.88a.93.93,0,0,0-.94-.93H32.79a.93.93,0,0,0-1,.89v36c0,2.8-2.88,5.56-7.51,3.23l-8.48-5a1.07,1.07,0,0,1-.46-.89V36.78a1,1,0,0,1,.46-.89L47.38,17.7a.91.91,0,0,1,.93,0L79.65,35.89a1,1,0,0,1,.47.89V73.17a1.08,1.08,0,0,1-.47.89L48.1,92.26a1.06,1.06,0,0,1-1,0l-8-4.84a1.15,1.15,0,0,0-.89,0,18.07,18.07,0,0,1-4.75,2.17c-.51,0-1.32.46.29,1.35l10.52,6.24a6.58,6.58,0,0,0,6.62,0L82.49,79a6.7,6.7,0,0,0,3.31-5.81V36.78A6.7,6.7,0,0,0,82.49,31L50.94,12.78a6.61,6.61,0,0,0-3.31-.85M56.11,38c-9,0-14.37,3.78-14.37,10.14s5.34,8.82,14,9.67c10.31,1,11.11,2.54,11.11,4.58,0,3.52-2.84,5-9.45,5-8.49,0-10.18-2.07-10.82-6.23a1,1,0,0,0-.93-.76H41.4a.89.89,0,0,0-.9.89s0,0,0,0C40.51,66.6,43.39,73,57.22,73c10,0,15.69-3.94,15.69-10.81s-4.58-8.49-14.29-9.93S47.84,50.27,47.84,48s.85-4.24,8.1-4.24c6.37,0,8.87,1.4,9.84,5.77a.9.9,0,0,0,.89.72h4.25a.81.81,0,0,0,.63-.3.65.65,0,0,0,.21-.68C71.21,41.49,66.21,38,56.11,38Z"/><path class="cls-5" d="M19.36,79.7,0,82.5,47.63,110,95.26,82.5v-55c-15.26-8.81-5.74,26.79-37.94,33a21.1,21.1,0,0,0-8,3.34L36,73.12A38.74,38.74,0,0,1,19.36,79.7Z"/></g></g></g></svg>